STARTFONT 2.1
FONT -Shinonome-Gothic-Medium-R-Normal--14-130-75-75-C-140-ISO10646-1
SIZE 13 75 75
FONTBOUNDINGBOX 14 14 0 -2
COMMENT "Generated by fontforge, http://fontforge.sourceforge.net"
STARTPROPERTIES 23
FONTNAME_REGISTRY ""
FOUNDRY "Shinonome"
FAMILY_NAME "Gothic"
WEIGHT_NAME "Medium"
SLANT "R"
SETWIDTH_NAME "Normal"
ADD_STYLE_NAME ""
PIXEL_SIZE 14
POINT_SIZE 130
RESOLUTION_X 75
RESOLUTION_Y 75
SPACING "C"
AVERAGE_WIDTH 140
CHARSET_REGISTRY "ISO10646"
CHARSET_ENCODING "1"
COPYRIGHT "Public domain font.  Share and enjoy."
_XMBDFED_INFO "Edited with xmbdfed 4.4."
WEIGHT 10
X_HEIGHT -1
QUAD_WIDTH 14
DEFAULT_CHAR 8481
FONT_DESCENT 2
FONT_ASCENT 12
ENDPROPERTIES
CHARS 6880
STARTCHAR exclam
ENCODING 33
SWIDTH 1000 0
DWIDTH 14 0
BBX 11 9 1 2
BITMAP
8020
8C20
F840
6040
6080
7380
5E00
4000
4000
ENDCHAR
STARTCHAR $2171
ENCODING 162
SWIDTH 960 0
DWIDTH 14 0
BBX 8 13 3 -2
BITMAP
04
04
1C
2A
49
89
88
90
51
32
3C
20
20
ENDCHAR
STARTCHAR $2172
ENCODING 163
SWIDTH 960 0
DWIDTH 14 0
BBX 12 12 1 -1
BITMAP
0180
0240
0420
0400
0800
0800
7FC0
0800
6800
9810
9620
61C0
ENDCHAR
STARTCHAR $2178
ENCODING 167
SWIDTH 960 0
DWIDTH 14 0
BBX 5 14 5 -2
BITMAP
70
88
88
C0
60
70
98
C8
70
30
18
88
88
70
ENDCHAR
STARTCHAR $212f
ENCODING 168
SWIDTH 960 0
DWIDTH 14 0
BBX 7 2 4 10
BITMAP
C6
C6
ENDCHAR
STARTCHAR $224c
ENCODING 172
SWIDTH 960 0
DWIDTH 14 0
BBX 10 6 2 0
BITMAP
FFC0
0040
0040
0040
0040
0040
ENDCHAR
STARTCHAR $216b
ENCODING 176
SWIDTH 960 0
DWIDTH 14 0
BBX 4 4 2 7
BITMAP
60
90
90
60
ENDCHAR
STARTCHAR $215e
ENCODING 177
SWIDTH 960 0
DWIDTH 14 0
BBX 11 11 2 0
BITMAP
0400
0400
0400
0400
FFE0
0400
0400
0400
0400
0000
FFE0
ENDCHAR
STARTCHAR $212d
ENCODING 180
SWIDTH 960 0
DWIDTH 14 0
BBX 4 3 5 9
BITMAP
30
60
80
ENDCHAR
STARTCHAR $2279
ENCODING 182
SWIDTH 960 0
DWIDTH 14 0
BBX 5 12 5 -1
BITMAP
78
E8
E8
E8
68
28
28
28
28
28
28
28
ENDCHAR
STARTCHAR $215f
ENCODING 215
SWIDTH 960 0
DWIDTH 14 0
BBX 11 11 2 0
BITMAP
8020
4040
2080
1100
0A00
0400
0A00
1100
2080
4040
8020
ENDCHAR
STARTCHAR $2160
ENCODING 247
SWIDTH 960 0
DWIDTH 14 0
BBX 11 11 2 0
BITMAP
0400
0E00
0400
0000
0000
FFE0
0000
0000
0400
0E00
0400
ENDCHAR
STARTCHAR $2621
ENCODING 913
SWIDTH 960 0
DWIDTH 14 0
BBX 11 11 2 0
BITMAP
0400
0400
0A00
0A00
1100
1100
2080
3F80
4040
4040
E0E0
ENDCHAR
STARTCHAR $2622
ENCODING 914
SWIDTH 960 0
DWIDTH 14 0
BBX 10 11 3 0
BITMAP
FC00
4300
4080
4080
4300
7E00
4180
4040
4040
4180
FE00
ENDCHAR
STARTCHAR $2623
ENCODING 915
SWIDTH 960 0
DWIDTH 14 0
BBX 9 11 3 0
BITMAP
FF00
4100
4080
4000
4000
4000
4000
4000
4000
4000
E000
ENDCHAR
STARTCHAR $2624
ENCODING 916
SWIDTH 960 0
DWIDTH 14 0
BBX 11 11 2 0
BITMAP
0400
0400
0A00
0A00
1100
1100
2080
2080
4040
4040
FFE0
ENDCHAR
STARTCHAR $2625
ENCODING 917
SWIDTH 960 0
DWIDTH 14 0
BBX 9 11 2 0
BITMAP
FF00
4100
4080
4000
4100
7F00
4100
4000
4000
4080
FF80
ENDCHAR
STARTCHAR $2626
ENCODING 918
SWIDTH 960 0
DWIDTH 14 0
BBX 11 11 2 0
BITMAP
7FC0
4080
8100
0200
0400
0400
0800
1000
2020
4040
FFC0
ENDCHAR
STARTCHAR $2627
ENCODING 919
SWIDTH 960 0
DWIDTH 14 0
BBX 10 11 2 0
BITMAP
E1C0
4080
4080
4080
4080
7F80
4080
4080
4080
4080
E1C0
ENDCHAR
STARTCHAR $2628
ENCODING 920
SWIDTH 960 0
DWIDTH 14 0
BBX 11 11 2 0
BITMAP
0E00
3180
4040
8020
9120
9F20
9120
8020
4040
3180
0E00
ENDCHAR
STARTCHAR $2629
ENCODING 921
SWIDTH 960 0
DWIDTH 14 0
BBX 3 11 5 0
BITMAP
E0
40
40
40
40
40
40
40
40
40
E0
ENDCHAR
STARTCHAR $262a
ENCODING 922
SWIDTH 960 0
DWIDTH 14 0
BBX 10 11 2 0
BITMAP
E380
4100
4200
4400
5800
6800
4400
4200
4100
4080
E1C0
ENDCHAR
STARTCHAR $262b
ENCODING 923
SWIDTH 960 0
DWIDTH 14 0
BBX 11 11 2 0
BITMAP
0400
0400
0A00
0A00
1100
1100
2080
2080
4040
4040
E0E0
ENDCHAR
STARTCHAR $262c
ENCODING 924
SWIDTH 960 0
DWIDTH 14 0
BBX 12 11 1 0
BITMAP
C030
6060
60A0
50A0
5120
4920
4A20
4420
4420
4020
E070
ENDCHAR
STARTCHAR $262d
ENCODING 925
SWIDTH 960 0
DWIDTH 14 0
BBX 10 11 2 0
BITMAP
C1C0
6080
6080
5080
4880
4480
4480
4280
4180
4180
E080
ENDCHAR
STARTCHAR $262e
ENCODING 926
SWIDTH 960 0
DWIDTH 14 0
BBX 10 12 2 -1
BITMAP
7FC0
4080
8080
0000
4080
7F80
4080
0000
0000
4040
4080
FF80
ENDCHAR
STARTCHAR $262f
ENCODING 927
SWIDTH 960 0
DWIDTH 14 0
BBX 11 11 2 0
BITMAP
0E00
3180
4040
8020
8020
8020
8020
8020
4040
3180
0E00
ENDCHAR
STARTCHAR $2630
ENCODING 928
SWIDTH 960 0
DWIDTH 14 0
BBX 10 11 2 0
BITMAP
FFC0
4080
4080
4080
4080
4080
4080
4080
4080
4080
E1C0
ENDCHAR
STARTCHAR $2631
ENCODING 929
SWIDTH 960 0
DWIDTH 14 0
BBX 9 11 2 0
BITMAP
FC00
4300
4080
4080
4300
7C00
4000
4000
4000
4000
E000
ENDCHAR
STARTCHAR $2632
ENCODING 931
SWIDTH 960 0
DWIDTH 14 0
BBX 10 11 2 0
BITMAP
FF00
4100
2080
1000
0800
0400
0400
0800
1040
2080
FF80
ENDCHAR
STARTCHAR $2633
ENCODING 932
SWIDTH 960 0
DWIDTH 14 0
BBX 11 11 1 0
BITMAP
7FC0
4440
8420
0400
0400
0400
0400
0400
0400
0400
0E00
ENDCHAR
STARTCHAR $2634
ENCODING 933
SWIDTH 960 0
DWIDTH 14 0
BBX 11 11 1 0
BITMAP
71C0
8A20
8420
0400
0400
0400
0400
0400
0400
0400
0E00
ENDCHAR
STARTCHAR $2635
ENCODING 934
SWIDTH 960 0
DWIDTH 14 0
BBX 11 11 2 0
BITMAP
0E00
0400
1F00
64C0
8420
8420
8420
64C0
1F00
0400
0E00
ENDCHAR
STARTCHAR $2636
ENCODING 935
SWIDTH 960 0
DWIDTH 14 0
BBX 11 11 2 0
BITMAP
E1C0
4080
2100
1200
0C00
0400
0A00
1100
2080
4040
E0E0
ENDCHAR
STARTCHAR $2637
ENCODING 936
SWIDTH 960 0
DWIDTH 14 0
BBX 11 11 1 0
BITMAP
0E00
8420
4440
2480
2480
2480
1500
0E00
0400
0400
0E00
ENDCHAR
STARTCHAR $2638
ENCODING 937
SWIDTH 960 0
DWIDTH 14 0
BBX 10 11 2 0
BITMAP
0C00
3300
4080
8040
8040
8040
4080
2100
1200
9240
F3C0
ENDCHAR
STARTCHAR $2641
ENCODING 945
SWIDTH 960 0
DWIDTH 14 0
BBX 9 9 3 0
BITMAP
0100
1900
2500
4200
8200
8200
8600
4A00
3180
ENDCHAR
STARTCHAR $2642
ENCODING 946
SWIDTH 960 0
DWIDTH 14 0
BBX 9 13 3 -2
BITMAP
0700
0880
1080
1080
2100
2E00
2100
2100
4100
6200
5C00
8000
8000
ENDCHAR
STARTCHAR $2643
ENCODING 947
SWIDTH 960 0
DWIDTH 14 0
BBX 8 9 4 -1
BITMAP
63
94
18
10
10
20
20
20
20
ENDCHAR
STARTCHAR $2644
ENCODING 948
SWIDTH 960 0
DWIDTH 14 0
BBX 8 11 4 0
BITMAP
38
46
41
20
38
44
84
84
88
90
60
ENDCHAR
STARTCHAR $2645
ENCODING 949
SWIDTH 960 0
DWIDTH 14 0
BBX 6 8 4 0
BITMAP
38
44
40
38
40
80
84
78
ENDCHAR
STARTCHAR $2646
ENCODING 950
SWIDTH 960 0
DWIDTH 14 0
BBX 6 13 4 -2
BITMAP
40
8C
70
20
40
40
80
80
60
18
04
64
38
ENDCHAR
STARTCHAR $2647
ENCODING 951
SWIDTH 960 0
DWIDTH 14 0
BBX 8 10 3 -2
BITMAP
66
99
11
21
21
22
42
44
04
04
ENDCHAR
STARTCHAR $2648
ENCODING 952
SWIDTH 960 0
DWIDTH 14 0
BBX 8 11 4 0
BITMAP
0E
11
21
41
42
FE
82
84
84
88
70
ENDCHAR
STARTCHAR $2649
ENCODING 953
SWIDTH 960 0
DWIDTH 14 0
BBX 4 8 5 0
BITMAP
20
40
40
80
80
80
90
60
ENDCHAR
STARTCHAR $264a
ENCODING 954
SWIDTH 960 0
DWIDTH 14 0
BBX 9 8 3 0
BITMAP
2180
2600
2800
7000
4800
4800
8900
8600
ENDCHAR
STARTCHAR $264b
ENCODING 955
SWIDTH 960 0
DWIDTH 14 0
BBX 8 11 4 0
BITMAP
38
04
04
0C
14
14
24
44
44
84
83
ENDCHAR
STARTCHAR $264c
ENCODING 956
SWIDTH 960 0
DWIDTH 14 0
BBX 10 10 3 -2
BITMAP
2100
2100
2200
2200
4200
4200
6640
5980
8000
8000
ENDCHAR
STARTCHAR $264d
ENCODING 957
SWIDTH 960 0
DWIDTH 14 0
BBX 7 8 4 0
BITMAP
82
42
44
44
48
50
60
80
ENDCHAR
STARTCHAR $264e
ENCODING 958
SWIDTH 960 0
DWIDTH 14 0
BBX 7 14 4 -2
BITMAP
30
46
38
20
40
40
38
44
80
80
60
18
04
78
ENDCHAR
STARTCHAR $264f
ENCODING 959
SWIDTH 960 0
DWIDTH 14 0
BBX 8 8 4 0
BITMAP
0C
32
41
81
82
82
4C
30
ENDCHAR
STARTCHAR $2650
ENCODING 960
SWIDTH 960 0
DWIDTH 14 0
BBX 11 9 2 0
BITMAP
3020
4FC0
8900
1100
1200
2200
2200
2200
C180
ENDCHAR
STARTCHAR $2651
ENCODING 961
SWIDTH 960 0
DWIDTH 14 0
BBX 9 10 3 -2
BITMAP
0700
0880
1080
2080
2100
6100
6200
5C00
8000
8000
ENDCHAR
STARTCHAR $2652
ENCODING 963
SWIDTH 960 0
DWIDTH 14 0
BBX 9 8 3 0
BITMAP
0F80
3400
4200
8200
8200
8400
8800
7000
ENDCHAR
STARTCHAR $2653
ENCODING 964
SWIDTH 960 0
DWIDTH 14 0
BBX 9 8 3 0
BITMAP
3180
4E00
8800
1000
1000
2000
2400
1800
ENDCHAR
STARTCHAR $2654
ENCODING 965
SWIDTH 960 0
DWIDTH 14 0
BBX 7 8 4 0
BITMAP
44
42
82
82
84
84
88
70
ENDCHAR
STARTCHAR $2655
ENCODING 966
SWIDTH 960 0
DWIDTH 14 0
BBX 8 13 3 -2
BITMAP
04
04
04
1C
6A
89
89
91
92
54
38
20
20
ENDCHAR
STARTCHAR $2656
ENCODING 967
SWIDTH 960 0
DWIDTH 14 0
BBX 10 13 2 -2
BITMAP
1840
2440
0480
0500
0600
0400
0C00
1400
1400
2400
4400
8480
8300
ENDCHAR
STARTCHAR $2657
ENCODING 968
SWIDTH 960 0
DWIDTH 14 0
BBX 11 13 1 -2
BITMAP
0100
0100
0100
6140
9220
1220
1220
2440
2480
2700
1C00
0800
0800
ENDCHAR
STARTCHAR $2658
ENCODING 969
SWIDTH 960 0
DWIDTH 14 0
BBX 10 8 2 0
BITMAP
2080
4040
4440
8840
8880
8880
9900
6600
ENDCHAR
STARTCHAR $2727
ENCODING 1025
SWIDTH 960 0
DWIDTH 14 0
BBX 9 12 2 0
BITMAP
2400
2400
FF00
4080
4000
4200
7E00
4200
4000
4000
4080
FF80
ENDCHAR
STARTCHAR $2721
ENCODING 1040
SWIDTH 960 0
DWIDTH 14 0
BBX 11 11 2 0
BITMAP
0400
0400
0A00
0A00
1100
1100
2080
3F80
4040
4040
E0E0
ENDCHAR
STARTCHAR $2722
ENCODING 1041
SWIDTH 960 0
DWIDTH 14 0
BBX 10 11 3 0
BITMAP
FF00
4100
4080
4000
4000
7E00
4180
4040
4040
4180
FE00
ENDCHAR
STARTCHAR $2723
ENCODING 1042
SWIDTH 960 0
DWIDTH 14 0
BBX 10 11 3 0
BITMAP
FC00
4300
4080
4080
4300
7E00
4180
4040
4040
4180
FE00
ENDCHAR
STARTCHAR $2724
ENCODING 1043
SWIDTH 960 0
DWIDTH 14 0
BBX 9 11 3 0
BITMAP
FF00
4100
4080
4000
4000
4000
4000
4000
4000
4000
E000
ENDCHAR
STARTCHAR $2725
ENCODING 1044
SWIDTH 960 0
DWIDTH 14 0
BBX 11 13 2 -2
BITMAP
3FC0
1080
1080
1080
1080
1080
1080
1080
2080
2080
FFE0
8020
8020
ENDCHAR
STARTCHAR $2726
ENCODING 1045
SWIDTH 960 0
DWIDTH 14 0
BBX 9 11 2 0
BITMAP
FF00
4100
4080
4000
4100
7F00
4100
4000
4000
4080
FF80
ENDCHAR
STARTCHAR $2728
ENCODING 1046
SWIDTH 960 0
DWIDTH 14 0
BBX 11 11 2 0
BITMAP
CE60
A4A0
2480
2480
2480
1F00
1500
2480
4440
4440
CE60
ENDCHAR
STARTCHAR $2729
ENCODING 1047
SWIDTH 960 0
DWIDTH 14 0
BBX 9 11 3 0
BITMAP
1C00
6300
8080
0080
0300
1E00
0300
0080
8080
6300
1C00
ENDCHAR
STARTCHAR $272a
ENCODING 1048
SWIDTH 960 0
DWIDTH 14 0
BBX 10 11 2 0
BITMAP
E0C0
4180
4180
4280
4480
4880
4880
5080
6080
6080
41C0
ENDCHAR
STARTCHAR $272b
ENCODING 1049
SWIDTH 960 0
DWIDTH 14 0
BBX 10 12 2 0
BITMAP
1200
0C00
E0C0
4180
4280
4280
4480
4880
5080
6080
6080
41C0
ENDCHAR
STARTCHAR $272c
ENCODING 1050
SWIDTH 960 0
DWIDTH 14 0
BBX 10 11 2 0
BITMAP
E180
4240
4400
4800
5800
6800
4400
4200
4100
4080
E1C0
ENDCHAR
STARTCHAR $272d
ENCODING 1051
SWIDTH 960 0
DWIDTH 14 0
BBX 11 11 2 0
BITMAP
0FE0
0840
0840
0840
0840
0840
0840
0840
9040
9040
60E0
ENDCHAR
STARTCHAR $272e
ENCODING 1052
SWIDTH 960 0
DWIDTH 14 0
BBX 12 11 1 0
BITMAP
6060
2040
30C0
3140
2940
2A40
4620
4420
4420
4020
E070
ENDCHAR
STARTCHAR $272f
ENCODING 1053
SWIDTH 960 0
DWIDTH 14 0
BBX 10 11 2 0
BITMAP
E1C0
4080
4080
4080
4080
7F80
4080
4080
4080
4080
E1C0
ENDCHAR
STARTCHAR $2730
ENCODING 1054
SWIDTH 960 0
DWIDTH 14 0
BBX 11 11 2 0
BITMAP
0E00
3180
4040
8020
8020
8020
8020
8020
4040
3180
0E00
ENDCHAR
STARTCHAR $2731
ENCODING 1055
SWIDTH 960 0
DWIDTH 14 0
BBX 10 11 2 0
BITMAP
FFC0
4080
4080
4080
4080
4080
4080
4080
4080
4080
E1C0
ENDCHAR
STARTCHAR $2732
ENCODING 1056
SWIDTH 960 0
DWIDTH 14 0
BBX 9 11 2 0
BITMAP
FC00
4300
4080
4080
4300
7C00
4000
4000
4000
4000
E000
ENDCHAR
STARTCHAR $2733
ENCODING 1057
SWIDTH 960 0
DWIDTH 14 0
BBX 10 11 2 0
BITMAP
0F40
30C0
4040
8000
8000
8000
8000
8000
4040
3080
0F00
ENDCHAR
STARTCHAR $2734
ENCODING 1058
SWIDTH 960 0
DWIDTH 14 0
BBX 11 11 1 0
BITMAP
7FC0
4440
8420
0400
0400
0400
0400
0400
0400
0400
0E00
ENDCHAR
STARTCHAR $2735
ENCODING 1059
SWIDTH 960 0
DWIDTH 14 0
BBX 11 13 2 -2
BITMAP
E0E0
4040
2040
2080
1080
0900
0900
0600
0200
0400
0400
0800
3000
ENDCHAR
STARTCHAR $2736
ENCODING 1060
SWIDTH 960 0
DWIDTH 14 0
BBX 11 11 2 0
BITMAP
0E00
0400
1F00
64C0
8420
8420
8420
64C0
1F00
0400
0E00
ENDCHAR
STARTCHAR $2737
ENCODING 1061
SWIDTH 960 0
DWIDTH 14 0
BBX 11 11 2 0
BITMAP
E1C0
4080
2100
1200
0C00
0400
0A00
1100
2080
4040
E0E0
ENDCHAR
STARTCHAR $2738
ENCODING 1062
SWIDTH 960 0
DWIDTH 14 0
BBX 11 13 2 -2
BITMAP
E1C0
4080
4080
4080
4080
4080
4080
4080
4080
4080
FFE0
0020
0020
ENDCHAR
STARTCHAR $2739
ENCODING 1063
SWIDTH 960 0
DWIDTH 14 0
BBX 10 11 2 0
BITMAP
E1C0
4080
4080
4080
4080
4180
2280
1C80
0080
0080
01C0
ENDCHAR
STARTCHAR $273a
ENCODING 1064
SWIDTH 960 0
DWIDTH 14 0
BBX 11 11 2 0
BITMAP
EEE0
4440
4440
4440
4440
4440
4440
4440
4440
4440
FFE0
ENDCHAR
STARTCHAR $273b
ENCODING 1065
SWIDTH 960 0
DWIDTH 14 0
BBX 11 13 2 -2
BITMAP
EEE0
4440
4440
4440
4440
4440
4440
4440
4440
4440
FFE0
0020
0020
ENDCHAR
STARTCHAR $273c
ENCODING 1066
SWIDTH 960 0
DWIDTH 14 0
BBX 11 11 2 0
BITMAP
7C00
4800
8800
0800
0F00
08C0
0820
0820
0820
08C0
1F00
ENDCHAR
STARTCHAR $273d
ENCODING 1067
SWIDTH 960 0
DWIDTH 14 0
BBX 10 11 2 0
BITMAP
E1C0
4080
4080
4080
7880
4480
4280
4280
4280
4C80
F1C0
ENDCHAR
STARTCHAR $273e
ENCODING 1068
SWIDTH 960 0
DWIDTH 14 0
BBX 8 11 4 0
BITMAP
E0
40
40
40
78
46
41
41
41
46
F8
ENDCHAR
STARTCHAR $273f
ENCODING 1069
SWIDTH 960 0
DWIDTH 14 0
BBX 10 11 3 0
BITMAP
1C00
6300
8080
0080
3040
49C0
0640
0080
8080
6300
1C00
ENDCHAR
STARTCHAR $2740
ENCODING 1070
SWIDTH 960 0
DWIDTH 14 0
BBX 11 11 2 0
BITMAP
E380
4440
4440
4820
4820
7820
4820
4820
4440
4440
E380
ENDCHAR
STARTCHAR $2741
ENCODING 1071
SWIDTH 960 0
DWIDTH 14 0
BBX 10 11 2 0
BITMAP
0FC0
3080
4080
4080
3080
0F80
1080
2080
2080
4080
E1C0
ENDCHAR
STARTCHAR $2751
ENCODING 1072
SWIDTH 960 0
DWIDTH 14 0
BBX 8 8 3 0
BITMAP
3C
42
42
1E
62
82
86
79
ENDCHAR
STARTCHAR $2752
ENCODING 1073
SWIDTH 960 0
DWIDTH 14 0
BBX 8 12 4 0
BITMAP
01
0E
30
40
58
E6
81
81
81
81
66
18
ENDCHAR
STARTCHAR $2753
ENCODING 1074
SWIDTH 960 0
DWIDTH 14 0
BBX 8 8 4 0
BITMAP
FC
42
42
7C
42
41
41
FE
ENDCHAR
STARTCHAR $2754
ENCODING 1075
SWIDTH 960 0
DWIDTH 14 0
BBX 8 8 3 0
BITMAP
FE
42
41
40
40
40
40
E0
ENDCHAR
STARTCHAR $2755
ENCODING 1076
SWIDTH 960 0
DWIDTH 14 0
BBX 10 10 2 -2
BITMAP
1FC0
1080
1080
1080
1080
1080
2080
FF80
8080
8080
ENDCHAR
STARTCHAR $2756
ENCODING 1077
SWIDTH 960 0
DWIDTH 14 0
BBX 8 8 3 0
BITMAP
3C
42
81
FF
80
81
62
1C
ENDCHAR
STARTCHAR $2758
ENCODING 1078
SWIDTH 960 0
DWIDTH 14 0
BBX 11 8 2 0
BITMAP
CE60
2480
1500
0E00
1500
2480
2480
CE60
ENDCHAR
STARTCHAR $2759
ENCODING 1079
SWIDTH 960 0
DWIDTH 14 0
BBX 8 8 3 0
BITMAP
3C
43
81
1E
03
81
42
3C
ENDCHAR
STARTCHAR $275a
ENCODING 1080
SWIDTH 960 0
DWIDTH 14 0
BBX 10 8 2 0
BITMAP
E1C0
4180
4280
4480
4880
5080
6080
E1C0
ENDCHAR
STARTCHAR $275b
ENCODING 1081
SWIDTH 960 0
DWIDTH 14 0
BBX 10 10 2 0
BITMAP
1200
0C00
E1C0
4180
4280
4480
4880
5080
6080
E1C0
ENDCHAR
STARTCHAR $275c
ENCODING 1082
SWIDTH 960 0
DWIDTH 14 0
BBX 9 8 3 0
BITMAP
E300
4500
4800
7800
4400
4200
4100
E380
ENDCHAR
STARTCHAR $275d
ENCODING 1083
SWIDTH 960 0
DWIDTH 14 0
BBX 10 8 2 0
BITMAP
1FC0
0880
0880
0880
0880
9080
9080
61C0
ENDCHAR
STARTCHAR $275e
ENCODING 1084
SWIDTH 960 0
DWIDTH 14 0
BBX 11 8 2 0
BITMAP
E0E0
60C0
5140
5140
4A40
4A40
4440
E0E0
ENDCHAR
STARTCHAR $275f
ENCODING 1085
SWIDTH 960 0
DWIDTH 14 0
BBX 9 8 3 0
BITMAP
E380
4100
4100
7F00
4100
4100
4100
E380
ENDCHAR
STARTCHAR $2760
ENCODING 1086
SWIDTH 960 0
DWIDTH 14 0
BBX 8 8 3 0
BITMAP
3C
42
81
81
81
81
42
3C
ENDCHAR
STARTCHAR $2761
ENCODING 1087
SWIDTH 960 0
DWIDTH 14 0
BBX 9 8 3 0
BITMAP
FF80
4100
4100
4100
4100
4100
4100
E380
ENDCHAR
STARTCHAR $2762
ENCODING 1088
SWIDTH 960 0
DWIDTH 14 0
BBX 8 10 3 -2
BITMAP
5C
62
41
41
41
41
62
5C
40
E0
ENDCHAR
STARTCHAR $2763
ENCODING 1089
SWIDTH 960 0
DWIDTH 14 0
BBX 8 8 3 0
BITMAP
3C
42
81
80
80
81
42
3C
ENDCHAR
STARTCHAR $2764
ENCODING 1090
SWIDTH 960 0
DWIDTH 14 0
BBX 9 8 3 0
BITMAP
7F00
4900
8880
0800
0800
0800
0800
1C00
ENDCHAR
STARTCHAR $2765
ENCODING 1091
SWIDTH 960 0
DWIDTH 14 0
BBX 9 10 3 -2
BITMAP
E380
4100
2100
2200
1200
1400
0C00
0800
1000
6000
ENDCHAR
STARTCHAR $2766
ENCODING 1092
SWIDTH 960 0
DWIDTH 14 0
BBX 11 13 2 -2
BITMAP
0E00
0400
0400
3580
4E40
8420
8420
8420
8420
4E40
3580
0400
0E00
ENDCHAR
STARTCHAR $2767
ENCODING 1093
SWIDTH 960 0
DWIDTH 14 0
BBX 8 8 3 0
BITMAP
C3
42
24
18
18
24
42
C3
ENDCHAR
STARTCHAR $2768
ENCODING 1094
SWIDTH 960 0
DWIDTH 14 0
BBX 9 10 3 -2
BITMAP
E380
4100
4100
4100
4100
4100
4100
FF80
0080
0080
ENDCHAR
STARTCHAR $2769
ENCODING 1095
SWIDTH 960 0
DWIDTH 14 0
BBX 9 8 3 0
BITMAP
E380
4100
4100
4300
3D00
0100
0100
0380
ENDCHAR
STARTCHAR $276a
ENCODING 1096
SWIDTH 960 0
DWIDTH 14 0
BBX 11 8 2 0
BITMAP
EEE0
4440
4440
4440
4440
4440
4440
7FE0
ENDCHAR
STARTCHAR $276b
ENCODING 1097
SWIDTH 960 0
DWIDTH 14 0
BBX 11 10 2 -2
BITMAP
EEE0
4440
4440
4440
4440
4440
4440
7FE0
0020
0020
ENDCHAR
STARTCHAR $276c
ENCODING 1098
SWIDTH 960 0
DWIDTH 14 0
BBX 10 8 2 0
BITMAP
7C00
4800
8800
0F00
08C0
0840
08C0
1F00
ENDCHAR
STARTCHAR $276d
ENCODING 1099
SWIDTH 960 0
DWIDTH 14 0
BBX 9 8 3 0
BITMAP
E380
4100
4100
7100
4D00
4500
4D00
F380
ENDCHAR
STARTCHAR $276e
ENCODING 1100
SWIDTH 960 0
DWIDTH 14 0
BBX 7 8 4 0
BITMAP
E0
40
40
78
46
42
46
F8
ENDCHAR
STARTCHAR $276f
ENCODING 1101
SWIDTH 960 0
DWIDTH 14 0
BBX 9 8 3 0
BITMAP
3C00
4300
8100
1B80
2480
8100
4200
3C00
ENDCHAR
STARTCHAR $2770
ENCODING 1102
SWIDTH 960 0
DWIDTH 14 0
BBX 10 8 2 0
BITMAP
E300
4480
4840
7840
4840
4840
4480
E300
ENDCHAR
STARTCHAR $2771
ENCODING 1103
SWIDTH 960 0
DWIDTH 14 0
BBX 8 8 3 0
BITMAP
3F
42
42
42
3E
22
42
E7
ENDCHAR
STARTCHAR $2757
ENCODING 1105
SWIDTH 960 0
DWIDTH 14 0
BBX 8 11 3 0
BITMAP
24
24
00
3C
42
81
FF
80
81
62
1C
ENDCHAR
STARTCHAR $213e
ENCODING 8208
SWIDTH 960 0
DWIDTH 14 0
BBX 5 1 5 5
BITMAP
F8
ENDCHAR
STARTCHAR $213d
ENCODING 8212
SWIDTH 960 0
DWIDTH 14 0
BBX 14 1 0 5
BITMAP
FFFC
ENDCHAR
STARTCHAR $2142
ENCODING 8214
SWIDTH 960 0
DWIDTH 14 0
BBX 4 14 5 -2
BITMAP
90
90
90
90
90
90
90
90
90
90
90
90
90
90
ENDCHAR
STARTCHAR $2146
ENCODING 8216
SWIDTH 960 0
DWIDTH 14 0
BBX 3 5 10 7
BITMAP
20
40
80
80
C0
ENDCHAR
STARTCHAR $2147
ENCODING 8217
SWIDTH 960 0
DWIDTH 14 0
BBX 3 5 1 7
BITMAP
60
20
20
40
80
ENDCHAR
STARTCHAR $2148
ENCODING 8220
SWIDTH 960 0
DWIDTH 14 0
BBX 7 5 6 7
BITMAP
22
44
CC
CC
CC
ENDCHAR
STARTCHAR $2149
ENCODING 8221
SWIDTH 960 0
DWIDTH 14 0
BBX 7 5 1 7
BITMAP
66
22
22
44
88
ENDCHAR
STARTCHAR $2277
ENCODING 8224
SWIDTH 960 0
DWIDTH 14 0
BBX 9 14 3 -2
BITMAP
0800
1C00
0800
4900
FF80
4900
1C00
1C00
0800
0800
0800
0800
0800
0800
ENDCHAR
STARTCHAR $2278
ENCODING 8225
SWIDTH 960 0
DWIDTH 14 0
BBX 9 14 3 -2
BITMAP
0800
1C00
4900
FF80
4900
1C00
0800
0800
1C00
4900
FF80
4900
1C00
0800
ENDCHAR
STARTCHAR $2145
ENCODING 8229
SWIDTH 960 0
DWIDTH 14 0
BBX 7 2 3 4
BITMAP
82
82
ENDCHAR
STARTCHAR $2144
ENCODING 8230
SWIDTH 960 0
DWIDTH 14 0
BBX 10 2 2 4
BITMAP
CCC0
CCC0
ENDCHAR
STARTCHAR $2273
ENCODING 8240
SWIDTH 960 0
DWIDTH 14 0
BBX 13 12 1 -1
BITMAP
3040
4880
CD00
CD00
4A00
3400
0620
0D50
1DD8
2DD8
2550
4220
ENDCHAR
STARTCHAR $216c
ENCODING 8242
SWIDTH 960 0
DWIDTH 14 0
BBX 3 4 2 7
BITMAP
60
60
40
80
ENDCHAR
STARTCHAR $216d
ENCODING 8243
SWIDTH 960 0
DWIDTH 14 0
BBX 6 4 2 7
BITMAP
6C
6C
48
90
ENDCHAR
STARTCHAR $2228
ENCODING 8251
SWIDTH 960 0
DWIDTH 14 0
BBX 11 11 2 -1
BITMAP
8420
4E40
2480
1100
4A40
E4E0
4A40
1100
2480
4E40
8420
ENDCHAR
STARTCHAR $216e
ENCODING 8451
SWIDTH 960 0
DWIDTH 14 0
BBX 12 12 1 -1
BITMAP
6000
91D0
9230
6410
0800
0800
0800
0800
0800
0410
0220
01C0
ENDCHAR
STARTCHAR $2272
ENCODING 8491
SWIDTH 960 0
DWIDTH 14 0
BBX 11 13 2 -1
BITMAP
0C00
1200
1200
0C00
0400
0A00
0A00
1100
1100
2080
3F80
4040
E0E0
ENDCHAR
STARTCHAR $222b
ENCODING 8592
SWIDTH 960 0
DWIDTH 14 0
BBX 12 7 1 2
BITMAP
0400
0800
3000
FFF0
3000
0800
0400
ENDCHAR
STARTCHAR $222c
ENCODING 8593
SWIDTH 960 0
DWIDTH 14 0
BBX 7 12 4 -1
BITMAP
10
10
38
38
54
92
10
10
10
10
10
10
ENDCHAR
STARTCHAR $222a
ENCODING 8594
SWIDTH 960 0
DWIDTH 14 0
BBX 12 7 1 2
BITMAP
0200
0100
00C0
FFF0
00C0
0100
0200
ENDCHAR
STARTCHAR $222d
ENCODING 8595
SWIDTH 960 0
DWIDTH 14 0
BBX 7 12 4 -1
BITMAP
10
10
10
10
10
10
92
54
38
38
10
10
ENDCHAR
STARTCHAR $224d
ENCODING 8658
SWIDTH 960 0
DWIDTH 14 0
BBX 12 7 1 2
BITMAP
0080
0040
FFE0
0010
FFE0
0040
0080
ENDCHAR
STARTCHAR $224e
ENCODING 8660
SWIDTH 960 0
DWIDTH 14 0
BBX 12 7 1 2
BITMAP
1080
2040
7FE0
8010
7FE0
2040
1080
ENDCHAR
STARTCHAR $224f
ENCODING 8704
SWIDTH 960 0
DWIDTH 14 0
BBX 11 12 2 -1
BITMAP
8020
8020
4040
7FC0
2080
2080
1100
1100
0A00
0A00
0400
0400
ENDCHAR
STARTCHAR $225f
ENCODING 8706
SWIDTH 960 0
DWIDTH 14 0
BBX 7 12 4 -1
BITMAP
1C
26
02
02
3A
66
46
C6
C4
CC
58
30
ENDCHAR
STARTCHAR $2250
ENCODING 8707
SWIDTH 960 0
DWIDTH 14 0
BBX 8 11 3 0
BITMAP
FF
01
01
01
01
FF
01
01
01
01
FF
ENDCHAR
STARTCHAR $2260
ENCODING 8711
SWIDTH 960 0
DWIDTH 14 0
BBX 11 11 2 -1
BITMAP
FFE0
7FC0
6040
2080
3080
1100
1900
0A00
0E00
0400
0400
ENDCHAR
STARTCHAR $223a
ENCODING 8712
SWIDTH 960 0
DWIDTH 14 0
BBX 10 9 2 1
BITMAP
0FC0
3000
4000
8000
FFC0
8000
4000
3000
0FC0
ENDCHAR
STARTCHAR $223b
ENCODING 8715
SWIDTH 960 0
DWIDTH 14 0
BBX 10 9 2 1
BITMAP
FC00
0300
0080
0040
FFC0
0040
0080
0300
FC00
ENDCHAR
STARTCHAR $215d
ENCODING 8722
SWIDTH 960 0
DWIDTH 14 0
BBX 11 1 2 5
BITMAP
FFE0
ENDCHAR
STARTCHAR $2265
ENCODING 8730
SWIDTH 960 0
DWIDTH 14 0
BBX 12 12 1 -1
BITMAP
03F0
0200
0200
0200
0400
0400
0400
4400
E800
3800
1800
0800
ENDCHAR
STARTCHAR $2267
ENCODING 8733
SWIDTH 960 0
DWIDTH 14 0
BBX 9 6 3 2
BITMAP
3180
4A00
8400
8400
4A00
3180
ENDCHAR
STARTCHAR $2167
ENCODING 8734
SWIDTH 960 0
DWIDTH 14 0
BBX 11 6 2 2
BITMAP
71C0
DB60
8E20
8E20
DB60
71C0
ENDCHAR
STARTCHAR $225c
ENCODING 8736
SWIDTH 960 0
DWIDTH 14 0
BBX 10 10 2 0
BITMAP
0040
0080
0100
0200
0400
0800
1000
2000
4000
FFC0
ENDCHAR
STARTCHAR $224a
ENCODING 8743
SWIDTH 960 0
DWIDTH 14 0
BBX 9 10 3 0
BITMAP
0800
0800
1400
1400
2200
2200
4100
4100
8080
8080
ENDCHAR
STARTCHAR $224b
ENCODING 8744
SWIDTH 960 0
DWIDTH 14 0
BBX 9 10 3 0
BITMAP
8080
8080
4100
4100
2200
2200
1400
1400
0800
0800
ENDCHAR
STARTCHAR $2241
ENCODING 8745
SWIDTH 960 0
DWIDTH 14 0
BBX 10 10 2 0
BITMAP
1E00
2100
4080
4080
8040
8040
8040
8040
8040
8040
ENDCHAR
STARTCHAR $2240
ENCODING 8746
SWIDTH 960 0
DWIDTH 14 0
BBX 10 10 2 0
BITMAP
8040
8040
8040
8040
8040
8040
4080
4080
2100
1E00
ENDCHAR
STARTCHAR $2269
ENCODING 8747
SWIDTH 960 0
DWIDTH 14 0
BBX 4 14 6 -2
BITMAP
30
40
80
80
C0
C0
60
60
30
30
10
10
20
C0
ENDCHAR
STARTCHAR $226a
ENCODING 8748
SWIDTH 960 0
DWIDTH 14 0
BBX 8 14 3 -2
BITMAP
33
44
88
88
CC
CC
66
66
33
33
11
11
22
CC
ENDCHAR
STARTCHAR $2168
ENCODING 8756
SWIDTH 960 0
DWIDTH 14 0
BBX 11 10 2 0
BITMAP
0400
0E00
0400
0000
0000
0000
0000
4040
E0E0
4040
ENDCHAR
STARTCHAR $2268
ENCODING 8757
SWIDTH 960 0
DWIDTH 14 0
BBX 11 10 2 0
BITMAP
4040
E0E0
4040
0000
0000
0000
0000
0400
0E00
0400
ENDCHAR
STARTCHAR $2266
ENCODING 8765
SWIDTH 960 0
DWIDTH 14 0
BBX 11 6 2 2
BITMAP
3180
4240
8420
8420
4840
3180
ENDCHAR
STARTCHAR $2262
ENCODING 8786
SWIDTH 960 0
DWIDTH 14 0
BBX 10 10 2 0
BITMAP
2000
7000
2000
FFC0
0000
0000
FFC0
0100
0380
0100
ENDCHAR
STARTCHAR $2162
ENCODING 8800
SWIDTH 960 0
DWIDTH 14 0
BBX 11 11 2 0
BITMAP
0200
0200
0200
FFE0
0400
0400
0400
FFE0
0800
0800
0800
ENDCHAR
STARTCHAR $2261
ENCODING 8801
SWIDTH 960 0
DWIDTH 14 0
BBX 10 7 2 2
BITMAP
FFC0
0000
0000
FFC0
0000
0000
FFC0
ENDCHAR
STARTCHAR $2165
ENCODING 8806
SWIDTH 960 0
DWIDTH 14 0
BBX 11 13 2 -1
BITMAP
00C0
0300
0C00
3000
C000
3000
0C00
0300
00C0
0000
FFE0
0000
FFE0
ENDCHAR
STARTCHAR $2166
ENCODING 8807
SWIDTH 960 0
DWIDTH 14 0
BBX 11 13 2 -1
BITMAP
C000
3000
0C00
0300
00C0
0300
0C00
3000
C000
0000
FFE0
0000
FFE0
ENDCHAR
STARTCHAR $2263
ENCODING 8810
SWIDTH 960 0
DWIDTH 14 0
BBX 10 11 2 0
BITMAP
0440
0880
1100
2200
4400
8800
4400
2200
1100
0880
0440
ENDCHAR
STARTCHAR $2264
ENCODING 8811
SWIDTH 960 0
DWIDTH 14 0
BBX 10 11 2 0
BITMAP
8800
4400
2200
1100
0880
0440
0880
1100
2200
4400
8800
ENDCHAR
STARTCHAR $223e
ENCODING 8834
SWIDTH 960 0
DWIDTH 14 0
BBX 10 10 2 0
BITMAP
0FC0
3000
4000
8000
8000
8000
8000
4000
3000
0FC0
ENDCHAR
STARTCHAR $223f
ENCODING 8835
SWIDTH 960 0
DWIDTH 14 0
BBX 10 10 2 0
BITMAP
FC00
0300
0080
0040
0040
0040
0040
0080
0300
FC00
ENDCHAR
STARTCHAR $223c
ENCODING 8838
SWIDTH 960 0
DWIDTH 14 0
BBX 10 10 2 0
BITMAP
3FC0
4000
8000
8000
8000
4000
3FC0
0000
0000
FFC0
ENDCHAR
STARTCHAR $223d
ENCODING 8839
SWIDTH 960 0
DWIDTH 14 0
BBX 10 10 2 0
BITMAP
FF00
0080
0040
0040
0040
0080
FF00
0000
0000
FFC0
ENDCHAR
STARTCHAR $225d
ENCODING 8869
SWIDTH 960 0
DWIDTH 14 0
BBX 11 10 2 0
BITMAP
0400
0400
0400
0400
0400
0400
0400
0400
0400
FFE0
ENDCHAR
STARTCHAR $225e
ENCODING 8978
SWIDTH 960 0
DWIDTH 14 0
BBX 13 3 1 8
BITMAP
1FC0
6030
8008
ENDCHAR
STARTCHAR $2821
ENCODING 9472
SWIDTH 960 0
DWIDTH 14 0
BBX 14 1 0 4
BITMAP
FFFC
ENDCHAR
STARTCHAR $282c
ENCODING 9473
SWIDTH 960 0
DWIDTH 14 0
BBX 14 2 0 4
BITMAP
FFFC
FFFC
ENDCHAR
STARTCHAR $2822
ENCODING 9474
SWIDTH 960 0
DWIDTH 14 0
BBX 1 14 7 -2
BITMAP
80
80
80
80
80
80
80
80
80
80
80
80
80
80
ENDCHAR
STARTCHAR $282d
ENCODING 9475
SWIDTH 960 0
DWIDTH 14 0
BBX 2 14 6 -2
BITMAP
C0
C0
C0
C0
C0
C0
C0
C0
C0
C0
C0
C0
C0
C0
ENDCHAR
STARTCHAR $2823
ENCODING 9484
SWIDTH 960 0
DWIDTH 14 0
BBX 7 7 7 -2
BITMAP
FE
80
80
80
80
80
80
ENDCHAR
STARTCHAR $282e
ENCODING 9487
SWIDTH 960 0
DWIDTH 14 0
BBX 8 8 6 -2
BITMAP
FF
FF
C0
C0
C0
C0
C0
C0
ENDCHAR
STARTCHAR $2824
ENCODING 9488
SWIDTH 960 0
DWIDTH 14 0
BBX 8 7 0 -2
BITMAP
FF
01
01
01
01
01
01
ENDCHAR
STARTCHAR $282f
ENCODING 9491
SWIDTH 960 0
DWIDTH 14 0
BBX 8 8 0 -2
BITMAP
FF
FF
03
03
03
03
03
03
ENDCHAR
STARTCHAR $2826
ENCODING 9492
SWIDTH 960 0
DWIDTH 14 0
BBX 7 8 7 4
BITMAP
80
80
80
80
80
80
80
FE
ENDCHAR
STARTCHAR $2831
ENCODING 9495
SWIDTH 960 0
DWIDTH 14 0
BBX 8 8 6 4
BITMAP
C0
C0
C0
C0
C0
C0
FF
FF
ENDCHAR
STARTCHAR $2825
ENCODING 9496
SWIDTH 960 0
DWIDTH 14 0
BBX 8 8 0 4
BITMAP
01
01
01
01
01
01
01
FF
ENDCHAR
STARTCHAR $2830
ENCODING 9499
SWIDTH 960 0
DWIDTH 14 0
BBX 8 8 0 4
BITMAP
03
03
03
03
03
03
FF
FF
ENDCHAR
STARTCHAR $2827
ENCODING 9500
SWIDTH 960 0
DWIDTH 14 0
BBX 7 14 7 -2
BITMAP
80
80
80
80
80
80
80
FE
80
80
80
80
80
80
ENDCHAR
STARTCHAR $283c
ENCODING 9501
SWIDTH 960 0
DWIDTH 14 0
BBX 7 14 7 -2
BITMAP
80
80
80
80
80
80
FE
FE
80
80
80
80
80
80
ENDCHAR
STARTCHAR $2837
ENCODING 9504
SWIDTH 960 0
DWIDTH 14 0
BBX 8 14 6 -2
BITMAP
C0
C0
C0
C0
C0
C0
C0
FF
C0
C0
C0
C0
C0
C0
ENDCHAR
STARTCHAR $2832
ENCODING 9507
SWIDTH 960 0
DWIDTH 14 0
BBX 8 14 6 -2
BITMAP
C0
C0
C0
C0
C0
C0
FF
FF
C0
C0
C0
C0
C0
C0
ENDCHAR
STARTCHAR $2829
ENCODING 9508
SWIDTH 960 0
DWIDTH 14 0
BBX 8 14 0 -2
BITMAP
01
01
01
01
01
01
01
FF
01
01
01
01
01
01
ENDCHAR
STARTCHAR $283e
ENCODING 9509
SWIDTH 960 0
DWIDTH 14 0
BBX 8 14 0 -2
BITMAP
01
01
01
01
01
01
FF
FF
01
01
01
01
01
01
ENDCHAR
STARTCHAR $2839
ENCODING 9512
SWIDTH 960 0
DWIDTH 14 0
BBX 8 14 0 -2
BITMAP
03
03
03
03
03
03
03
FF
03
03
03
03
03
03
ENDCHAR
STARTCHAR $2834
ENCODING 9515
SWIDTH 960 0
DWIDTH 14 0
BBX 8 14 0 -2
BITMAP
03
03
03
03
03
03
FF
FF
03
03
03
03
03
03
ENDCHAR
STARTCHAR $2828
ENCODING 9516
SWIDTH 960 0
DWIDTH 14 0
BBX 14 7 0 -2
BITMAP
FFFC
0100
0100
0100
0100
0100
0100
ENDCHAR
STARTCHAR $2838
ENCODING 9519
SWIDTH 960 0
DWIDTH 14 0
BBX 14 8 0 -2
BITMAP
FFFC
FFFC
0100
0100
0100
0100
0100
0100
ENDCHAR
STARTCHAR $283d
ENCODING 9520
SWIDTH 960 0
DWIDTH 14 0
BBX 14 7 0 -2
BITMAP
FFFC
0300
0300
0300
0300
0300
0300
ENDCHAR
STARTCHAR $2833
ENCODING 9523
SWIDTH 960 0
DWIDTH 14 0
BBX 14 8 0 -2
BITMAP
FFFC
FFFC
0300
0300
0300
0300
0300
0300
ENDCHAR
STARTCHAR $282a
ENCODING 9524
SWIDTH 960 0
DWIDTH 14 0
BBX 14 8 0 4
BITMAP
0100
0100
0100
0100
0100
0100
0100
FFFC
ENDCHAR
STARTCHAR $283a
ENCODING 9527
SWIDTH 960 0
DWIDTH 14 0
BBX 14 8 0 4
BITMAP
0100
0100
0100
0100
0100
0100
FFFC
FFFC
ENDCHAR
STARTCHAR $283f
ENCODING 9528
SWIDTH 960 0
DWIDTH 14 0
BBX 14 8 0 4
BITMAP
0300
0300
0300
0300
0300
0300
0300
FFFC
ENDCHAR
STARTCHAR $2835
ENCODING 9531
SWIDTH 960 0
DWIDTH 14 0
BBX 14 8 0 4
BITMAP
0300
0300
0300
0300
0300
0300
FFFC
FFFC
ENDCHAR
STARTCHAR $282b
ENCODING 9532
SWIDTH 960 0
DWIDTH 14 0
BBX 14 14 0 -2
BITMAP
0100
0100
0100
0100
0100
0100
0100
FFFC
0100
0100
0100
0100
0100
0100
ENDCHAR
STARTCHAR $283b
ENCODING 9535
SWIDTH 960 0
DWIDTH 14 0
BBX 14 14 0 -2
BITMAP
0100
0100
0100
0100
0100
0100
FFFC
FFFC
0100
0100
0100
0100
0100
0100
ENDCHAR
STARTCHAR $2840
ENCODING 9538
SWIDTH 960 0
DWIDTH 14 0
BBX 14 14 0 -2
BITMAP
0300
0300
0300
0300
0300
0300
0300
FFFC
0300
0300
0300
0300
0300
0300
ENDCHAR
STARTCHAR $2836
ENCODING 9547
SWIDTH 960 0
DWIDTH 14 0
BBX 14 14 0 -2
BITMAP
0300
0300
0300
0300
0300
0300
FFFC
FFFC
0300
0300
0300
0300
0300
0300
ENDCHAR
STARTCHAR $2223
ENCODING 9632
SWIDTH 960 0
DWIDTH 14 0
BBX 12 12 1 -1
BITMAP
FFF0
FFF0
FFF0
FFF0
FFF0
FFF0
FFF0
FFF0
FFF0
FFF0
FFF0
FFF0
ENDCHAR
STARTCHAR $2222
ENCODING 9633
SWIDTH 960 0
DWIDTH 14 0
BBX 12 12 1 -1
BITMAP
FFF0
8010
8010
8010
8010
8010
8010
8010
8010
8010
8010
FFF0
ENDCHAR
STARTCHAR $2225
ENCODING 9650
SWIDTH 960 0
DWIDTH 14 0
BBX 11 11 2 0
BITMAP
0400
0400
0E00
0E00
1F00
1F00
3F80
3F80
7FC0
7FC0
FFE0
ENDCHAR
STARTCHAR $2224
ENCODING 9651
SWIDTH 960 0
DWIDTH 14 0
BBX 11 11 2 0
BITMAP
0400
0400
0A00
0A00
1100
1100
2080
2080
4040
4040
FFE0
ENDCHAR
STARTCHAR $2227
ENCODING 9660
SWIDTH 960 0
DWIDTH 14 0
BBX 11 11 2 0
BITMAP
FFE0
7FC0
7FC0
3F80
3F80
1F00
1F00
0E00
0E00
0400
0400
ENDCHAR
STARTCHAR $2226
ENCODING 9661
SWIDTH 960 0
DWIDTH 14 0
BBX 11 11 2 0
BITMAP
FFE0
4040
4040
2080
2080
1100
1100
0A00
0A00
0400
0400
ENDCHAR
STARTCHAR $2221
ENCODING 9670
SWIDTH 960 0
DWIDTH 14 0
BBX 13 13 1 -2
BITMAP
0200
0700
0F80
1FC0
3FE0
7FF0
FFF8
7FF0
3FE0
1FC0
0F80
0700
0200
ENDCHAR
STARTCHAR $217e
ENCODING 9671
SWIDTH 960 0
DWIDTH 14 0
BBX 13 13 1 -2
BITMAP
0200
0500
0880
1040
2020
4010
8008
4010
2020
1040
0880
0500
0200
ENDCHAR
STARTCHAR $217b
ENCODING 9675
SWIDTH 960 0
DWIDTH 14 0
BBX 11 11 2 -1
BITMAP
0E00
3180
4040
4040
8020
8020
8020
4040
4040
3180
0E00
ENDCHAR
STARTCHAR $217d
ENCODING 9678
SWIDTH 960 0
DWIDTH 14 0
BBX 11 11 2 -1
BITMAP
0E00
3180
4E40
5140
A0A0
A0A0
A0A0
5140
4E40
3180
0E00
ENDCHAR
STARTCHAR $217c
ENCODING 9679
SWIDTH 960 0
DWIDTH 14 0
BBX 11 11 2 -1
BITMAP
0E00
3F80
7FC0
7FC0
FFE0
FFE0
FFE0
7FC0
7FC0
3F80
0E00
ENDCHAR
STARTCHAR $227e
ENCODING 9711
SWIDTH 960 0
DWIDTH 14 0
BBX 13 13 1 -2
BITMAP
0F80
3060
4010
4010
8008
8008
8008
8008
8008
4010
4010
3060
0F80
ENDCHAR
STARTCHAR $217a
ENCODING 9733
SWIDTH 960 0
DWIDTH 14 0
BBX 13 12 1 -1
BITMAP
0200
0200
0700
0700
FFF8
7FF0
1FC0
0F80
1FC0
1DC0
38E0
2020
ENDCHAR
STARTCHAR $2179
ENCODING 9734
SWIDTH 960 0
DWIDTH 14 0
BBX 13 12 1 -1
BITMAP
0200
0200
0500
0500
F8F8
6030
18C0
0880
1240
1540
38E0
2020
ENDCHAR
STARTCHAR $216a
ENCODING 9792
SWIDTH 960 0
DWIDTH 14 0
BBX 9 13 3 -2
BITMAP
1C00
2200
4100
4100
4100
2200
1C00
0800
0800
FF80
0800
0800
0800
ENDCHAR
STARTCHAR $2169
ENCODING 9794
SWIDTH 960 0
DWIDTH 14 0
BBX 12 12 1 -1
BITMAP
07F0
0030
0050
0090
0110
3A10
4410
8200
8200
8200
4400
3800
ENDCHAR
STARTCHAR $2276
ENCODING 9834
SWIDTH 960 0
DWIDTH 14 0
BBX 8 13 4 -1
BITMAP
10
18
1C
16
12
13
11
11
11
72
F0
F0
60
ENDCHAR
STARTCHAR $2275
ENCODING 9837
SWIDTH 960 0
DWIDTH 14 0
BBX 6 12 5 -1
BITMAP
80
80
80
80
80
B8
CC
8C
88
90
A0
C0
ENDCHAR
STARTCHAR $2274
ENCODING 9839
SWIDTH 960 0
DWIDTH 14 0
BBX 8 13 3 -1
BITMAP
04
24
27
3F
FC
E4
24
27
3F
FC
E4
24
20
ENDCHAR
STARTCHAR $2121
ENCODING 12288
SWIDTH 960 0
DWIDTH 14 0
BBX 1 1 13 -2
BITMAP
00
ENDCHAR
STARTCHAR $2122
ENCODING 12289
SWIDTH 960 0
DWIDTH 14 0
BBX 3 4 1 -2
BITMAP
80
40
20
20
ENDCHAR
STARTCHAR $2123
ENCODING 12290
SWIDTH 960 0
DWIDTH 14 0
BBX 4 4 1 -2
BITMAP
60
90
90
60
ENDCHAR
STARTCHAR $2137
ENCODING 12291
SWIDTH 960 0
DWIDTH 14 0
BBX 7 6 3 2
BITMAP
22
22
22
44
44
88
ENDCHAR
STARTCHAR $2139
ENCODING 12293
SWIDTH 960 0
DWIDTH 14 0
BBX 9 10 3 0
BITMAP
1000
1000
1F80
2100
2100
4200
9400
0C00
0200
0100
ENDCHAR
STARTCHAR $213a
ENCODING 12294
SWIDTH 960 0
DWIDTH 14 0
BBX 10 11 2 -1
BITMAP
0040
0040
0080
1900
2600
2400
4A00
5000
6000
4000
8000
ENDCHAR
STARTCHAR $213b
ENCODING 12295
SWIDTH 960 0
DWIDTH 14 0
BBX 13 13 1 -2
BITMAP
0F80
3060
4010
4010
8008
8008
8008
8008
8008
4010
4010
3060
0F80
ENDCHAR
STARTCHAR $2152
ENCODING 12296
SWIDTH 960 0
DWIDTH 14 0
BBX 7 14 6 -2
BITMAP
02
04
08
10
20
40
80
80
40
20
10
08
04
02
ENDCHAR
STARTCHAR $2153
ENCODING 12297
SWIDTH 960 0
DWIDTH 14 0
BBX 7 14 1 -2
BITMAP
80
40
20
10
08
04
02
02
04
08
10
20
40
80
ENDCHAR
STARTCHAR $2154
ENCODING 12298
SWIDTH 960 0
DWIDTH 14 0
BBX 7 14 6 -2
BITMAP
12
12
24
24
48
48
90
90
48
48
24
24
12
12
ENDCHAR
STARTCHAR $2155
ENCODING 12299
SWIDTH 960 0
DWIDTH 14 0
BBX 7 14 1 -2
BITMAP
90
90
48
48
24
24
12
12
24
24
48
48
90
90
ENDCHAR
STARTCHAR $2156
ENCODING 12300
SWIDTH 960 0
DWIDTH 14 0
BBX 6 14 7 -2
BITMAP
FC
80
80
80
80
80
80
80
80
80
80
80
80
80
ENDCHAR
STARTCHAR $2157
ENCODING 12301
SWIDTH 960 0
DWIDTH 14 0
BBX 6 14 1 -2
BITMAP
04
04
04
04
04
04
04
04
04
04
04
04
04
FC
ENDCHAR
STARTCHAR $2158
ENCODING 12302
SWIDTH 960 0
DWIDTH 14 0
BBX 7 14 6 -2
BITMAP
FE
82
BE
A0
A0
A0
A0
A0
A0
A0
A0
A0
A0
E0
ENDCHAR
STARTCHAR $2159
ENCODING 12303
SWIDTH 960 0
DWIDTH 14 0
BBX 7 14 1 -2
BITMAP
0E
0A
0A
0A
0A
0A
0A
0A
0A
0A
0A
FA
82
FE
ENDCHAR
STARTCHAR $215a
ENCODING 12304
SWIDTH 960 0
DWIDTH 14 0
BBX 5 14 8 -2
BITMAP
F8
F0
E0
E0
C0
C0
C0
C0
C0
C0
E0
E0
F0
F8
ENDCHAR
STARTCHAR $215b
ENCODING 12305
SWIDTH 960 0
DWIDTH 14 0
BBX 5 14 1 -2
BITMAP
F8
78
38
38
18
18
18
18
18
18
38
38
78
F8
ENDCHAR
STARTCHAR $2229
ENCODING 12306
SWIDTH 960 0
DWIDTH 14 0
BBX 12 12 1 -1
BITMAP
7FE0
7FE0
0000
0000
FFF0
FFF0
0600
0600
0600
0600
0600
0600
ENDCHAR
STARTCHAR $222e
ENCODING 12307
SWIDTH 960 0
DWIDTH 14 0
BBX 10 6 2 2
BITMAP
FFC0
FFC0
0000
0000
FFC0
FFC0
ENDCHAR
STARTCHAR $214c
ENCODING 12308
SWIDTH 960 0
DWIDTH 14 0
BBX 4 14 9 -2
BITMAP
10
20
40
80
80
80
80
80
80
80
80
40
20
10
ENDCHAR
STARTCHAR $214d
ENCODING 12309
SWIDTH 960 0
DWIDTH 14 0
BBX 4 14 1 -2
BITMAP
80
40
20
10
10
10
10
10
10
10
10
20
40
80
ENDCHAR
STARTCHAR $2141
ENCODING 12316
SWIDTH 960 0
DWIDTH 14 0
BBX 12 4 1 3
BITMAP
3800
4410
8220
01C0
ENDCHAR
STARTCHAR $2421
ENCODING 12353
SWIDTH 960 0
DWIDTH 14 0
BBX 10 10 2 -2
BITMAP
1000
7E00
1000
1F00
2480
6440
A840
9080
7100
0600
ENDCHAR
STARTCHAR $2422
ENCODING 12354
SWIDTH 960 0
DWIDTH 14 0
BBX 11 13 2 -1
BITMAP
1000
1300
7C00
1000
1400
1F80
3440
6420
A820
9820
9040
6880
0300
ENDCHAR
STARTCHAR $2423
ENCODING 12355
SWIDTH 960 0
DWIDTH 14 0
BBX 9 7 3 -1
BITMAP
4000
4100
8100
8080
8080
5000
2000
ENDCHAR
STARTCHAR $2424
ENCODING 12356
SWIDTH 960 0
DWIDTH 14 0
BBX 11 10 2 0
BITMAP
4000
4000
4080
8040
8040
8020
8020
8020
4800
3000
ENDCHAR
STARTCHAR $2425
ENCODING 12357
SWIDTH 960 0
DWIDTH 14 0
BBX 6 10 4 -2
BITMAP
20
18
00
78
84
04
04
08
08
30
ENDCHAR
STARTCHAR $2426
ENCODING 12358
SWIDTH 960 0
DWIDTH 14 0
BBX 9 13 2 -1
BITMAP
1800
0600
0000
1E00
E100
0080
0080
0080
0100
0100
0200
0C00
3000
ENDCHAR
STARTCHAR $2427
ENCODING 12359
SWIDTH 960 0
DWIDTH 14 0
BBX 9 10 3 -2
BITMAP
3000
0800
0000
7E00
0400
0800
1000
3800
4800
8780
ENDCHAR
STARTCHAR $2428
ENCODING 12360
SWIDTH 960 0
DWIDTH 14 0
BBX 11 13 2 -1
BITMAP
1800
0600
0000
0000
7F80
0200
0400
0800
1000
3800
4400
8400
83E0
ENDCHAR
STARTCHAR $2429
ENCODING 12361
SWIDTH 960 0
DWIDTH 14 0
BBX 9 9 2 -1
BITMAP
2000
2100
F880
2000
3E00
6100
A100
C200
0C00
ENDCHAR
STARTCHAR $242a
ENCODING 12362
SWIDTH 960 0
DWIDTH 14 0
BBX 12 12 2 -1
BITMAP
1000
10C0
1E20
F010
1000
1F80
3040
5020
9020
9020
60C0
0300
ENDCHAR
STARTCHAR $242b
ENCODING 12363
SWIDTH 960 0
DWIDTH 14 0
BBX 12 12 1 -1
BITMAP
1000
1080
1040
FE20
1120
1110
2110
2100
4100
4200
9200
0C00
ENDCHAR
STARTCHAR $242c
ENCODING 12364
SWIDTH 960 0
DWIDTH 14 0
BBX 13 12 1 -1
BITMAP
1028
10A8
1040
FE20
1120
1110
2110
2100
4100
4200
9200
0C00
ENDCHAR
STARTCHAR $242d
ENCODING 12365
SWIDTH 960 0
DWIDTH 14 0
BBX 9 13 3 -1
BITMAP
0800
0800
0B00
7C00
0400
0780
FA00
0100
3E80
4180
4000
3000
0E00
ENDCHAR
STARTCHAR $242e
ENCODING 12366
SWIDTH 960 0
DWIDTH 14 0
BBX 11 13 2 -1
BITMAP
0800
08A0
0BA0
7CA0
0400
0780
FA00
0100
3E80
4180
4000
3000
0E00
ENDCHAR
STARTCHAR $242f
ENCODING 12367
SWIDTH 960 0
DWIDTH 14 0
BBX 6 13 4 -1
BITMAP
04
04
08
10
20
40
80
40
20
10
08
04
04
ENDCHAR
STARTCHAR $2430
ENCODING 12368
SWIDTH 960 0
DWIDTH 14 0
BBX 9 13 4 -1
BITMAP
0400
0400
0A80
1280
2280
4000
8000
4000
2000
1000
0800
0400
0400
ENDCHAR
STARTCHAR $2431
ENCODING 12369
SWIDTH 960 0
DWIDTH 14 0
BBX 12 13 2 -1
BITMAP
0080
4080
4080
40F0
8F80
8080
8080
8080
8080
A080
4080
0100
0600
ENDCHAR
STARTCHAR $2432
ENCODING 12370
SWIDTH 960 0
DWIDTH 14 0
BBX 12 13 2 -1
BITMAP
0150
4150
4100
40E0
8F80
8080
8080
8080
8080
A080
4080
0100
0600
ENDCHAR
STARTCHAR $2433
ENCODING 12371
SWIDTH 960 0
DWIDTH 14 0
BBX 9 10 3 0
BITMAP
7000
0F00
0000
0000
0000
0000
0000
8000
8080
7F00
ENDCHAR
STARTCHAR $2434
ENCODING 12372
SWIDTH 960 0
DWIDTH 14 0
BBX 11 11 3 0
BITMAP
00A0
70A0
0FA0
0000
0000
0000
0000
0000
8000
8080
7F00
ENDCHAR
STARTCHAR $2435
ENCODING 12373
SWIDTH 960 0
DWIDTH 14 0
BBX 9 13 3 -1
BITMAP
1000
1000
0B80
FC00
0400
0400
0200
3D00
4300
8000
8000
6000
1E00
ENDCHAR
STARTCHAR $2436
ENCODING 12374
SWIDTH 960 0
DWIDTH 14 0
BBX 11 13 3 -1
BITMAP
1000
10A0
0BA0
FCA0
0400
0400
0200
3D00
4300
8000
8000
6000
1E00
ENDCHAR
STARTCHAR $2437
ENCODING 12375
SWIDTH 960 0
DWIDTH 14 0
BBX 8 12 4 -1
BITMAP
80
80
80
80
80
80
80
81
81
82
44
38
ENDCHAR
STARTCHAR $2438
ENCODING 12376
SWIDTH 960 0
DWIDTH 14 0
BBX 8 12 4 -1
BITMAP
85
85
85
80
80
80
80
80
81
82
44
38
ENDCHAR
STARTCHAR $2439
ENCODING 12377
SWIDTH 960 0
DWIDTH 14 0
BBX 11 14 2 -2
BITMAP
0200
0200
03E0
FE00
0200
1A00
2600
2200
2200
1E00
0200
0200
0400
1800
ENDCHAR
STARTCHAR $243a
ENCODING 12378
SWIDTH 960 0
DWIDTH 14 0
BBX 12 14 2 -2
BITMAP
0250
0250
03F0
FE00
0200
1A00
2600
2200
2200
1E00
0200
0200
0400
1800
ENDCHAR
STARTCHAR $243b
ENCODING 12379
SWIDTH 960 0
DWIDTH 14 0
BBX 12 11 1 0
BITMAP
0080
1080
10F0
1780
F880
1080
1080
1100
1000
0800
07C0
ENDCHAR
STARTCHAR $243c
ENCODING 12380
SWIDTH 960 0
DWIDTH 14 0
BBX 13 12 1 0
BITMAP
0028
00A8
10A8
10F0
1780
F880
1080
1080
1100
1000
0800
07C0
ENDCHAR
STARTCHAR $243d
ENCODING 12381
SWIDTH 960 0
DWIDTH 14 0
BBX 10 12 2 -1
BITMAP
3F00
0200
0400
0800
13C0
FE00
0400
0800
1000
1000
0800
0700
ENDCHAR
STARTCHAR $243e
ENCODING 12382
SWIDTH 960 0
DWIDTH 14 0
BBX 12 13 2 -1
BITMAP
0050
3F50
0250
0400
0800
13C0
FE00
0400
0800
1000
1000
0800
0700
ENDCHAR
STARTCHAR $243f
ENCODING 12383
SWIDTH 960 0
DWIDTH 14 0
BBX 11 12 2 -1
BITMAP
1000
1000
FE00
1000
2060
2380
2000
4000
4000
4400
8400
83E0
ENDCHAR
STARTCHAR $2440
ENCODING 12384
SWIDTH 960 0
DWIDTH 14 0
BBX 12 12 2 -1
BITMAP
1050
1050
FE50
1000
2060
2380
2000
4000
4000
4400
8400
83E0
ENDCHAR
STARTCHAR $2441
ENCODING 12385
SWIDTH 960 0
DWIDTH 14 0
BBX 10 13 2 -1
BITMAP
1000
1000
1000
FF00
1000
2000
2700
2880
7040
4040
0040
0180
1E00
ENDCHAR
STARTCHAR $2442
ENCODING 12386
SWIDTH 960 0
DWIDTH 14 0
BBX 12 13 2 -1
BITMAP
1000
1050
1050
FF50
1000
2000
2700
2880
7040
4040
0040
0180
1E00
ENDCHAR
STARTCHAR $2443
ENCODING 12387
SWIDTH 960 0
DWIDTH 14 0
BBX 10 7 2 -1
BITMAP
0F00
F080
0040
0040
0080
0300
1C00
ENDCHAR
STARTCHAR $2444
ENCODING 12388
SWIDTH 960 0
DWIDTH 14 0
BBX 12 8 1 1
BITMAP
07C0
1820
E010
0010
0010
0020
00C0
0700
ENDCHAR
STARTCHAR $2445
ENCODING 12389
SWIDTH 960 0
DWIDTH 14 0
BBX 13 10 1 1
BITMAP
0028
0028
07E8
1820
E010
0010
0010
0020
00C0
0700
ENDCHAR
STARTCHAR $2446
ENCODING 12390
SWIDTH 960 0
DWIDTH 14 0
BBX 12 12 1 -1
BITMAP
0070
0FC0
F100
0200
0200
0400
0400
0400
0400
0400
0200
01C0
ENDCHAR
STARTCHAR $2447
ENCODING 12391
SWIDTH 960 0
DWIDTH 14 0
BBX 13 12 1 -1
BITMAP
0070
0F80
F128
0228
0228
0400
0400
0400
0400
0400
0200
01C0
ENDCHAR
STARTCHAR $2448
ENCODING 12392
SWIDTH 960 0
DWIDTH 14 0
BBX 9 12 3 -1
BITMAP
2000
2000
2000
1000
1380
1C00
3000
4000
8000
8000
4000
3F80
ENDCHAR
STARTCHAR $2449
ENCODING 12393
SWIDTH 960 0
DWIDTH 14 0
BBX 11 12 3 -1
BITMAP
2000
20A0
20A0
10A0
1380
1C00
3000
4000
8000
8000
4000
3F80
ENDCHAR
STARTCHAR $244a
ENCODING 12394
SWIDTH 960 0
DWIDTH 14 0
BBX 11 13 2 -1
BITMAP
1000
1000
FE00
10C0
2020
2100
4100
4100
8100
0F00
1180
1140
0E00
ENDCHAR
STARTCHAR $244b
ENCODING 12395
SWIDTH 960 0
DWIDTH 14 0
BBX 11 12 2 -1
BITMAP
4000
4000
41C0
4E00
8000
8000
8000
8000
8800
8400
A3E0
4000
ENDCHAR
STARTCHAR $244c
ENCODING 12396
SWIDTH 960 0
DWIDTH 14 0
BBX 12 12 1 -1
BITMAP
0100
2100
2100
2FC0
3220
6210
6410
5410
9810
98D0
6920
00D0
ENDCHAR
STARTCHAR $244d
ENCODING 12397
SWIDTH 960 0
DWIDTH 14 0
BBX 12 13 1 -1
BITMAP
1000
1000
1000
1000
F9C0
1620
1820
1020
3020
3020
51E0
9230
11C0
ENDCHAR
STARTCHAR $244e
ENCODING 12398
SWIDTH 960 0
DWIDTH 14 0
BBX 11 11 2 -1
BITMAP
0F00
3480
4440
4420
8820
8820
9020
9040
6040
0180
0600
ENDCHAR
STARTCHAR $244f
ENCODING 12399
SWIDTH 960 0
DWIDTH 14 0
BBX 12 13 2 -1
BITMAP
0080
4080
4080
40E0
4F80
8080
8080
8080
8080
8780
88E0
A890
4700
ENDCHAR
STARTCHAR $2450
ENCODING 12400
SWIDTH 960 0
DWIDTH 14 0
BBX 13 13 1 -1
BITMAP
00A8
40A8
4088
40E0
4F80
8080
8080
8080
8080
8780
88E0
A890
4700
ENDCHAR
STARTCHAR $2451
ENCODING 12401
SWIDTH 960 0
DWIDTH 14 0
BBX 13 13 1 -1
BITMAP
00B0
40C8
40C8
40F0
4F80
8080
8080
8080
8080
8780
88E0
A890
4700
ENDCHAR
STARTCHAR $2452
ENCODING 12402
SWIDTH 960 0
DWIDTH 14 0
BBX 11 12 2 -1
BITMAP
0400
1800
F000
2080
4080
40C0
80A0
8080
8100
8100
4200
3C00
ENDCHAR
STARTCHAR $2453
ENCODING 12403
SWIDTH 960 0
DWIDTH 14 0
BBX 12 12 2 -1
BITMAP
0450
1850
F050
2080
4080
40C0
80A0
8080
8100
8100
4200
3C00
ENDCHAR
STARTCHAR $2454
ENCODING 12404
SWIDTH 960 0
DWIDTH 14 0
BBX 12 13 2 -1
BITMAP
0060
0490
1890
F060
2080
4080
40C0
80A0
8080
8100
8100
4200
3C00
ENDCHAR
STARTCHAR $2455
ENCODING 12405
SWIDTH 960 0
DWIDTH 14 0
BBX 13 12 1 -1
BITMAP
0800
0700
0100
0200
0400
0200
2120
2090
4088
8088
1100
0E00
ENDCHAR
STARTCHAR $2456
ENCODING 12406
SWIDTH 960 0
DWIDTH 14 0
BBX 13 12 1 -1
BITMAP
0850
0750
0150
0200
0400
0200
2120
2090
4088
8088
1100
0E00
ENDCHAR
STARTCHAR $2457
ENCODING 12407
SWIDTH 960 0
DWIDTH 14 0
BBX 13 12 1 -1
BITMAP
0860
0790
0190
0260
0400
0200
2120
2090
4088
8088
1100
0E00
ENDCHAR
STARTCHAR $2458
ENCODING 12408
SWIDTH 960 0
DWIDTH 14 0
BBX 13 6 1 2
BITMAP
0C00
1200
2100
4080
8060
0018
ENDCHAR
STARTCHAR $2459
ENCODING 12409
SWIDTH 960 0
DWIDTH 14 0
BBX 13 8 1 2
BITMAP
0050
0050
0C50
1200
2100
4080
8060
0018
ENDCHAR
STARTCHAR $245a
ENCODING 12410
SWIDTH 960 0
DWIDTH 14 0
BBX 13 9 1 2
BITMAP
0060
0090
0090
0C60
1200
2100
4080
8060
0018
ENDCHAR
STARTCHAR $245b
ENCODING 12411
SWIDTH 960 0
DWIDTH 14 0
BBX 12 12 2 -1
BITMAP
4FE0
4080
4080
40E0
8F80
8080
8080
8080
8780
88E0
A890
4700
ENDCHAR
STARTCHAR $245c
ENCODING 12412
SWIDTH 960 0
DWIDTH 14 0
BBX 13 13 1 -1
BITMAP
0028
4FE8
40A8
4080
40F0
8F80
8080
8080
8080
8780
88E0
A890
4700
ENDCHAR
STARTCHAR $245d
ENCODING 12413
SWIDTH 960 0
DWIDTH 14 0
BBX 13 13 1 -1
BITMAP
0030
4FC8
40C8
40B0
40E0
8F80
8080
8080
8080
8780
88E0
A890
4700
ENDCHAR
STARTCHAR $245e
ENCODING 12414
SWIDTH 960 0
DWIDTH 14 0
BBX 9 13 3 -1
BITMAP
0400
0400
FF80
0400
0400
0700
FC00
0400
0400
7C00
8700
8480
7800
ENDCHAR
STARTCHAR $245f
ENCODING 12415
SWIDTH 960 0
DWIDTH 14 0
BBX 13 11 1 -1
BITMAP
3E00
0200
0200
0420
0420
1FE0
6830
8848
9040
6080
0100
ENDCHAR
STARTCHAR $2460
ENCODING 12416
SWIDTH 960 0
DWIDTH 14 0
BBX 12 13 2 -1
BITMAP
1000
1000
FC00
10C0
1020
7010
9000
9000
B080
6040
2040
2040
1F80
ENDCHAR
STARTCHAR $2461
ENCODING 12417
SWIDTH 960 0
DWIDTH 14 0
BBX 12 12 1 -1
BITMAP
0100
2100
2100
2780
3940
2220
5210
5410
8C10
8810
9420
60C0
ENDCHAR
STARTCHAR $2462
ENCODING 12418
SWIDTH 960 0
DWIDTH 14 0
BBX 11 13 2 -1
BITMAP
0800
0800
0800
7E00
0800
0900
FE00
1000
1020
1020
1040
0880
0700
ENDCHAR
STARTCHAR $2463
ENCODING 12419
SWIDTH 960 0
DWIDTH 14 0
BBX 10 10 2 -2
BITMAP
0400
2200
2780
3840
F040
1180
0800
0800
0400
0400
ENDCHAR
STARTCHAR $2464
ENCODING 12420
SWIDTH 960 0
DWIDTH 14 0
BBX 12 14 1 -2
BITMAP
0200
0100
0080
2000
21E0
1610
3810
C810
04E0
0400
0200
0200
0100
0100
ENDCHAR
STARTCHAR $2465
ENCODING 12421
SWIDTH 960 0
DWIDTH 14 0
BBX 10 10 2 -2
BITMAP
0400
0400
8780
9C40
A440
C440
8C80
8700
0400
0800
ENDCHAR
STARTCHAR $2466
ENCODING 12422
SWIDTH 960 0
DWIDTH 14 0
BBX 11 13 2 -2
BITMAP
0400
8200
8780
8A40
9220
A220
C220
D220
8A40
8780
0200
0400
0800
ENDCHAR
STARTCHAR $2467
ENCODING 12423
SWIDTH 960 0
DWIDTH 14 0
BBX 8 10 3 -1
BITMAP
08
08
0F
08
08
08
78
8E
89
70
ENDCHAR
STARTCHAR $2468
ENCODING 12424
SWIDTH 960 0
DWIDTH 14 0
BBX 10 13 2 -1
BITMAP
0400
0400
0400
04C0
0700
0400
0400
0400
0400
7E00
8580
8440
7800
ENDCHAR
STARTCHAR $2469
ENCODING 12425
SWIDTH 960 0
DWIDTH 14 0
BBX 9 13 3 -1
BITMAP
1000
0800
0600
0000
8000
8000
8F00
B080
C080
8080
0100
0600
1800
ENDCHAR
STARTCHAR $246a
ENCODING 12426
SWIDTH 960 0
DWIDTH 14 0
BBX 7 13 4 -1
BITMAP
04
42
42
42
82
82
82
A2
42
04
04
08
30
ENDCHAR
STARTCHAR $246b
ENCODING 12427
SWIDTH 960 0
DWIDTH 14 0
BBX 10 12 2 -1
BITMAP
1F00
0200
0400
0800
1F00
3080
4040
8040
0E40
1180
1100
0E00
ENDCHAR
STARTCHAR $246c
ENCODING 12428
SWIDTH 960 0
DWIDTH 14 0
BBX 13 13 1 -2
BITMAP
1000
1000
1380
1440
F840
1840
1040
3040
3040
5040
9048
1030
1000
ENDCHAR
STARTCHAR $246d
ENCODING 12429
SWIDTH 960 0
DWIDTH 14 0
BBX 10 12 2 -1
BITMAP
3E00
0200
0400
0800
1F00
2080
4040
8040
0040
0080
0300
1C00
ENDCHAR
STARTCHAR $246e
ENCODING 12430
SWIDTH 960 0
DWIDTH 14 0
BBX 9 10 3 -1
BITMAP
2000
2000
2000
F700
2880
3080
6080
6080
A100
2200
ENDCHAR
STARTCHAR $246f
ENCODING 12431
SWIDTH 960 0
DWIDTH 14 0
BBX 12 13 1 -1
BITMAP
1000
1000
1000
39C0
DE20
1810
1010
3010
3010
5020
9040
1180
1000
ENDCHAR
STARTCHAR $2470
ENCODING 12432
SWIDTH 960 0
DWIDTH 14 0
BBX 11 12 2 -1
BITMAP
3E00
0200
0400
0400
0F80
3840
4820
9020
9020
A320
64C0
0380
ENDCHAR
STARTCHAR $2471
ENCODING 12433
SWIDTH 960 0
DWIDTH 14 0
BBX 12 12 1 -1
BITMAP
1F00
0200
0F80
1040
2040
0C40
1380
0E00
1000
39C0
4620
8070
ENDCHAR
STARTCHAR $2472
ENCODING 12434
SWIDTH 960 0
DWIDTH 14 0
BBX 11 13 2 -1
BITMAP
0800
0800
0F00
7000
1060
3C80
6300
8600
0A00
1200
2000
2000
1F80
ENDCHAR
STARTCHAR $2473
ENCODING 12435
SWIDTH 960 0
DWIDTH 14 0
BBX 11 13 2 -1
BITMAP
0400
0400
0400
0800
0800
1000
1000
3C00
2200
4200
4220
8240
8180
ENDCHAR
STARTCHAR $212b
ENCODING 12443
SWIDTH 960 0
DWIDTH 14 0
BBX 4 3 1 9
BITMAP
20
90
40
ENDCHAR
STARTCHAR $212c
ENCODING 12444
SWIDTH 960 0
DWIDTH 14 0
BBX 4 4 1 8
BITMAP
60
90
90
60
ENDCHAR
STARTCHAR $2135
ENCODING 12445
SWIDTH 960 0
DWIDTH 14 0
BBX 6 5 4 3
BITMAP
C0
30
08
0C
10
ENDCHAR
STARTCHAR $2136
ENCODING 12446
SWIDTH 960 0
DWIDTH 14 0
BBX 8 7 4 3
BITMAP
02
09
C4
30
08
0C
10
ENDCHAR
STARTCHAR $2521
ENCODING 12449
SWIDTH 960 0
DWIDTH 14 0
BBX 8 7 3 -1
BITMAP
FF
01
12
1C
10
20
40
ENDCHAR
STARTCHAR $2522
ENCODING 12450
SWIDTH 960 0
DWIDTH 14 0
BBX 11 11 1 -1
BITMAP
FFE0
0020
0440
0480
0700
0400
0400
0800
0800
1000
6000
ENDCHAR
STARTCHAR $2523
ENCODING 12451
SWIDTH 960 0
DWIDTH 14 0
BBX 8 9 3 -1
BITMAP
01
02
04
18
E8
08
08
08
08
ENDCHAR
STARTCHAR $2524
ENCODING 12452
SWIDTH 960 0
DWIDTH 14 0
BBX 9 12 2 -1
BITMAP
0080
0080
0100
0200
0C00
3400
C400
0400
0400
0400
0400
0400
ENDCHAR
STARTCHAR $2525
ENCODING 12453
SWIDTH 960 0
DWIDTH 14 0
BBX 8 9 3 -1
BITMAP
08
08
FF
81
81
81
02
04
18
ENDCHAR
STARTCHAR $2526
ENCODING 12454
SWIDTH 960 0
DWIDTH 14 0
BBX 10 12 2 -1
BITMAP
0400
0400
0400
FFC0
8040
8040
8040
0080
0080
0100
0600
1800
ENDCHAR
STARTCHAR $2527
ENCODING 12455
SWIDTH 960 0
DWIDTH 14 0
BBX 9 7 3 -1
BITMAP
7F00
0800
0800
0800
0800
0800
FF80
ENDCHAR
STARTCHAR $2528
ENCODING 12456
SWIDTH 960 0
DWIDTH 14 0
BBX 11 8 2 1
BITMAP
7FC0
0400
0400
0400
0400
0400
0400
FFE0
ENDCHAR
STARTCHAR $2529
ENCODING 12457
SWIDTH 960 0
DWIDTH 14 0
BBX 8 9 3 -1
BITMAP
04
04
FF
04
0C
14
24
C4
04
ENDCHAR
STARTCHAR $252a
ENCODING 12458
SWIDTH 960 0
DWIDTH 14 0
BBX 11 12 2 -1
BITMAP
0100
0100
0100
FFE0
0300
0300
0500
0900
1100
2100
C100
0300
ENDCHAR
STARTCHAR $252b
ENCODING 12459
SWIDTH 960 0
DWIDTH 14 0
BBX 10 12 2 -1
BITMAP
0800
0800
0800
FFC0
0840
0840
0840
1040
1040
2040
4080
8300
ENDCHAR
STARTCHAR $252c
ENCODING 12460
SWIDTH 960 0
DWIDTH 14 0
BBX 12 12 2 -1
BITMAP
0850
0850
0850
FFC0
0840
0840
0840
1040
1040
2040
4080
8300
ENDCHAR
STARTCHAR $252d
ENCODING 12461
SWIDTH 960 0
DWIDTH 14 0
BBX 11 13 2 -2
BITMAP
0800
0800
09C0
0E00
7400
0400
05E0
0E00
F200
0200
0100
0100
0100
ENDCHAR
STARTCHAR $252e
ENCODING 12462
SWIDTH 960 0
DWIDTH 14 0
BBX 12 13 2 -2
BITMAP
0850
0850
09D0
0E00
7400
0400
05E0
0E00
F200
0200
0100
0100
0100
ENDCHAR
STARTCHAR $252f
ENCODING 12463
SWIDTH 960 0
DWIDTH 14 0
BBX 9 12 3 -1
BITMAP
0800
0800
0F80
1080
2080
4100
8100
0200
0400
0800
3000
C000
ENDCHAR
STARTCHAR $2530
ENCODING 12464
SWIDTH 960 0
DWIDTH 14 0
BBX 12 12 2 -1
BITMAP
0850
0850
0FD0
1080
2080
4100
8100
0200
0400
0800
3000
C000
ENDCHAR
STARTCHAR $2531
ENCODING 12465
SWIDTH 960 0
DWIDTH 14 0
BBX 11 12 2 -1
BITMAP
2000
2000
2000
3FE0
2100
2100
4100
8100
0200
0400
0800
3000
ENDCHAR
STARTCHAR $2532
ENCODING 12466
SWIDTH 960 0
DWIDTH 14 0
BBX 12 13 2 -1
BITMAP
0050
2050
2050
2000
3FE0
2100
2100
4100
8100
0200
0400
0800
3000
ENDCHAR
STARTCHAR $2533
ENCODING 12467
SWIDTH 960 0
DWIDTH 14 0
BBX 10 9 2 0
BITMAP
FFC0
0040
0040
0040
0040
0040
0040
FFC0
0040
ENDCHAR
STARTCHAR $2534
ENCODING 12468
SWIDTH 960 0
DWIDTH 14 0
BBX 13 12 1 0
BITMAP
0028
0028
0028
FFC0
0040
0040
0040
0040
0040
0040
FFC0
0040
ENDCHAR
STARTCHAR $2535
ENCODING 12469
SWIDTH 960 0
DWIDTH 14 0
BBX 12 12 1 -1
BITMAP
1080
1080
1080
1080
FFF0
1080
1080
1080
1080
0100
0200
0C00
ENDCHAR
STARTCHAR $2536
ENCODING 12470
SWIDTH 960 0
DWIDTH 14 0
BBX 13 12 1 -1
BITMAP
0028
10A8
10A8
1080
FFF0
1080
1080
1080
1080
0100
0200
0C00
ENDCHAR
STARTCHAR $2537
ENCODING 12471
SWIDTH 960 0
DWIDTH 14 0
BBX 10 11 3 -1
BITMAP
6000
1000
0040
C040
2080
0080
0100
0200
0400
1800
E000
ENDCHAR
STARTCHAR $2538
ENCODING 12472
SWIDTH 960 0
DWIDTH 14 0
BBX 11 12 3 -1
BITMAP
00A0
60A0
10A0
0000
C040
2040
0080
0100
0200
0400
1800
E000
ENDCHAR
STARTCHAR $2539
ENCODING 12473
SWIDTH 960 0
DWIDTH 14 0
BBX 11 10 1 -1
BITMAP
7F80
0080
0080
0100
0100
0300
0480
0840
3020
C020
ENDCHAR
STARTCHAR $253a
ENCODING 12474
SWIDTH 960 0
DWIDTH 14 0
BBX 13 12 1 -1
BITMAP
0028
0028
7FA8
0080
0080
0100
0100
0300
0480
0840
3020
C020
ENDCHAR
STARTCHAR $253b
ENCODING 12475
SWIDTH 960 0
DWIDTH 14 0
BBX 11 12 2 -1
BITMAP
1000
1000
1000
11E0
1E20
F040
1080
1100
1000
1000
0800
07C0
ENDCHAR
STARTCHAR $253c
ENCODING 12476
SWIDTH 960 0
DWIDTH 14 0
BBX 12 12 2 -1
BITMAP
1050
1050
1050
11E0
1E20
F040
1080
1100
1000
1000
0800
07E0
ENDCHAR
STARTCHAR $253d
ENCODING 12477
SWIDTH 960 0
DWIDTH 14 0
BBX 9 11 3 -1
BITMAP
0080
8080
4080
2080
2100
0100
0200
0400
0800
3000
C000
ENDCHAR
STARTCHAR $253e
ENCODING 12478
SWIDTH 960 0
DWIDTH 14 0
BBX 11 12 3 -1
BITMAP
00A0
00A0
80A0
4100
2100
2100
0200
0200
0400
0800
3000
C000
ENDCHAR
STARTCHAR $253f
ENCODING 12479
SWIDTH 960 0
DWIDTH 14 0
BBX 10 12 2 -1
BITMAP
0400
0400
0FC0
1040
2040
CC80
0280
0100
0200
0400
1800
6000
ENDCHAR
STARTCHAR $2540
ENCODING 12480
SWIDTH 960 0
DWIDTH 14 0
BBX 12 13 2 -1
BITMAP
0050
0450
0450
0FC0
1040
2040
CC80
0280
0100
0200
0400
1800
6000
ENDCHAR
STARTCHAR $2541
ENCODING 12481
SWIDTH 960 0
DWIDTH 14 0
BBX 11 12 1 -1
BITMAP
0080
0300
3E00
0200
0200
FFE0
0200
0200
0200
0400
0800
3000
ENDCHAR
STARTCHAR $2542
ENCODING 12482
SWIDTH 960 0
DWIDTH 14 0
BBX 13 13 1 -1
BITMAP
0028
00E8
0328
3E00
0200
0200
FFE0
0200
0200
0200
0400
0800
3000
ENDCHAR
STARTCHAR $2543
ENCODING 12483
SWIDTH 960 0
DWIDTH 14 0
BBX 8 7 3 -1
BITMAP
21
91
51
42
02
04
18
ENDCHAR
STARTCHAR $2544
ENCODING 12484
SWIDTH 960 0
DWIDTH 14 0
BBX 10 11 3 -1
BITMAP
1040
9040
8840
4840
4080
0080
0100
0100
0200
0C00
3000
ENDCHAR
STARTCHAR $2545
ENCODING 12485
SWIDTH 960 0
DWIDTH 14 0
BBX 13 12 1 -1
BITMAP
0028
1028
9028
8840
4840
4080
0080
0100
0100
0200
0C00
3000
ENDCHAR
STARTCHAR $2546
ENCODING 12486
SWIDTH 960 0
DWIDTH 14 0
BBX 11 11 2 -1
BITMAP
3FC0
0000
0000
0000
FFE0
0200
0200
0200
0400
0800
3000
ENDCHAR
STARTCHAR $2547
ENCODING 12487
SWIDTH 960 0
DWIDTH 14 0
BBX 12 13 2 -1
BITMAP
0050
0050
3FD0
0000
0000
0000
FFE0
0200
0200
0200
0400
0800
3000
ENDCHAR
STARTCHAR $2548
ENCODING 12488
SWIDTH 960 0
DWIDTH 14 0
BBX 6 13 5 -2
BITMAP
80
80
80
80
80
E0
98
84
80
80
80
80
80
ENDCHAR
STARTCHAR $2549
ENCODING 12489
SWIDTH 960 0
DWIDTH 14 0
BBX 8 13 4 -2
BITMAP
85
85
85
80
80
E0
98
84
80
80
80
80
80
ENDCHAR
STARTCHAR $254a
ENCODING 12490
SWIDTH 960 0
DWIDTH 14 0
BBX 11 12 2 -1
BITMAP
0200
0200
0200
FFE0
0200
0200
0200
0400
0400
0800
1000
6000
ENDCHAR
STARTCHAR $254b
ENCODING 12491
SWIDTH 960 0
DWIDTH 14 0
BBX 12 7 1 2
BITMAP
3FC0
0000
0000
0000
0000
0000
FFF0
ENDCHAR
STARTCHAR $254c
ENCODING 12492
SWIDTH 960 0
DWIDTH 14 0
BBX 11 11 1 -1
BITMAP
3FC0
0040
0040
1880
0680
0100
0280
0440
0820
3000
C000
ENDCHAR
STARTCHAR $254d
ENCODING 12493
SWIDTH 960 0
DWIDTH 14 0
BBX 11 12 2 -1
BITMAP
0800
0400
7F80
0080
0100
0200
0400
0D00
34C0
C420
0400
0400
ENDCHAR
STARTCHAR $254e
ENCODING 12494
SWIDTH 960 0
DWIDTH 14 0
BBX 9 12 2 -1
BITMAP
0080
0080
0080
0080
0100
0100
0200
0200
0400
0800
3000
C000
ENDCHAR
STARTCHAR $254f
ENCODING 12495
SWIDTH 960 0
DWIDTH 14 0
BBX 12 9 1 -1
BITMAP
1100
1080
1040
1020
2020
2010
4010
8010
0010
ENDCHAR
STARTCHAR $2550
ENCODING 12496
SWIDTH 960 0
DWIDTH 14 0
BBX 13 12 1 -1
BITMAP
0028
0028
0028
1100
1080
1040
1020
2020
2010
4010
8010
0010
ENDCHAR
STARTCHAR $2551
ENCODING 12497
SWIDTH 960 0
DWIDTH 14 0
BBX 13 13 1 -1
BITMAP
0030
0048
0048
0030
1100
1080
1040
1020
2020
2010
4010
8010
0010
ENDCHAR
STARTCHAR $2552
ENCODING 12498
SWIDTH 960 0
DWIDTH 14 0
BBX 9 10 3 0
BITMAP
8000
8000
8000
8700
F800
8000
8000
8000
8000
7F80
ENDCHAR
STARTCHAR $2553
ENCODING 12499
SWIDTH 960 0
DWIDTH 14 0
BBX 10 10 3 0
BITMAP
8140
8140
8140
8F00
F000
8000
8000
8000
8000
7F80
ENDCHAR
STARTCHAR $2554
ENCODING 12500
SWIDTH 960 0
DWIDTH 14 0
BBX 10 11 3 0
BITMAP
0180
8240
8240
8180
8F00
F000
8000
8000
8000
8000
7F80
ENDCHAR
STARTCHAR $2555
ENCODING 12501
SWIDTH 960 0
DWIDTH 14 0
BBX 10 10 2 -1
BITMAP
FFC0
0040
0040
0080
0080
0100
0200
0400
1800
6000
ENDCHAR
STARTCHAR $2556
ENCODING 12502
SWIDTH 960 0
DWIDTH 14 0
BBX 13 12 1 -1
BITMAP
0028
0028
FFE8
0040
0040
0080
0080
0100
0200
0400
1800
6000
ENDCHAR
STARTCHAR $2557
ENCODING 12503
SWIDTH 960 0
DWIDTH 14 0
BBX 13 12 1 -1
BITMAP
0030
0048
FFC8
0070
0040
0080
0080
0100
0200
0400
1800
6000
ENDCHAR
STARTCHAR $2558
ENCODING 12504
SWIDTH 960 0
DWIDTH 14 0
BBX 13 7 1 1
BITMAP
0C00
1200
2100
4080
8040
0020
0018
ENDCHAR
STARTCHAR $2559
ENCODING 12505
SWIDTH 960 0
DWIDTH 14 0
BBX 13 9 1 1
BITMAP
0050
0050
0C50
1200
2100
4080
8040
0020
0018
ENDCHAR
STARTCHAR $255a
ENCODING 12506
SWIDTH 960 0
DWIDTH 14 0
BBX 13 10 1 1
BITMAP
0060
0090
0090
0C60
1200
2100
4080
8040
0020
0018
ENDCHAR
STARTCHAR $255b
ENCODING 12507
SWIDTH 960 0
DWIDTH 14 0
BBX 11 13 2 -2
BITMAP
0400
0400
0400
FFE0
0400
0400
2480
2440
2440
4420
4420
8400
0C00
ENDCHAR
STARTCHAR $255c
ENCODING 12508
SWIDTH 960 0
DWIDTH 14 0
BBX 12 13 2 -2
BITMAP
0450
0450
0450
FFE0
0400
0400
2480
2440
2440
4420
4420
8400
0C00
ENDCHAR
STARTCHAR $255d
ENCODING 12509
SWIDTH 960 0
DWIDTH 14 0
BBX 12 13 2 -2
BITMAP
0460
0490
0490
FFE0
0400
0400
2480
2440
2440
4420
4420
8400
0C00
ENDCHAR
STARTCHAR $255e
ENCODING 12510
SWIDTH 960 0
DWIDTH 14 0
BBX 11 9 2 0
BITMAP
FFE0
0040
0040
0080
0100
3200
0C00
0200
0100
ENDCHAR
STARTCHAR $255f
ENCODING 12511
SWIDTH 960 0
DWIDTH 14 0
BBX 8 13 3 -2
BITMAP
20
18
06
01
40
30
0C
02
80
60
18
06
01
ENDCHAR
STARTCHAR $2560
ENCODING 12512
SWIDTH 960 0
DWIDTH 14 0
BBX 11 12 2 -1
BITMAP
0400
0400
0400
0800
0800
0880
1080
1040
20C0
2F20
F020
0020
ENDCHAR
STARTCHAR $2561
ENCODING 12513
SWIDTH 960 0
DWIDTH 14 0
BBX 10 12 2 -1
BITMAP
0080
0080
0080
3080
0D00
0300
0280
0240
0400
0800
3000
C000
ENDCHAR
STARTCHAR $2562
ENCODING 12514
SWIDTH 960 0
DWIDTH 14 0
BBX 11 10 2 0
BITMAP
7F80
0800
0800
0800
FFE0
0800
0800
0800
0800
07C0
ENDCHAR
STARTCHAR $2563
ENCODING 12515
SWIDTH 960 0
DWIDTH 14 0
BBX 9 9 3 -2
BITMAP
1000
1380
1C80
F100
0A00
0800
0400
0400
0400
ENDCHAR
STARTCHAR $2564
ENCODING 12516
SWIDTH 960 0
DWIDTH 14 0
BBX 11 12 2 -1
BITMAP
1000
1000
09E0
1E20
E840
0880
0500
0400
0400
0200
0200
0200
ENDCHAR
STARTCHAR $2565
ENCODING 12517
SWIDTH 960 0
DWIDTH 14 0
BBX 9 6 3 0
BITMAP
7E00
0200
0200
0400
0400
FF80
ENDCHAR
STARTCHAR $2566
ENCODING 12518
SWIDTH 960 0
DWIDTH 14 0
BBX 12 7 1 1
BITMAP
7F80
0080
0080
0100
0100
0100
FFF0
ENDCHAR
STARTCHAR $2567
ENCODING 12519
SWIDTH 960 0
DWIDTH 14 0
BBX 6 8 4 -1
BITMAP
FC
04
04
FC
04
04
04
FC
ENDCHAR
STARTCHAR $2568
ENCODING 12520
SWIDTH 960 0
DWIDTH 14 0
BBX 9 11 2 -1
BITMAP
FF80
0080
0080
0080
7F80
0080
0080
0080
0080
FF80
0080
ENDCHAR
STARTCHAR $2569
ENCODING 12521
SWIDTH 960 0
DWIDTH 14 0
BBX 10 11 2 -1
BITMAP
7F80
0000
0000
FFC0
0040
0040
0080
0100
0200
0C00
7000
ENDCHAR
STARTCHAR $256a
ENCODING 12522
SWIDTH 960 0
DWIDTH 14 0
BBX 7 12 4 -1
BITMAP
82
82
82
82
82
82
82
04
04
08
10
60
ENDCHAR
STARTCHAR $256b
ENCODING 12523
SWIDTH 960 0
DWIDTH 14 0
BBX 11 11 2 -1
BITMAP
0200
1200
1200
1200
1220
1220
1240
2240
2280
4300
8000
ENDCHAR
STARTCHAR $256c
ENCODING 12524
SWIDTH 960 0
DWIDTH 14 0
BBX 8 12 4 -1
BITMAP
80
80
80
80
80
80
81
81
82
84
98
E0
ENDCHAR
STARTCHAR $256d
ENCODING 12525
SWIDTH 960 0
DWIDTH 14 0
BBX 10 9 2 0
BITMAP
FFC0
8040
8040
8040
8040
8040
8040
FFC0
8040
ENDCHAR
STARTCHAR $256e
ENCODING 12526
SWIDTH 960 0
DWIDTH 14 0
BBX 8 7 4 -1
BITMAP
FF
81
81
82
02
0C
30
ENDCHAR
STARTCHAR $256f
ENCODING 12527
SWIDTH 960 0
DWIDTH 14 0
BBX 10 11 2 -1
BITMAP
FFC0
8040
8040
8040
8040
0080
0080
0100
0200
0C00
3000
ENDCHAR
STARTCHAR $2570
ENCODING 12528
SWIDTH 960 0
DWIDTH 14 0
BBX 11 12 2 -1
BITMAP
0200
0200
0200
7FC0
2200
2200
2200
2200
FFE0
0200
0200
0200
ENDCHAR
STARTCHAR $2571
ENCODING 12529
SWIDTH 960 0
DWIDTH 14 0
BBX 12 8 1 1
BITMAP
7FC0
0440
0480
0500
0400
0400
0400
FFF0
ENDCHAR
STARTCHAR $2572
ENCODING 12530
SWIDTH 960 0
DWIDTH 14 0
BBX 9 11 3 -1
BITMAP
FF80
0080
0080
0080
7F00
0100
0200
0400
0800
3000
C000
ENDCHAR
STARTCHAR $2573
ENCODING 12531
SWIDTH 960 0
DWIDTH 14 0
BBX 10 10 3 -1
BITMAP
C000
3040
0040
0080
0080
0100
0200
0400
1800
E000
ENDCHAR
STARTCHAR $2574
ENCODING 12532
SWIDTH 960 0
DWIDTH 14 0
BBX 12 12 2 -1
BITMAP
0450
0450
0450
FFC0
8040
8040
8040
0080
0080
0100
0600
1800
ENDCHAR
STARTCHAR $2575
ENCODING 12533
SWIDTH 960 0
DWIDTH 14 0
BBX 8 9 3 -1
BITMAP
10
10
FF
11
11
21
21
41
86
ENDCHAR
STARTCHAR $2576
ENCODING 12534
SWIDTH 960 0
DWIDTH 14 0
BBX 9 8 2 -1
BITMAP
2000
2000
3F80
2200
4200
8200
0400
1800
ENDCHAR
STARTCHAR $2126
ENCODING 12539
SWIDTH 960 0
DWIDTH 14 0
BBX 3 3 6 3
BITMAP
40
E0
40
ENDCHAR
STARTCHAR $213c
ENCODING 12540
SWIDTH 960 0
DWIDTH 14 0
BBX 11 2 1 4
BITMAP
8000
7FE0
ENDCHAR
STARTCHAR $2133
ENCODING 12541
SWIDTH 960 0
DWIDTH 14 0
BBX 7 5 4 3
BITMAP
C0
30
08
04
02
ENDCHAR
STARTCHAR $2134
ENCODING 12542
SWIDTH 960 0
DWIDTH 14 0
BBX 8 7 4 3
BITMAP
02
09
C4
30
08
04
02
ENDCHAR
STARTCHAR $306c
ENCODING 19968
SWIDTH 960 0
DWIDTH 14 0
BBX 13 1 1 5
BITMAP
FFF8
ENDCHAR
STARTCHAR $437a
ENCODING 19969
SWIDTH 960 0
DWIDTH 14 0
BBX 13 13 1 -2
BITMAP
FFF8
0200
0200
0200
0200
0200
0200
0200
0200
0200
0200
0200
0600
ENDCHAR
STARTCHAR $3c37
ENCODING 19971
SWIDTH 960 0
DWIDTH 14 0
BBX 13 14 1 -2
BITMAP
0800
0800
0800
0800
0878
0F80
F800
0800
0800
0800
0800
0810
0810
07F0
ENDCHAR
STARTCHAR $4b7c
ENCODING 19975
SWIDTH 960 0
DWIDTH 14 0
BBX 13 13 1 -2
BITMAP
FFF8
0400
0400
0400
07E0
0420
0420
0820
0820
1020
2020
4020
80C0
ENDCHAR
STARTCHAR $3e66
ENCODING 19976
SWIDTH 960 0
DWIDTH 14 0
BBX 13 14 1 -2
BITMAP
0200
0200
0200
FFF8
0200
0200
2200
1200
0A00
0600
0600
0980
3060
C018
ENDCHAR
STARTCHAR $3b30
ENCODING 19977
SWIDTH 960 0
DWIDTH 14 0
BBX 13 12 1 -1
BITMAP
7FF0
0000
0000
0000
0000
3FE0
0000
0000
0000
0000
0000
FFF8
ENDCHAR
STARTCHAR $3e65
ENCODING 19978
SWIDTH 960 0
DWIDTH 14 0
BBX 13 13 1 -1
BITMAP
0400
0400
0400
0400
0400
07E0
0400
0400
0400
0400
0400
0400
FFF8
ENDCHAR
STARTCHAR $323c
ENCODING 19979
SWIDTH 960 0
DWIDTH 14 0
BBX 13 13 1 -2
BITMAP
FFF8
0200
0200
0300
0280
0240
0220
0220
0200
0200
0200
0200
0200
ENDCHAR
STARTCHAR $4954
ENCODING 19981
SWIDTH 960 0
DWIDTH 14 0
BBX 13 13 1 -2
BITMAP
FFF8
0100
0100
0200
0700
0AC0
3220
C210
0208
0200
0200
0200
0200
ENDCHAR
STARTCHAR $4d3f
ENCODING 19982
SWIDTH 960 0
DWIDTH 14 0
BBX 13 14 1 -2
BITMAP
0800
0800
0FE0
0800
0800
0F80
0080
0080
FFF8
0080
0080
0080
0080
0700
ENDCHAR
STARTCHAR $5022
ENCODING 19984
SWIDTH 960 0
DWIDTH 14 0
BBX 13 13 1 -2
BITMAP
FFF8
0200
0200
43F0
4200
4200
7FF0
4010
0010
0010
0020
0020
00C0
ENDCHAR
STARTCHAR $312f
ENCODING 19985
SWIDTH 960 0
DWIDTH 14 0
BBX 13 12 1 -1
BITMAP
3FC0
0440
0440
0440
0440
7FF0
0840
0840
0840
0840
0840
FFF8
ENDCHAR
STARTCHAR $336e
ENCODING 19988
SWIDTH 960 0
DWIDTH 14 0
BBX 13 12 1 -1
BITMAP
1FC0
1040
1040
1040
1FC0
1040
1040
1FC0
1040
1040
1040
FFF8
ENDCHAR
STARTCHAR $5023
ENCODING 19989
SWIDTH 960 0
DWIDTH 14 0
BBX 13 12 1 -1
BITMAP
7FF0
0100
0200
0700
0AC0
1220
6210
8208
0200
0200
0000
7FF0
ENDCHAR
STARTCHAR $4024
ENCODING 19990
SWIDTH 960 0
DWIDTH 14 0
BBX 13 13 1 -1
BITMAP
2440
2440
2440
2440
FFF8
2440
2440
2440
27C0
2000
2000
2000
3FF0
ENDCHAR
STARTCHAR $5242
ENCODING 19991
SWIDTH 960 0
DWIDTH 14 0
BBX 13 13 1 -1
BITMAP
2220
2220
2220
2220
2220
FFF8
2220
2220
2220
2220
2220
2220
3FE0
ENDCHAR
STARTCHAR $3556
ENCODING 19992
SWIDTH 960 0
DWIDTH 14 0
BBX 13 13 1 -1
BITMAP
0040
0180
1E00
1000
1000
1FF0
1080
1080
1080
1080
1080
1080
FFF8
ENDCHAR
STARTCHAR $4a3a
ENCODING 19993
SWIDTH 960 0
DWIDTH 14 0
BBX 13 13 1 -2
BITMAP
FFF8
0200
0200
7FF0
4210
4210
4510
4490
4850
5050
4010
4010
4030
ENDCHAR
STARTCHAR $3e67
ENCODING 19998
SWIDTH 960 0
DWIDTH 14 0
BBX 13 12 1 -1
BITMAP
1FC0
0080
0110
7A90
0AA0
1240
1240
2220
4210
8608
0000
7FF0
ENDCHAR
STARTCHAR $4e3e
ENCODING 20001
SWIDTH 960 0
DWIDTH 14 0
BBX 13 13 1 -2
BITMAP
FFF8
0200
0200
7FF0
4210
5250
5250
5250
5250
5FD0
4010
4010
4030
ENDCHAR
STARTCHAR $4a42
ENCODING 20006
SWIDTH 960 0
DWIDTH 14 0
BBX 13 13 1 -1
BITMAP
1040
0840
0880
FFF8
0880
0880
4890
2890
28A0
28C0
0880
0880
FFF8
ENDCHAR
STARTCHAR $5024
ENCODING 20010
SWIDTH 960 0
DWIDTH 14 0
BBX 13 14 1 -2
BITMAP
0200
0200
0500
0500
0880
1040
2220
4210
8208
0200
0200
0200
0200
0200
ENDCHAR
STARTCHAR $4366
ENCODING 20013
SWIDTH 960 0
DWIDTH 14 0
BBX 11 14 2 -2
BITMAP
0400
0400
0400
FFE0
8420
8420
8420
8420
FFE0
0400
0400
0400
0400
0400
ENDCHAR
STARTCHAR $5025
ENCODING 20017
SWIDTH 960 0
DWIDTH 14 0
BBX 12 14 1 -2
BITMAP
0900
0900
8910
8910
8910
8910
8910
8910
F9F0
0900
1100
1100
2100
4100
ENDCHAR
STARTCHAR $367a
ENCODING 20018
SWIDTH 960 0
DWIDTH 14 0
BBX 11 14 2 -2
BITMAP
0400
0400
7FC0
4440
4440
7FC0
0400
FFE0
8420
8420
FFE0
0400
0400
0400
ENDCHAR
STARTCHAR $5026
ENCODING 20022
SWIDTH 960 0
DWIDTH 14 0
BBX 3 4 6 4
BITMAP
80
40
20
20
ENDCHAR
STARTCHAR $345d
ENCODING 20024
SWIDTH 960 0
DWIDTH 14 0
BBX 13 14 1 -2
BITMAP
0400
0400
0400
0400
FF80
0480
0480
3480
0C80
0A80
1188
2088
4088
8078
ENDCHAR
STARTCHAR $4330
ENCODING 20025
SWIDTH 960 0
DWIDTH 14 0
BBX 13 13 1 -2
BITMAP
1FC0
1040
1440
1240
1240
1040
FFF8
1040
1040
2040
2040
4040
80C0
ENDCHAR
STARTCHAR $3c67
ENCODING 20027
SWIDTH 960 0
DWIDTH 14 0
BBX 13 13 1 -1
BITMAP
0400
0200
0200
7FF0
0200
0200
0200
3FE0
0200
0200
0200
0200
FFF8
ENDCHAR
STARTCHAR $5027
ENCODING 20028
SWIDTH 960 0
DWIDTH 14 0
BBX 13 14 1 -2
BITMAP
0840
0840
0840
7FF8
0840
0A40
0940
0940
FFF8
0840
1040
1040
2040
4040
ENDCHAR
STARTCHAR $5028
ENCODING 20031
SWIDTH 960 0
DWIDTH 14 0
BBX 8 14 3 -2
BITMAP
01
01
01
01
01
01
01
01
02
02
04
08
30
C0
ENDCHAR
STARTCHAR $5029
ENCODING 20034
SWIDTH 960 0
DWIDTH 14 0
BBX 13 14 1 -2
BITMAP
0040
2040
2040
1040
1080
1080
0880
0900
0500
0200
0500
0880
3060
C018
ENDCHAR
STARTCHAR $4735
ENCODING 20035
SWIDTH 960 0
DWIDTH 14 0
BBX 12 13 1 -2
BITMAP
7F80
0880
0880
0880
0880
08F0
0810
0810
1010
1010
2010
4010
80E0
ENDCHAR
STARTCHAR $3557
ENCODING 20037
SWIDTH 960 0
DWIDTH 14 0
BBX 13 14 1 -2
BITMAP
0400
0400
0400
07C0
0840
0840
1080
2080
4180
0240
0440
0820
3010
C008
ENDCHAR
STARTCHAR $4737
ENCODING 20043
SWIDTH 960 0
DWIDTH 14 0
BBX 13 14 1 -2
BITMAP
0200
0200
0200
7FE0
0020
0040
0040
0080
0100
2200
3400
2800
4600
81F8
ENDCHAR
STARTCHAR $4663
ENCODING 20045
SWIDTH 960 0
DWIDTH 14 0
BBX 13 14 1 -2
BITMAP
0800
0800
0800
1FF8
1200
2200
43F0
8200
0200
03F0
0200
0200
0200
0200
ENDCHAR
STARTCHAR $3843
ENCODING 20046
SWIDTH 960 0
DWIDTH 14 0
BBX 13 14 1 -2
BITMAP
0060
7F80
0220
2220
1240
1280
0200
FFF8
0200
0200
0200
0200
0200
0600
ENDCHAR
STARTCHAR $4b33
ENCODING 20047
SWIDTH 960 0
DWIDTH 14 0
BBX 13 14 1 -2
BITMAP
0030
01C0
7E00
0200
0200
3FE0
0020
0040
0080
1300
1C00
2800
4600
81F8
ENDCHAR
STARTCHAR $6949
ENCODING 20053
SWIDTH 960 0
DWIDTH 14 0
BBX 13 14 1 -2
BITMAP
00F0
3F00
2100
3FF8
2100
3FF8
2100
2FF0
2910
2910
4910
4960
8100
0100
ENDCHAR
STARTCHAR $502a
ENCODING 20054
SWIDTH 960 0
DWIDTH 14 0
BBX 13 14 1 -2
BITMAP
0060
3F80
0200
0200
FFF8
0200
1240
F258
1260
1240
3248
D238
0200
0200
ENDCHAR
STARTCHAR $3e68
ENCODING 20055
SWIDTH 960 0
DWIDTH 14 0
BBX 13 14 1 -2
BITMAP
00C0
3F00
0200
7FF0
1240
FFF8
1240
7FF0
0700
0A80
3260
C218
0200
0200
ENDCHAR
STARTCHAR $502b
ENCODING 20056
SWIDTH 960 0
DWIDTH 14 0
BBX 13 14 1 -2
BITMAP
00C0
3F00
0200
FFF8
0A90
7AE0
0A80
3A90
CA70
0700
0A80
3260
C218
0200
ENDCHAR
STARTCHAR $3235
ENCODING 20057
SWIDTH 960 0
DWIDTH 14 0
BBX 11 12 2 -1
BITMAP
FF80
0100
0200
0400
0800
1000
2000
4000
8020
8020
8020
7FE0
ENDCHAR
STARTCHAR $3665
ENCODING 20061
SWIDTH 960 0
DWIDTH 14 0
BBX 13 14 1 -2
BITMAP
0400
0400
0400
0400
FF80
0480
0480
0480
0880
0880
1088
2088
4088
8078
ENDCHAR
STARTCHAR $3870
ENCODING 20062
SWIDTH 960 0
DWIDTH 14 0
BBX 12 14 1 -2
BITMAP
1000
1000
1000
3FF0
2000
4000
9F80
0200
0400
0800
1000
2010
2010
1FF0
ENDCHAR
STARTCHAR $4c69
ENCODING 20063
SWIDTH 960 0
DWIDTH 14 0
BBX 13 14 1 -2
BITMAP
0200
2200
2200
2260
23A0
2E20
3220
E220
2220
2220
22C0
2008
2008
1FF8
ENDCHAR
STARTCHAR $5626
ENCODING 20066
SWIDTH 960 0
DWIDTH 14 0
BBX 13 14 1 -2
BITMAP
2100
2100
2100
A900
A900
A900
A900
A900
A900
A900
A908
F908
0108
00F8
ENDCHAR
STARTCHAR $4d70
ENCODING 20081
SWIDTH 960 0
DWIDTH 14 0
BBX 13 14 1 -2
BITMAP
0480
1880
7080
1080
1080
FE80
1080
1080
7C80
4480
4480
4488
7C88
0078
ENDCHAR
STARTCHAR $467d
ENCODING 20083
SWIDTH 960 0
DWIDTH 14 0
BBX 13 14 1 -2
BITMAP
0680
F880
2280
9280
5480
4880
7E80
0480
0880
0E80
F880
0888
0888
1878
ENDCHAR
STARTCHAR $3425
ENCODING 20094
SWIDTH 960 0
DWIDTH 14 0
BBX 13 14 1 -2
BITMAP
1100
1100
FFF8
1100
7E00
45F0
7C20
4440
7C80
1080
FF00
1108
1108
10F8
ENDCHAR
STARTCHAR $3535
ENCODING 20096
SWIDTH 960 0
DWIDTH 14 0
BBX 13 14 1 -2
BITMAP
0400
0780
1900
FFC0
1240
1FC0
1240
3FE0
2220
3FE0
2220
3FE8
0208
01F8
ENDCHAR
STARTCHAR $502c
ENCODING 20098
SWIDTH 960 0
DWIDTH 14 0
BBX 13 14 1 -2
BITMAP
0E80
F480
5280
7E80
AC80
1080
FE80
AA80
FA80
BA80
AA80
9288
AA88
C678
ENDCHAR
STARTCHAR $502d
ENCODING 20101
SWIDTH 960 0
DWIDTH 14 0
BBX 3 14 5 -2
BITMAP
20
20
20
20
20
20
20
20
20
20
20
20
20
C0
ENDCHAR
STARTCHAR $4e3b
ENCODING 20102
SWIDTH 960 0
DWIDTH 14 0
BBX 10 13 2 -2
BITMAP
FFC0
0080
0100
0600
0400
0400
0400
0400
0400
0400
0400
0400
0C00
ENDCHAR
STARTCHAR $4d3d
ENCODING 20104
SWIDTH 960 0
DWIDTH 14 0
BBX 13 13 1 -2
BITMAP
3FE0
0440
0280
0300
FFF8
0210
0220
0240
0200
0200
0200
0200
0600
ENDCHAR
STARTCHAR $4168
ENCODING 20105
SWIDTH 960 0
DWIDTH 14 0
BBX 13 14 1 -2
BITMAP
0200
07C0
1880
6100
3FE0
0220
FFF8
0220
0220
3FE0
0200
0200
0200
0600
ENDCHAR
STARTCHAR $502f
ENCODING 20106
SWIDTH 960 0
DWIDTH 14 0
BBX 13 14 1 -2
BITMAP
0200
0200
FFF8
2220
1220
1240
3FE0
0220
FFF8
0220
3FE0
0200
0200
0600
ENDCHAR
STARTCHAR $3b76
ENCODING 20107
SWIDTH 960 0
DWIDTH 14 0
BBX 13 14 1 -2
BITMAP
0200
FFF8
0200
1FC0
1240
1FC0
0200
3FE0
0220
FFF8
0220
3FE0
0200
0600
ENDCHAR
STARTCHAR $4673
ENCODING 20108
SWIDTH 960 0
DWIDTH 14 0
BBX 13 10 1 0
BITMAP
7FF0
0000
0000
0000
0000
0000
0000
0000
0000
FFF8
ENDCHAR
STARTCHAR $5032
ENCODING 20110
SWIDTH 960 0
DWIDTH 14 0
BBX 13 13 1 -2
BITMAP
7FF0
0200
0200
0200
0200
FFF8
0200
0200
0200
0200
0200
0200
0C00
ENDCHAR
STARTCHAR $313e
ENCODING 20113
SWIDTH 960 0
DWIDTH 14 0
BBX 13 13 1 -2
BITMAP
3FE0
0000
0000
0000
FFF8
0200
0200
0280
0440
0420
08E0
7F10
0010
ENDCHAR
STARTCHAR $385f
ENCODING 20114
SWIDTH 960 0
DWIDTH 14 0
BBX 13 12 1 -1
BITMAP
7FF0
0400
0400
0FC0
0840
0840
0840
1FC0
0080
0080
0080
FFF8
ENDCHAR
STARTCHAR $385e
ENCODING 20116
SWIDTH 960 0
DWIDTH 14 0
BBX 13 12 1 -1
BITMAP
7FF0
0400
0400
0400
0400
7FC0
0840
0840
0840
1040
1040
FFF8
ENDCHAR
STARTCHAR $3066
ENCODING 20117
SWIDTH 960 0
DWIDTH 14 0
BBX 13 14 1 -2
BITMAP
0880
0880
0880
0880
7FF0
0880
0880
0880
FFF8
0880
1080
1080
2080
4080
ENDCHAR
STARTCHAR $4f4b
ENCODING 20120
SWIDTH 960 0
DWIDTH 14 0
BBX 13 13 1 -2
BITMAP
7FF0
0000
0000
1FC0
1040
1040
1FC0
1040
1040
1FC0
0000
0000
FFF8
ENDCHAR
STARTCHAR $4f4a
ENCODING 20121
SWIDTH 960 0
DWIDTH 14 0
BBX 13 12 1 -1
BITMAP
7FF0
0400
0400
0FC0
0A40
0940
0940
1440
1280
1280
0080
FFF8
ENDCHAR
STARTCHAR $3a33
ENCODING 20123
SWIDTH 960 0
DWIDTH 14 0
BBX 13 13 1 -1
BITMAP
1100
1100
5130
5FC0
5100
5108
5D08
E0F8
0000
3FE0
0000
0000
FFF8
ENDCHAR
STARTCHAR $3021
ENCODING 20124
SWIDTH 960 0
DWIDTH 14 0
BBX 12 12 1 -1
BITMAP
FFF0
0900
0900
7FE0
4920
4920
4920
7FE0
0900
0900
0900
FFF0
ENDCHAR
STARTCHAR $5033
ENCODING 20126
SWIDTH 960 0
DWIDTH 14 0
BBX 13 12 1 -1
BITMAP
FFF8
0880
0880
0880
78F0
4010
4010
78F0
0880
0880
0880
FFF8
ENDCHAR
STARTCHAR $5034
ENCODING 20127
SWIDTH 960 0
DWIDTH 14 0
BBX 13 12 1 -1
BITMAP
FFF8
0400
0400
0FF0
7990
4950
4960
4920
7950
0188
0600
FFF8
ENDCHAR
STARTCHAR $5035
ENCODING 20128
SWIDTH 960 0
DWIDTH 14 0
BBX 13 5 1 4
BITMAP
0200
0200
0200
0200
FFF8
ENDCHAR
STARTCHAR $4b34
ENCODING 20129
SWIDTH 960 0
DWIDTH 14 0
BBX 13 13 1 -1
BITMAP
0200
0200
0200
FFF8
2000
2000
2000
2000
2000
2000
2000
2000
1FF0
ENDCHAR
STARTCHAR $5036
ENCODING 20130
SWIDTH 960 0
DWIDTH 14 0
BBX 13 14 1 -2
BITMAP
0200
0200
FFF8
0000
0000
0F80
0880
0880
0880
0880
1080
1088
2088
4078
ENDCHAR
STARTCHAR $3872
ENCODING 20132
SWIDTH 960 0
DWIDTH 14 0
BBX 13 14 1 -2
BITMAP
0200
0200
FFF8
0880
0840
10A0
2890
4490
0500
0300
0300
0480
1860
E018
ENDCHAR
STARTCHAR $3067
ENCODING 20133
SWIDTH 960 0
DWIDTH 14 0
BBX 13 14 1 -2
BITMAP
0200
0200
FFF8
0200
0480
3480
0920
0640
0480
1980
2240
0C20
3010
C010
ENDCHAR
STARTCHAR $4b72
ENCODING 20134
SWIDTH 960 0
DWIDTH 14 0
BBX 13 14 1 -2
BITMAP
0200
0200
0200
FFF8
0480
0480
24A0
2490
4488
8488
0880
0880
1080
2180
ENDCHAR
STARTCHAR $357c
ENCODING 20136
SWIDTH 960 0
DWIDTH 14 0
BBX 13 14 1 -2
BITMAP
0200
FFF8
0000
1FC0
1040
1FC0
0000
3FC0
0080
0300
0200
0200
0200
0600
ENDCHAR
STARTCHAR $357d
ENCODING 20139
SWIDTH 960 0
DWIDTH 14 0
BBX 13 14 1 -2
BITMAP
0200
FFF8
0000
1FC0
1040
1FC0
0000
3FC0
0080
0300
FFF8
0200
0200
0600
ENDCHAR
STARTCHAR $357e
ENCODING 20140
SWIDTH 960 0
DWIDTH 14 0
BBX 13 14 1 -2
BITMAP
0200
0200
FFF8
0000
1FC0
1040
1040
1FC0
0200
1240
1220
2210
4210
0600
ENDCHAR
STARTCHAR $4462
ENCODING 20141
SWIDTH 960 0
DWIDTH 14 0
BBX 13 14 1 -2
BITMAP
0200
FFF8
0000
1FC0
1040
1FC0
0000
FFF8
8008
BFE8
0200
0200
0200
0600
ENDCHAR
STARTCHAR $4e3c
ENCODING 20142
SWIDTH 960 0
DWIDTH 14 0
BBX 13 14 1 -2
BITMAP
0200
FFF8
0000
1FC0
1040
1FC0
0000
FFF8
8008
8908
0900
0908
3108
C0F8
ENDCHAR
STARTCHAR $5037
ENCODING 20144
SWIDTH 960 0
DWIDTH 14 0
BBX 13 14 1 -2
BITMAP
0200
0200
FFF8
0000
3FE0
2020
3FE0
2020
3FE0
1240
1220
2210
4210
0600
ENDCHAR
STARTCHAR $5038
ENCODING 20147
SWIDTH 960 0
DWIDTH 14 0
BBX 13 14 1 -2
BITMAP
0200
FFF8
0000
1FC0
1040
1FC0
0000
FFF8
8188
9E08
03F0
7E00
0208
01F8
ENDCHAR
STARTCHAR $5039
ENCODING 20150
SWIDTH 960 0
DWIDTH 14 0
BBX 13 13 1 -1
BITMAP
0200
0200
FFF8
2FA0
28A0
2FA0
3FE0
1040
1FC0
1040
1FC0
0000
FFF8
ENDCHAR
STARTCHAR $3f4d
ENCODING 20154
SWIDTH 960 0
DWIDTH 14 0
BBX 13 14 1 -2
BITMAP
0200
0200
0200
0200
0200
0200
0700
0500
0880
0880
1040
2020
4010
8008
ENDCHAR
STARTCHAR $3d3a
ENCODING 20160
SWIDTH 960 0
DWIDTH 14 0
BBX 13 14 1 -2
BITMAP
0880
0880
0880
1080
1080
3FF8
5080
9080
1080
1080
1080
1080
1080
1080
ENDCHAR
STARTCHAR $3f4e
ENCODING 20161
SWIDTH 960 0
DWIDTH 14 0
BBX 13 14 1 -2
BITMAP
1000
1000
17F0
2000
2000
6000
A000
2000
2000
2000
2000
2FF8
2000
2000
ENDCHAR
STARTCHAR $503e
ENCODING 20162
SWIDTH 960 0
DWIDTH 14 0
BBX 12 14 1 -2
BITMAP
1100
1100
1100
2100
3FF0
6110
A110
2110
2110
2210
2210
2410
2810
3060
ENDCHAR
STARTCHAR $503c
ENCODING 20164
SWIDTH 960 0
DWIDTH 14 0
BBX 13 13 1 -2
BITMAP
3FF8
2000
2100
2100
2100
2100
2280
2280
2440
4440
4820
9010
2008
ENDCHAR
STARTCHAR $503d
ENCODING 20166
SWIDTH 960 0
DWIDTH 14 0
BBX 13 14 1 -2
BITMAP
0880
0880
0880
1080
10C0
30A0
5090
9088
1088
1080
1080
1080
1080
1080
ENDCHAR
STARTCHAR $3558
ENCODING 20167
SWIDTH 960 0
DWIDTH 14 0
BBX 13 14 1 -2
BITMAP
1200
1200
1200
2200
23C0
7E40
A240
2240
2240
2240
2448
2448
2848
3038
ENDCHAR
STARTCHAR $3a23
ENCODING 20170
SWIDTH 960 0
DWIDTH 14 0
BBX 13 14 1 -2
BITMAP
0200
0200
0500
0880
3060
CF98
0000
0000
3FC0
0040
0080
0080
0100
0600
ENDCHAR
STARTCHAR $3270
ENCODING 20171
SWIDTH 960 0
DWIDTH 14 0
BBX 13 14 1 -2
BITMAP
0200
0200
0500
0880
3060
C898
0880
0880
0880
0880
1080
1080
2080
4080
ENDCHAR
STARTCHAR $503b
ENCODING 20173
SWIDTH 960 0
DWIDTH 14 0
BBX 12 14 1 -2
BITMAP
1000
1FC0
1240
2240
2240
6240
A270
2250
2210
2210
2410
2410
2810
3060
ENDCHAR
STARTCHAR $503a
ENCODING 20174
SWIDTH 960 0
DWIDTH 14 0
BBX 13 14 1 -2
BITMAP
1040
1040
1040
1040
1040
1040
1040
10C0
18A0
24A0
2520
2310
4210
8408
ENDCHAR
STARTCHAR $4a29
ENCODING 20175
SWIDTH 960 0
DWIDTH 14 0
BBX 13 14 1 -2
BITMAP
1100
1100
1100
1100
2100
2100
6100
A200
2240
2220
2410
24F0
3F08
2008
ENDCHAR
STARTCHAR $3b46
ENCODING 20180
SWIDTH 960 0
DWIDTH 14 0
BBX 13 14 1 -2
BITMAP
1000
17F0
1020
2040
2080
6080
A080
2FF8
2080
2080
2080
2080
2080
2180
ENDCHAR
STARTCHAR $3b45
ENCODING 20181
SWIDTH 960 0
DWIDTH 14 0
BBX 13 14 1 -2
BITMAP
1080
1080
1080
2080
2080
6FF8
A080
2080
2080
2080
2080
2080
27F0
2000
ENDCHAR
STARTCHAR $423e
ENCODING 20182
SWIDTH 960 0
DWIDTH 14 0
BBX 13 14 1 -2
BITMAP
1080
1080
1480
2490
24F0
6790
BC90
2490
2490
24B0
2480
2408
2408
23F8
ENDCHAR
STARTCHAR $503f
ENCODING 20183
SWIDTH 960 0
DWIDTH 14 0
BBX 13 14 1 -2
BITMAP
1080
1080
1080
2FF8
2080
6480
A480
2280
2380
2100
2180
2240
2420
2818
ENDCHAR
STARTCHAR $4955
ENCODING 20184
SWIDTH 960 0
DWIDTH 14 0
BBX 13 14 1 -2
BITMAP
0820
0820
0820
1020
17F8
3020
5220
9120
1120
1020
1020
1020
1020
1060
ENDCHAR
STARTCHAR $4067
ENCODING 20185
SWIDTH 960 0
DWIDTH 14 0
BBX 12 14 1 -2
BITMAP
1080
1080
1080
2490
2490
6490
A490
2490
2490
2490
2490
2490
27F0
2000
ENDCHAR
STARTCHAR $2138
ENCODING 20189
SWIDTH 960 0
DWIDTH 14 0
BBX 13 13 1 -1
BITMAP
0200
0200
0500
0880
1040
2020
C018
1FC0
0200
0200
0200
0200
FFF8
ENDCHAR
STARTCHAR $5040
ENCODING 20190
SWIDTH 960 0
DWIDTH 14 0
BBX 12 14 1 -2
BITMAP
1000
1FF0
1110
2110
2110
6110
A510
2510
2910
2110
2210
2210
2410
2860
ENDCHAR
STARTCHAR $5042
ENCODING 20191
SWIDTH 960 0
DWIDTH 14 0
BBX 13 14 1 -2
BITMAP
1010
1060
1780
2080
2080
6080
BFF8
2080
2080
2080
2080
2080
2080
2080
ENDCHAR
STARTCHAR $4265
ENCODING 20195
SWIDTH 960 0
DWIDTH 14 0
BBX 13 14 1 -2
BITMAP
0920
0910
0910
1100
11F8
3E80
5080
9080
1040
1040
1028
1028
1018
1008
ENDCHAR
STARTCHAR $4e61
ENCODING 20196
SWIDTH 960 0
DWIDTH 14 0
BBX 13 14 1 -2
BITMAP
0200
0200
0500
0880
3060
DFD8
0000
3FE0
0220
0220
0220
03C0
0200
0200
ENDCHAR
STARTCHAR $304a
ENCODING 20197
SWIDTH 960 0
DWIDTH 14 0
BBX 13 14 1 -2
BITMAP
2020
2020
2420
2220
2120
2120
2020
2020
2020
2060
2C50
3090
C308
0C08
ENDCHAR
STARTCHAR $5041
ENCODING 20205
SWIDTH 960 0
DWIDTH 14 0
BBX 13 14 1 -2
BITMAP
1000
1FF0
1110
2110
2110
6910
A510
2310
2110
22D0
2238
2410
2810
3060
ENDCHAR
STARTCHAR $323e
ENCODING 20206
SWIDTH 960 0
DWIDTH 14 0
BBX 13 14 1 -2
BITMAP
1000
17F8
1400
2400
27F0
6510
A510
24A0
24A0
2440
2840
28A0
3310
2C08
ENDCHAR
STARTCHAR $3644
ENCODING 20208
SWIDTH 960 0
DWIDTH 14 0
BBX 12 14 1 -2
BITMAP
1080
1100
16F0
2490
2490
6490
A490
2490
2490
2790
3CE0
2080
2080
2080
ENDCHAR
STARTCHAR $4367
ENCODING 20210
SWIDTH 960 0
DWIDTH 14 0
BBX 13 14 1 -2
BITMAP
1080
1080
1080
2FF8
2888
6888
A888
2888
2FF8
2080
2080
2080
2080
2080
ENDCHAR
STARTCHAR $376f
ENCODING 20214
SWIDTH 960 0
DWIDTH 14 0
BBX 13 14 1 -2
BITMAP
1080
1280
1280
27F0
2480
6880
A080
2FF8
2080
2080
2080
2080
2080
2080
ENDCHAR
STARTCHAR $5043
ENCODING 20215
SWIDTH 960 0
DWIDTH 14 0
BBX 13 14 1 -2
BITMAP
1100
1100
1180
2280
2240
6420
AA50
3248
2240
2240
2440
2440
2840
3040
ENDCHAR
STARTCHAR $4724
ENCODING 20219
SWIDTH 960 0
DWIDTH 14 0
BBX 13 14 1 -2
BITMAP
1030
17C0
1080
2080
2080
6080
AFF8
2080
2080
2080
2080
2080
27F0
2000
ENDCHAR
STARTCHAR $346b
ENCODING 20225
SWIDTH 960 0
DWIDTH 14 0
BBX 13 13 1 -1
BITMAP
0200
0200
0500
0880
3260
C218
0200
1200
13E0
1200
1200
1200
FFF8
ENDCHAR
STARTCHAR $5044
ENCODING 20233
SWIDTH 960 0
DWIDTH 14 0
BBX 13 14 1 -2
BITMAP
1080
1080
1FF8
2000
2000
63C0
A240
2240
2240
2240
2440
2448
2848
3038
ENDCHAR
STARTCHAR $304b
ENCODING 20234
SWIDTH 960 0
DWIDTH 14 0
BBX 13 14 1 -2
BITMAP
1000
17F0
1090
2090
2FF8
6090
A090
27F0
2080
2080
2100
2100
2200
2400
ENDCHAR
STARTCHAR $3860
ENCODING 20237
SWIDTH 960 0
DWIDTH 14 0
BBX 13 14 1 -2
BITMAP
1000
1FF0
1100
2100
2100
6100
AFE0
2220
2220
2220
2220
2220
3FF8
2000
ENDCHAR
STARTCHAR $346c
ENCODING 20238
SWIDTH 960 0
DWIDTH 14 0
BBX 13 14 1 -2
BITMAP
1080
1080
1080
2FF8
2080
6080
A7F0
2210
2220
2120
2140
2080
2360
2C18
ENDCHAR
STARTCHAR $497a
ENCODING 20239
SWIDTH 960 0
DWIDTH 14 0
BBX 13 14 1 -2
BITMAP
1080
10A0
1090
2090
2080
6FF8
A080
2080
2080
2140
2140
2220
2C10
3008
ENDCHAR
STARTCHAR $4832
ENCODING 20240
SWIDTH 960 0
DWIDTH 14 0
BBX 13 14 1 -2
BITMAP
08A0
0890
0890
1080
10F8
3F90
5090
90A0
1060
1040
10C8
1128
1618
1008
ENDCHAR
STARTCHAR $3559
ENCODING 20241
SWIDTH 960 0
DWIDTH 14 0
BBX 13 14 1 -2
BITMAP
1080
1080
1080
2080
2FF8
6080
A1C0
21C0
22A0
22A0
2490
2888
2080
2080
ENDCHAR
STARTCHAR $3271
ENCODING 20250
SWIDTH 960 0
DWIDTH 14 0
BBX 13 14 1 -2
BITMAP
0200
0200
0500
0880
3060
CF98
0000
0000
7FF0
0480
0440
09A0
7E10
0010
ENDCHAR
STARTCHAR $5067
ENCODING 20252
SWIDTH 960 0
DWIDTH 14 0
BBX 13 14 1 -2
BITMAP
1100
1100
1FC0
2140
2248
6248
A438
2880
2080
2FF8
2080
2080
2080
2080
ENDCHAR
STARTCHAR $4541
ENCODING 20253
SWIDTH 960 0
DWIDTH 14 0
BBX 13 14 1 -2
BITMAP
1000
17F0
1000
2000
2000
6FF8
A100
2100
2140
2220
2210
2470
3F88
2008
ENDCHAR
STARTCHAR $476c
ENCODING 20271
SWIDTH 960 0
DWIDTH 14 0
BBX 12 14 1 -2
BITMAP
1080
1080
1080
2100
27F0
6410
A410
2410
27F0
2410
2410
2410
27F0
2000
ENDCHAR
STARTCHAR $5046
ENCODING 20272
SWIDTH 960 0
DWIDTH 14 0
BBX 13 14 1 -2
BITMAP
1080
1080
1080
2FF8
2080
6080
A080
27F0
2410
2410
2410
2410
27F0
2000
ENDCHAR
STARTCHAR $483c
ENCODING 20276
SWIDTH 960 0
DWIDTH 14 0
BBX 13 14 1 -2
BITMAP
1080
1490
1290
22A0
2080
67F0
A080
2080
2FF8
2080
2080
2080
2080
2080
ENDCHAR
STARTCHAR $4e62
ENCODING 20278
SWIDTH 960 0
DWIDTH 14 0
BBX 13 14 1 -2
BITMAP
0880
0880
0940
1140
1220
37F0
5808
97F0
1090
1090
1090
10E0
1080
1080
ENDCHAR
STARTCHAR $3f2d
ENCODING 20280
SWIDTH 960 0
DWIDTH 14 0
BBX 12 14 1 -2
BITMAP
1080
1080
17F0
2490
2490
67F0
A490
2490
27F0
2080
2080
2080
2080
2080
ENDCHAR
STARTCHAR $3b47
ENCODING 20282
SWIDTH 960 0
DWIDTH 14 0
BBX 12 14 1 -2
BITMAP
1000
1FF0
1010
2FD0
2010
6010
A790
2490
2490
2490
2790
2010
2010
2030
ENDCHAR
STARTCHAR $3b77
ENCODING 20284
SWIDTH 960 0
DWIDTH 14 0
BBX 13 14 1 -2
BITMAP
1020
1420
1620
2520
24A0
64A0
A420
2420
2420
2420
2560
2650
3888
2108
ENDCHAR
STARTCHAR $3240
ENCODING 20285
SWIDTH 960 0
DWIDTH 14 0
BBX 12 14 1 -2
BITMAP
1400
1400
1470
3F50
2550
6550
A550
2550
2550
2550
2950
2950
3370
2000
ENDCHAR
STARTCHAR $4451
ENCODING 20291
SWIDTH 960 0
DWIDTH 14 0
BBX 12 14 1 -2
BITMAP
1000
17F0
1490
2490
2490
6490
A7F0
2490
2490
2490
2490
2490
27F0
2000
ENDCHAR
STARTCHAR $4322
ENCODING 20294
SWIDTH 960 0
DWIDTH 14 0
BBX 13 14 1 -2
BITMAP
1000
17E0
1420
2420
2420
67E0
A420
2420
2420
27E0
2000
2000
3FF8
2000
ENDCHAR
STARTCHAR $504a
ENCODING 20295
SWIDTH 960 0
DWIDTH 14 0
BBX 13 14 1 -2
BITMAP
1080
1080
1FF8
2808
2808
6000
AFF8
2080
2080
2080
2080
2080
2080
2180
ENDCHAR
STARTCHAR $304c
ENCODING 20301
SWIDTH 960 0
DWIDTH 14 0
BBX 13 14 1 -2
BITMAP
1100
1100
1100
2100
3FF8
6020
A420
2220
2220
2240
2240
2080
3FF8
2000
ENDCHAR
STARTCHAR $4463
ENCODING 20302
SWIDTH 960 0
DWIDTH 14 0
BBX 13 14 1 -2
BITMAP
1030
17C0
1480
2480
2480
67F8
A440
2440
2440
2720
3828
2018
2FF8
2008
ENDCHAR
STARTCHAR $3d3b
ENCODING 20303
SWIDTH 960 0
DWIDTH 14 0
BBX 13 14 1 -2
BITMAP
1100
1080
1080
2FF8
2080
6080
A080
27F0
2080
2080
2080
2080
2FF8
2000
ENDCHAR
STARTCHAR $3a34
ENCODING 20304
SWIDTH 960 0
DWIDTH 14 0
BBX 13 14 1 -2
BITMAP
1100
1100
1100
2FF8
2100
6100
A100
23F0
2240
2440
2840
3040
27F8
2000
ENDCHAR
STARTCHAR $4d24
ENCODING 20305
SWIDTH 960 0
DWIDTH 14 0
BBX 13 14 1 -2
BITMAP
1100
1100
1100
2FF8
2200
6200
A400
27F0
2A10
3210
2210
2210
23F0
2000
ENDCHAR
STARTCHAR $424e
ENCODING 20307
SWIDTH 960 0
DWIDTH 14 0
BBX 13 14 1 -2
BITMAP
1080
1080
1080
2080
2FF8
61C0
A1C0
22A0
22A0
2490
2BE8
2080
2080
2080
ENDCHAR
STARTCHAR $323f
ENCODING 20309
SWIDTH 960 0
DWIDTH 14 0
BBX 13 14 1 -2
BITMAP
1000
1FF8
1010
2010
2790
6490
A490
2490
2490
2790
2010
2010
2010
2030
ENDCHAR
STARTCHAR $5049
ENCODING 20311
SWIDTH 960 0
DWIDTH 14 0
BBX 13 14 1 -2
BITMAP
1080
1080
1FF8
2808
2908
6100
A110
2120
21C0
2100
2100
2108
2108
20F8
ENDCHAR
STARTCHAR $4d3e
ENCODING 20313
SWIDTH 960 0
DWIDTH 14 0
BBX 13 14 1 -2
BITMAP
0200
0200
0500
0880
3060
DFD8
0200
0200
7FF0
1240
1220
2210
4210
0600
ENDCHAR
STARTCHAR $5045
ENCODING 20314
SWIDTH 960 0
DWIDTH 14 0
BBX 13 14 1 -2
BITMAP
1080
1480
1480
2480
27F0
6880
B080
3FF8
2180
2140
2240
2420
2810
3008
ENDCHAR
STARTCHAR $5047
ENCODING 20315
SWIDTH 960 0
DWIDTH 14 0
BBX 13 14 1 -2
BITMAP
1140
1140
1FF0
2150
2150
6FF0
A940
2940
2FF8
2948
2248
2248
2470
2840
ENDCHAR
STARTCHAR $3a6e
ENCODING 20316
SWIDTH 960 0
DWIDTH 14 0
BBX 13 14 1 -2
BITMAP
1200
1200
1200
27F8
2500
6900
B1F0
2100
2100
21F0
2100
2100
2100
2100
ENDCHAR
STARTCHAR $5048
ENCODING 20317
SWIDTH 960 0
DWIDTH 14 0
BBX 12 14 1 -2
BITMAP
1200
1200
1200
27F0
2410
6810
A790
2490
2490
2490
2790
2010
2010
2060
ENDCHAR
STARTCHAR $5524
ENCODING 20318
SWIDTH 960 0
DWIDTH 14 0
BBX 13 14 1 -2
BITMAP
1000
17F0
1000
2000
2FF8
6100
A100
2FF8
2220
2220
27C0
2060
2190
2E08
ENDCHAR
STARTCHAR $5050
ENCODING 20329
SWIDTH 960 0
DWIDTH 14 0
BBX 13 14 1 -2
BITMAP
1000
1FE0
1820
2820
2FE0
6920
AFE0
2D60
2D60
2D60
2DE8
3518
3118
2108
ENDCHAR
STARTCHAR $5053
ENCODING 20335
SWIDTH 960 0
DWIDTH 14 0
BBX 13 14 1 -2
BITMAP
1420
1220
1240
2FF8
2080
6080
A7F0
2080
2080
2FF8
2080
2080
2080
2080
ENDCHAR
STARTCHAR $5051
ENCODING 20336
SWIDTH 960 0
DWIDTH 14 0
BBX 13 14 1 -2
BITMAP
1000
1FF8
1080
2100
27F0
6410
A410
2410
27F0
2410
2410
2410
27F0
2000
ENDCHAR
STARTCHAR $3242
ENCODING 20339
SWIDTH 960 0
DWIDTH 14 0
BBX 13 14 1 -2
BITMAP
1080
1080
1080
27F0
2080
6080
AFF8
2080
2080
27F0
2080
2080
2FF8
2000
ENDCHAR
STARTCHAR $4a3b
ENCODING 20341
SWIDTH 960 0
DWIDTH 14 0
BBX 13 14 1 -2
BITMAP
1420
1220
1240
2FF0
2240
6240
A240
3FF8
2240
2240
2440
2440
2840
3040
ENDCHAR
STARTCHAR $504b
ENCODING 20342
SWIDTH 960 0
DWIDTH 14 0
BBX 13 14 1 -2
BITMAP
1080
1080
1080
3FF8
2080
6080
A7F0
2000
27F0
2410
2410
2410
27F0
2000
ENDCHAR
STARTCHAR $504f
ENCODING 20347
SWIDTH 960 0
DWIDTH 14 0
BBX 13 14 1 -2
BITMAP
1140
1140
1150
2950
2560
6540
A160
2350
2548
3948
2240
2248
2448
2838
ENDCHAR
STARTCHAR $3873
ENCODING 20348
SWIDTH 960 0
DWIDTH 14 0
BBX 13 14 1 -2
BITMAP
1080
1080
1FF8
2240
2220
6450
AA50
2240
2180
2180
2180
2240
2C20
3018
ENDCHAR
STARTCHAR $3b48
ENCODING 20351
SWIDTH 960 0
DWIDTH 14 0
BBX 13 14 1 -2
BITMAP
1080
1080
1FF8
2080
27F0
6490
A490
27F0
2480
2280
2100
2180
2660
3818
ENDCHAR
STARTCHAR $3426
ENCODING 20355
SWIDTH 960 0
DWIDTH 14 0
BBX 13 14 1 -2
BITMAP
1000
17F0
1410
2410
2410
67F0
A000
2520
2520
2520
2520
2928
2928
3018
ENDCHAR
STARTCHAR $5054
ENCODING 20358
SWIDTH 960 0
DWIDTH 14 0
BBX 13 14 1 -2
BITMAP
0200
0200
FFF8
1240
1240
1A60
2690
4710
0700
0A80
3260
C218
0200
0200
ENDCHAR
STARTCHAR $504c
ENCODING 20360
SWIDTH 960 0
DWIDTH 14 0
BBX 13 14 1 -2
BITMAP
1100
11F0
1210
2520
28C0
6080
A340
2CF8
2108
2690
2060
2040
2180
2E00
ENDCHAR
STARTCHAR $4e63
ENCODING 20363
SWIDTH 960 0
DWIDTH 14 0
BBX 12 14 1 -2
BITMAP
1010
1FD0
1450
2450
2750
6950
A950
3550
2350
2250
2250
2410
2810
3030
ENDCHAR
STARTCHAR $3b78
ENCODING 20365
SWIDTH 960 0
DWIDTH 14 0
BBX 13 14 1 -2
BITMAP
1080
1080
17F0
2080
2080
6FF8
A020
2020
2FF8
2420
2220
2220
2020
2060
ENDCHAR
STARTCHAR $504d
ENCODING 20367
SWIDTH 960 0
DWIDTH 14 0
BBX 13 14 1 -2
BITMAP
1080
1280
1280
27F0
2480
6880
BFF8
21C0
21C0
22A0
22A0
2490
2888
2080
ENDCHAR
STARTCHAR $5052
ENCODING 20369
SWIDTH 960 0
DWIDTH 14 0
BBX 13 14 1 -2
BITMAP
1100
1100
1FF8
2100
2200
63F0
A610
2BF0
3210
23F0
2210
2210
2210
2230
ENDCHAR
STARTCHAR $5055
ENCODING 20374
SWIDTH 960 0
DWIDTH 14 0
BBX 13 14 1 -2
BITMAP
0200
0200
0500
0880
3FE0
C018
3FE0
2520
2520
3FE0
2520
2520
2520
2560
ENDCHAR
STARTCHAR $504e
ENCODING 20376
SWIDTH 960 0
DWIDTH 14 0
BBX 13 14 1 -2
BITMAP
1080
1080
1FF8
2808
2838
60C0
A780
2080
20F8
2F80
2080
2088
2088
2078
ENDCHAR
STARTCHAR $3621
ENCODING 20379
SWIDTH 960 0
DWIDTH 14 0
BBX 13 14 1 -2
BITMAP
1240
1240
1240
2240
2FF0
6240
A240
2240
3FF8
2000
2240
2220
2410
2810
ENDCHAR
STARTCHAR $304d
ENCODING 20381
SWIDTH 960 0
DWIDTH 14 0
BBX 13 14 1 -2
BITMAP
1080
1080
1080
2FF8
2100
6190
A290
26A0
2A40
2240
2220
22A0
2310
2C08
ENDCHAR
STARTCHAR $3622
ENCODING 20384
SWIDTH 960 0
DWIDTH 14 0
BBX 13 14 1 -2
BITMAP
1080
1080
1080
2FF8
2490
6290
A2A0
3FF8
2080
2140
2140
2220
2410
2808
ENDCHAR
STARTCHAR $3241
ENCODING 20385
SWIDTH 960 0
DWIDTH 14 0
BBX 13 14 1 -2
BITMAP
1000
1FF8
1140
2140
2140
67F0
A550
2550
2550
2550
2550
2550
27F0
2000
ENDCHAR
STARTCHAR $5525
ENCODING 20395
SWIDTH 960 0
DWIDTH 14 0
BBX 13 14 1 -2
BITMAP
1080
1080
1FF8
2400
2400
63F0
A100
2FF8
2220
2220
27C0
2060
2190
2E08
ENDCHAR
STARTCHAR $4b79
ENCODING 20397
SWIDTH 960 0
DWIDTH 14 0
BBX 13 14 1 -2
BITMAP
1000
17F0
1410
2410
27F0
6440
A440
2520
28A0
2890
3008
2300
20C0
2020
ENDCHAR
STARTCHAR $496e
ENCODING 20398
SWIDTH 960 0
DWIDTH 14 0
BBX 13 14 1 -2
BITMAP
1200
1200
13F8
2400
27E0
6AA0
A2A0
3FF8
24A0
24A0
2FF8
2820
2020
20C0
ENDCHAR
STARTCHAR $3874
ENCODING 20399
SWIDTH 960 0
DWIDTH 14 0
BBX 13 14 1 -2
BITMAP
13E0
1020
1020
2FF8
2200
6200
A3F0
2480
2880
2FF8
20C0
2120
2610
3808
ENDCHAR
STARTCHAR $3f2f
ENCODING 20405
SWIDTH 960 0
DWIDTH 14 0
BBX 13 14 1 -2
BITMAP
1000
17E0
1020
27E0
2020
67E0
A000
3FF8
3008
37E8
2240
2180
2660
3818
ENDCHAR
STARTCHAR $4e37
ENCODING 20406
SWIDTH 960 0
DWIDTH 14 0
BBX 12 14 1 -2
BITMAP
1000
17E0
1420
2420
2420
67E0
A100
2200
2FF0
2810
2810
2810
2FF0
2000
ENDCHAR
STARTCHAR $4a58
ENCODING 20415
SWIDTH 960 0
DWIDTH 14 0
BBX 13 14 1 -2
BITMAP
1000
1FF8
1080
27F0
2490
67F0
A490
27F0
2490
2280
2100
2180
2260
2C18
ENDCHAR
STARTCHAR $3738
ENCODING 20418
SWIDTH 960 0
DWIDTH 14 0
BBX 13 14 1 -2
BITMAP
1030
11C0
1F20
2120
2640
61A0
A130
23C8
2E80
20A0
2490
2488
2888
2080
ENDCHAR
STARTCHAR $4225
ENCODING 20419
SWIDTH 960 0
DWIDTH 14 0
BBX 13 14 1 -2
BITMAP
1000
17F0
1410
2410
27F0
6080
A080
2480
24F0
2480
2480
2680
2980
3078
ENDCHAR
STARTCHAR $3264
ENCODING 20420
SWIDTH 960 0
DWIDTH 14 0
BBX 13 14 1 -2
BITMAP
10C0
1350
1E48
2248
2240
7FF8
A240
2350
2250
2620
3A20
2268
2698
2208
ENDCHAR
STARTCHAR $3d53
ENCODING 20426
SWIDTH 960 0
DWIDTH 14 0
BBX 13 14 1 -2
BITMAP
1100
1120
1230
2FC8
2240
6248
A538
29E0
2220
2640
2980
2180
2660
3818
ENDCHAR
STARTCHAR $5059
ENCODING 20430
SWIDTH 960 0
DWIDTH 14 0
BBX 13 13 1 -1
BITMAP
2000
23E0
2220
3220
4A20
4BE0
A220
2220
33E0
2A20
4A20
4220
9FF8
ENDCHAR
STARTCHAR $505e
ENCODING 20432
SWIDTH 960 0
DWIDTH 14 0
BBX 12 14 1 -2
BITMAP
1090
1350
1E50
2250
2250
7FD0
A250
2650
2750
2AD0
2AD0
3210
2210
2230
ENDCHAR
STARTCHAR $505c
ENCODING 20433
SWIDTH 960 0
DWIDTH 14 0
BBX 12 14 1 -2
BITMAP
1000
17F0
1120
20C0
27F0
6490
A490
27F0
2490
2490
27F0
2490
2490
24B0
ENDCHAR
STARTCHAR $5057
ENCODING 20436
SWIDTH 960 0
DWIDTH 14 0
BBX 13 14 1 -2
BITMAP
1000
17F0
1410
27F0
2410
67F0
A410
27F0
2550
2140
2240
2248
2448
2838
ENDCHAR
STARTCHAR $422f
ENCODING 20439
SWIDTH 960 0
DWIDTH 14 0
BBX 13 14 1 -2
BITMAP
1240
1220
1410
2910
2100
6280
A240
2420
2FF0
3428
2420
2420
27E0
2000
ENDCHAR
STARTCHAR $505a
ENCODING 20440
SWIDTH 960 0
DWIDTH 14 0
BBX 13 14 1 -2
BITMAP
1010
1060
17A0
2490
2488
6808
A7F0
2060
2080
2FF8
2080
2080
2080
2180
ENDCHAR
STARTCHAR $505d
ENCODING 20442
SWIDTH 960 0
DWIDTH 14 0
BBX 13 14 1 -2
BITMAP
1000
17F0
1490
2490
27F0
6490
A490
27F0
2080
27F0
2080
2080
2FF8
2000
ENDCHAR
STARTCHAR $505b
ENCODING 20443
SWIDTH 960 0
DWIDTH 14 0
BBX 13 14 1 -2
BITMAP
1100
11E0
1240
2480
2FF0
6490
A490
27F0
20C0
2140
2140
2248
2448
2838
ENDCHAR
STARTCHAR $4a5d
ENCODING 20445
SWIDTH 960 0
DWIDTH 14 0
BBX 13 14 1 -2
BITMAP
1000
17F0
1410
2410
27F0
6080
A080
2FF8
21C0
22A0
2490
2888
2080
2080
ENDCHAR
STARTCHAR $5058
ENCODING 20447
SWIDTH 960 0
DWIDTH 14 0
BBX 13 14 1 -2
BITMAP
1100
1140
1120
2270
2F90
6200
A3F0
2480
2880
3FF8
2080
2140
2220
2C18
ENDCHAR
STARTCHAR $3f2e
ENCODING 20449
SWIDTH 960 0
DWIDTH 14 0
BBX 13 14 1 -2
BITMAP
1000
13E0
1000
2FF8
2000
67F0
A000
27F0
2000
27F0
2410
2410
27F0
2000
ENDCHAR
STARTCHAR $4b73
ENCODING 20451
SWIDTH 960 0
DWIDTH 14 0
BBX 13 14 1 -2
BITMAP
1000
17F0
1410
2410
27F0
6000
A7F0
2080
2080
2FF8
20C0
2120
2610
3808
ENDCHAR
STARTCHAR $505f
ENCODING 20452
SWIDTH 960 0
DWIDTH 14 0
BBX 13 14 1 -2
BITMAP
1220
1120
1140
27F0
2090
67F0
A480
27F8
2588
2188
2288
24B0
2880
2080
ENDCHAR
STARTCHAR $5060
ENCODING 20453
SWIDTH 960 0
DWIDTH 14 0
BBX 13 14 1 -2
BITMAP
1080
1080
1FF8
2080
27F0
6490
A7F0
2490
27F0
2080
2FF8
2080
2080
2080
ENDCHAR
STARTCHAR $3d24
ENCODING 20462
SWIDTH 960 0
DWIDTH 14 0
BBX 13 14 1 -2
BITMAP
1100
1100
19F8
2A20
2D40
69C0
AE78
2880
2B20
28C0
2B10
2820
20C0
2700
ENDCHAR
STARTCHAR $506d
ENCODING 20463
SWIDTH 960 0
DWIDTH 14 0
BBX 13 14 1 -2
BITMAP
1080
1080
1FF8
2910
2910
6910
ABF8
2A90
2E50
2A50
2A10
3210
3210
2230
ENDCHAR
STARTCHAR $4750
ENCODING 20467
SWIDTH 960 0
DWIDTH 14 0
BBX 13 14 1 -2
BITMAP
1140
1140
1140
2F78
2140
6140
AF78
2140
2140
2F78
2140
2240
2440
2840
ENDCHAR
STARTCHAR $4936
ENCODING 20469
SWIDTH 960 0
DWIDTH 14 0
BBX 13 14 1 -2
BITMAP
1080
1080
1FF8
2080
27F0
6080
AFF8
2180
2290
2660
2A40
22A0
2310
2C08
ENDCHAR
STARTCHAR $5068
ENCODING 20470
SWIDTH 960 0
DWIDTH 14 0
BBX 13 14 1 -2
BITMAP
1400
1400
14F0
2710
2490
6490
BF90
2450
2660
2D20
2D60
3450
2490
2D08
ENDCHAR
STARTCHAR $4a70
ENCODING 20472
SWIDTH 960 0
DWIDTH 14 0
BBX 13 14 1 -2
BITMAP
1080
1080
17F0
2080
27F0
6140
AFF8
22A0
27F0
2888
27F0
2080
2080
2080
ENDCHAR
STARTCHAR $3236
ENCODING 20474
SWIDTH 960 0
DWIDTH 14 0
BBX 13 14 1 -2
BITMAP
1100
1100
1FF0
2280
2540
6930
BFE8
2920
2FE0
2920
2FE0
2108
2108
20F8
ENDCHAR
STARTCHAR $506c
ENCODING 20478
SWIDTH 960 0
DWIDTH 14 0
BBX 13 14 1 -2
BITMAP
1080
1100
17F0
2490
27F0
6490
A7F0
2080
2140
2240
2FF8
2040
2040
2040
ENDCHAR
STARTCHAR $5066
ENCODING 20485
SWIDTH 960 0
DWIDTH 14 0
BBX 13 14 1 -2
BITMAP
1080
1080
1FF8
2220
2220
6260
A590
2890
2080
2FF8
2080
2080
2080
2080
ENDCHAR
STARTCHAR $506f
ENCODING 20486
SWIDTH 960 0
DWIDTH 14 0
BBX 13 14 1 -2
BITMAP
1000
1FF8
1080
2080
2FF8
6888
AEE8
2AA8
2AA8
2DD8
2998
2888
2888
2898
ENDCHAR
STARTCHAR $4152
ENCODING 20489
SWIDTH 960 0
DWIDTH 14 0
BBX 13 14 1 -2
BITMAP
0200
0500
0880
3FE0
C018
1FC0
1040
1FC0
1040
1FC0
2000
3FE0
5020
1FE0
ENDCHAR
STARTCHAR $3844
ENCODING 20491
SWIDTH 960 0
DWIDTH 14 0
BBX 12 14 1 -2
BITMAP
1000
1FF0
1910
2910
2FF0
6910
ABD0
2A50
2A50
2BD0
2810
2810
2FF0
2000
ENDCHAR
STARTCHAR $475c
ENCODING 20493
SWIDTH 960 0
DWIDTH 14 0
BBX 13 14 1 -2
BITMAP
1080
1080
1FF8
2420
2220
6240
BFF8
2000
27F0
2410
2410
2410
27F0
2000
ENDCHAR
STARTCHAR $6047
ENCODING 20495
SWIDTH 960 0
DWIDTH 14 0
BBX 13 14 1 -2
BITMAP
1100
1100
11F0
2B20
2CC0
69C0
AE38
28A0
2890
2FF8
2880
2940
2220
2C18
ENDCHAR
STARTCHAR $506e
ENCODING 20497
SWIDTH 960 0
DWIDTH 14 0
BBX 13 14 1 -2
BITMAP
1000
1F78
1948
2F78
2948
6F78
A808
2808
2808
2808
2808
2808
2808
2818
ENDCHAR
STARTCHAR $455d
ENCODING 20498
SWIDTH 960 0
DWIDTH 14 0
BBX 12 14 1 -2
BITMAP
1010
1FD0
1250
2350
24D0
7FD0
A250
2250
2FD0
2250
2250
2390
3C10
2030
ENDCHAR
STARTCHAR $5063
ENCODING 20500
SWIDTH 960 0
DWIDTH 14 0
BBX 13 14 1 -2
BITMAP
1000
17F8
1408
27F8
2440
6550
A550
2550
25F0
2648
2A48
2A48
33F8
2208
ENDCHAR
STARTCHAR $3876
ENCODING 20502
SWIDTH 960 0
DWIDTH 14 0
BBX 13 14 1 -2
BITMAP
1080
1080
17F0
2080
2080
6FF8
A220
2240
2FF8
2080
2080
27F0
2080
2080
ENDCHAR
STARTCHAR $3875
ENCODING 20505
SWIDTH 960 0
DWIDTH 14 0
BBX 13 14 1 -2
BITMAP
13E0
1020
1820
2FF8
6900
A9F0
2A40
2C40
2FF8
28C0
28A0
2920
2210
2C08
ENDCHAR
STARTCHAR $5061
ENCODING 20506
SWIDTH 960 0
DWIDTH 14 0
BBX 13 14 1 -2
BITMAP
1080
1080
1FF8
2140
2220
6420
BFF8
2010
2790
2490
2490
2790
2410
2030
ENDCHAR
STARTCHAR $3c5a
ENCODING 20511
SWIDTH 960 0
DWIDTH 14 0
BBX 13 14 1 -2
BITMAP
1240
1240
1240
2FF0
2240
6240
BFF8
2000
27E0
2420
27E0
2420
2420
27E0
ENDCHAR
STARTCHAR $5069
ENCODING 20513
SWIDTH 960 0
DWIDTH 14 0
BBX 12 14 1 -2
BITMAP
1000
17E0
1420
27E0
2420
67E0
A000
2FF0
2810
2FF0
2810
2810
2FF0
2000
ENDCHAR
STARTCHAR $4a6f
ENCODING 20515
SWIDTH 960 0
DWIDTH 14 0
BBX 13 14 1 -2
BITMAP
1440
1440
1440
3F40
24F8
6490
A790
2550
2550
2560
2920
2960
3190
2608
ENDCHAR
STARTCHAR $434d
ENCODING 20516
SWIDTH 960 0
DWIDTH 14 0
BBX 13 14 1 -2
BITMAP
1080
1080
1FF8
2080
2BE0
6A20
ABE0
2A20
2BE0
2A20
2BE0
2800
2FF8
2000
ENDCHAR
STARTCHAR $5065
ENCODING 20517
SWIDTH 960 0
DWIDTH 14 0
BBX 13 14 1 -2
BITMAP
1080
1080
1FF8
2948
2940
6148
A238
2400
27F0
2080
2080
2080
2FF8
2000
ENDCHAR
STARTCHAR $3771
ENCODING 20518
SWIDTH 960 0
DWIDTH 14 0
BBX 13 14 1 -2
BITMAP
1080
1490
12A0
27F0
2080
6FF8
A140
23E0
2450
2BC8
2240
2210
2210
21F0
ENDCHAR
STARTCHAR $5062
ENCODING 20520
SWIDTH 960 0
DWIDTH 14 0
BBX 13 14 1 -2
BITMAP
1000
17F0
1410
2410
27F0
6480
A480
27F8
2480
2BF0
2A10
3210
23F0
2000
ENDCHAR
STARTCHAR $506a
ENCODING 20521
SWIDTH 960 0
DWIDTH 14 0
BBX 13 14 1 -2
BITMAP
1080
17F0
1080
27F0
2080
6FF8
A000
27F0
2490
2490
27F0
2410
2410
2430
ENDCHAR
STARTCHAR $5064
ENCODING 20522
SWIDTH 960 0
DWIDTH 14 0
BBX 13 14 1 -2
BITMAP
1100
1670
1410
2410
2770
6410
A410
27F0
2140
2140
2240
2248
2448
2838
ENDCHAR
STARTCHAR $4e51
ENCODING 20523
SWIDTH 960 0
DWIDTH 14 0
BBX 13 14 1 -2
BITMAP
1080
1080
1140
2220
27F0
6808
B7F0
2550
2550
27F0
2550
2550
2550
2430
ENDCHAR
STARTCHAR $506b
ENCODING 20524
SWIDTH 960 0
DWIDTH 14 0
BBX 13 14 1 -2
BITMAP
1080
1080
10F8
2080
27F0
6410
A7F0
2410
27F0
2080
2FF8
2080
2080
2080
ENDCHAR
STARTCHAR $4f41
ENCODING 20525
SWIDTH 960 0
DWIDTH 14 0
BBX 13 14 1 -2
BITMAP
1030
17C0
1080
2FF8
21C0
62A0
A490
2080
2FF8
2120
23A0
2040
21A0
2E10
ENDCHAR
STARTCHAR $3666
ENCODING 20534
SWIDTH 960 0
DWIDTH 14 0
BBX 13 14 1 -2
BITMAP
1000
17E0
1420
2420
27E0
6420
A7E0
2420
27E0
2000
3FF8
2240
2420
3810
ENDCHAR
STARTCHAR $3770
ENCODING 20537
SWIDTH 960 0
DWIDTH 14 0
BBX 12 14 1 -2
BITMAP
1100
1100
1280
2440
2FE0
7110
AFE0
2920
2FE0
2920
2280
2240
2420
2810
ENDCHAR
STARTCHAR $5070
ENCODING 20547
SWIDTH 960 0
DWIDTH 14 0
BBX 13 14 1 -2
BITMAP
1000
1FF8
1BF0
2A10
2BF0
6A10
ABF0
2880
2FF8
2B20
28C0
2BB0
2FF8
2800
ENDCHAR
STARTCHAR $5071
ENCODING 20551
SWIDTH 960 0
DWIDTH 14 0
BBX 13 14 1 -2
BITMAP
1000
1F70
1910
2910
2F70
6910
A800
2EF0
2890
2850
2E60
2820
2850
2988
ENDCHAR
STARTCHAR $5075
ENCODING 20552
SWIDTH 960 0
DWIDTH 14 0
BBX 12 14 1 -2
BITMAP
1000
17E0
1420
27E0
2420
67E0
A400
27F0
2910
3990
2A50
2C10
2FD0
2060
ENDCHAR
STARTCHAR $304e
ENCODING 20553
SWIDTH 960 0
DWIDTH 14 0
BBX 13 14 1 -2
BITMAP
1080
17E0
1120
2FF8
2000
67E0
A420
27E0
2040
27F0
2440
3FF8
2040
2040
ENDCHAR
STARTCHAR $4a50
ENCODING 20559
SWIDTH 960 0
DWIDTH 14 0
BBX 12 14 1 -2
BITMAP
1000
1FF0
1000
27E0
2420
67E0
A400
27F0
2D50
2D50
37F0
2550
2550
2430
ENDCHAR
STARTCHAR $5074
ENCODING 20560
SWIDTH 960 0
DWIDTH 14 0
BBX 13 14 1 -2
BITMAP
1080
1FF8
1120
20C0
2320
67F8
A420
24C0
2710
2460
2588
2810
2860
3380
ENDCHAR
STARTCHAR $5073
ENCODING 20565
SWIDTH 960 0
DWIDTH 14 0
BBX 13 14 1 -2
BITMAP
1440
1448
17D0
2460
2440
6748
BCB8
2100
27F0
2410
27F0
2410
27F0
2000
ENDCHAR
STARTCHAR $5077
ENCODING 20566
SWIDTH 960 0
DWIDTH 14 0
BBX 13 14 1 -2
BITMAP
1080
1080
17F0
2090
20A0
6FF8
A0C0
2120
27F0
3A10
23F0
2210
23F0
2000
ENDCHAR
STARTCHAR $5076
ENCODING 20570
SWIDTH 960 0
DWIDTH 14 0
BBX 13 14 1 -2
BITMAP
1040
1440
1440
2440
3FF8
6490
A590
2F50
2960
2920
2960
2F50
2090
2108
ENDCHAR
STARTCHAR $4464
ENCODING 20572
SWIDTH 960 0
DWIDTH 14 0
BBX 13 14 1 -2
BITMAP
1080
1FF8
1000
23E0
2220
63E0
A000
2FF8
2808
27F0
2080
2080
2080
2180
ENDCHAR
STARTCHAR $3772
ENCODING 20581
SWIDTH 960 0
DWIDTH 14 0
BBX 13 14 1 -2
BITMAP
1040
11F0
1C50
27F8
2450
69F0
BE40
23F0
2A40
2BF8
2440
2640
2980
3078
ENDCHAR
STARTCHAR $5078
ENCODING 20588
SWIDTH 960 0
DWIDTH 14 0
BBX 13 14 1 -2
BITMAP
1200
1200
17F0
2550
2B50
72D0
A4D0
2960
2100
22A0
2A90
2A08
3228
21E0
ENDCHAR
STARTCHAR $3c45
ENCODING 20594
SWIDTH 960 0
DWIDTH 14 0
BBX 13 14 1 -2
BITMAP
1000
17F0
1490
2490
27F0
6490
A490
27F0
2080
2240
2A50
2A08
3228
21E0
ENDCHAR
STARTCHAR $4226
ENCODING 20596
SWIDTH 960 0
DWIDTH 14 0
BBX 12 14 1 -2
BITMAP
1010
1F50
1950
2950
2F50
6950
A950
2F50
2950
2950
2F50
2610
2910
3030
ENDCHAR
STARTCHAR $4465
ENCODING 20597
SWIDTH 960 0
DWIDTH 14 0
BBX 12 14 1 -2
BITMAP
1100
1100
11F0
2100
27E0
6420
A7E0
2420
27E0
2420
27E0
2240
2C20
3010
ENDCHAR
STARTCHAR $3676
ENCODING 20598
SWIDTH 960 0
DWIDTH 14 0
BBX 12 14 1 -2
BITMAP
1000
17E0
1520
27E0
2520
67E0
A100
2FF0
2950
29F0
2E30
2810
2810
2830
ENDCHAR
STARTCHAR $5079
ENCODING 20600
SWIDTH 960 0
DWIDTH 14 0
BBX 13 14 1 -2
BITMAP
1380
1080
1140
2220
2FF0
7008
AF50
2950
2D50
2BA0
2DA0
2B50
2950
2B50
ENDCHAR
STARTCHAR $3536
ENCODING 20605
SWIDTH 960 0
DWIDTH 14 0
BBX 13 14 1 -2
BITMAP
1480
1280
1280
2FE0
2120
6120
A3F0
2210
27F8
2AA8
3958
2508
2408
2030
ENDCHAR
STARTCHAR $507a
ENCODING 20608
SWIDTH 960 0
DWIDTH 14 0
BBX 13 14 1 -2
BITMAP
1080
1100
17F0
2490
27F0
6490
A7F0
2590
21A0
21A0
22D0
22F8
2488
2878
ENDCHAR
STARTCHAR $507c
ENCODING 20613
SWIDTH 960 0
DWIDTH 14 0
BBX 13 14 1 -2
BITMAP
10A0
1FF8
1080
27F0
2490
67F0
A490
27F0
24B0
2020
3FF8
2220
2120
2060
ENDCHAR
STARTCHAR $4b35
ENCODING 20621
SWIDTH 960 0
DWIDTH 14 0
BBX 13 14 1 -2
BITMAP
1080
1080
1FF8
2220
2140
6FF8
A888
3FF8
2080
21F0
2110
2210
2C10
3060
ENDCHAR
STARTCHAR $3766
ENCODING 20625
SWIDTH 960 0
DWIDTH 14 0
BBX 13 14 1 -2
BITMAP
1210
1210
17F8
2550
2B50
62F8
A490
2890
3FF8
21C0
22A0
2490
2888
2080
ENDCHAR
STARTCHAR $3b31
ENCODING 20632
SWIDTH 960 0
DWIDTH 14 0
BBX 13 14 1 -2
BITMAP
0200
0500
0A80
3260
D258
1240
2AA0
5750
1240
2AA0
4710
FFF8
0200
0200
ENDCHAR
STARTCHAR $4877
ENCODING 20633
SWIDTH 960 0
DWIDTH 14 0
BBX 13 14 1 -2
BITMAP
1240
1240
1FF0
2240
2FF8
6800
AFF0
2C90
2FF0
2C90
2FF0
3490
2490
2430
ENDCHAR
STARTCHAR $507b
ENCODING 20634
SWIDTH 960 0
DWIDTH 14 0
BBX 13 14 1 -2
BITMAP
1240
1240
1240
3FF8
2A90
6990
A950
3650
2260
2220
2520
2550
2890
3108
ENDCHAR
STARTCHAR $3a45
ENCODING 20652
SWIDTH 960 0
DWIDTH 14 0
BBX 13 14 1 -2
BITMAP
1080
1490
1490
27F0
2530
6240
A7F8
2C40
37F0
2440
27F0
2440
2440
27F8
ENDCHAR
STARTCHAR $4d43
ENCODING 20653
SWIDTH 960 0
DWIDTH 14 0
BBX 13 14 1 -2
BITMAP
2080
2FF8
2880
4FF0
4890
CFF8
4890
4FF0
4880
4FF0
5490
57F0
6490
44B0
ENDCHAR
STARTCHAR $507e
ENCODING 20658
SWIDTH 960 0
DWIDTH 14 0
BBX 13 14 1 -2
BITMAP
1440
1440
1F40
24F8
3F90
6490
A550
3F50
2460
2720
2520
2950
2990
3308
ENDCHAR
STARTCHAR $5123
ENCODING 20659
SWIDTH 960 0
DWIDTH 14 0
BBX 13 14 1 -2
BITMAP
1080
1FF8
1080
27F0
2490
67F0
A7F0
2090
2FF8
2020
3FF8
2420
2220
2060
ENDCHAR
STARTCHAR $507d
ENCODING 20660
SWIDTH 960 0
DWIDTH 14 0
BBX 13 14 1 -2
BITMAP
1000
1FF8
1800
29E0
2920
69E0
A800
2BF0
2AD0
2AD0
2BF0
2800
2FF8
2000
ENDCHAR
STARTCHAR $3a44
ENCODING 20661
SWIDTH 960 0
DWIDTH 14 0
BBX 13 14 1 -2
BITMAP
1080
1FF0
1080
27F0
2080
7FF8
A420
27E0
2420
27E0
2420
27E0
2620
3810
ENDCHAR
STARTCHAR $3d7d
ENCODING 20663
SWIDTH 960 0
DWIDTH 14 0
BBX 13 14 1 -2
BITMAP
1200
13F8
1620
2BE0
3220
63E0
A000
3FF8
2400
27F0
2950
3250
2490
2160
ENDCHAR
STARTCHAR $3739
ENCODING 20670
SWIDTH 960 0
DWIDTH 14 0
BBX 13 14 1 -2
BITMAP
1000
13F8
1020
2840
2AF0
6A90
ACF0
2890
28F0
2A90
2AF0
2660
2090
2308
ENDCHAR
STARTCHAR $5124
ENCODING 20674
SWIDTH 960 0
DWIDTH 14 0
BBX 13 14 1 -2
BITMAP
1080
17F0
1490
2FF8
2490
67F0
A7F0
2490
27F0
2100
3FF8
2320
20E0
2F10
ENDCHAR
STARTCHAR $364f
ENCODING 20677
SWIDTH 960 0
DWIDTH 14 0
BBX 13 14 1 -2
BITMAP
1220
1220
1FF8
2220
27F0
6490
A7F0
2080
27F0
2080
27F0
2080
2FF8
2000
ENDCHAR
STARTCHAR $5121
ENCODING 20681
SWIDTH 960 0
DWIDTH 14 0
BBX 13 14 1 -2
BITMAP
0200
0500
0880
3FE0
C018
3DE0
2520
2520
3DE0
1040
1840
24A0
4510
8210
ENDCHAR
STARTCHAR $5122
ENCODING 20682
SWIDTH 960 0
DWIDTH 14 0
BBX 13 14 1 -2
BITMAP
1000
1FF8
1240
2FF0
2A50
6FF0
A100
3FF8
2240
2FF0
3448
27C0
2410
23F0
ENDCHAR
STARTCHAR $462f
ENCODING 20685
SWIDTH 960 0
DWIDTH 14 0
BBX 12 14 1 -2
BITMAP
2340
3C40
2440
7FF0
5F50
D550
5F50
5550
5F50
4450
5F50
4450
4790
5930
ENDCHAR
STARTCHAR $417c
ENCODING 20687
SWIDTH 960 0
DWIDTH 14 0
BBX 13 14 1 -2
BITMAP
1100
13E0
1C40
27F0
2490
67F0
A080
2310
2DA0
22C0
2D60
2250
2C48
2180
ENDCHAR
STARTCHAR $3623
ENCODING 20689
SWIDTH 960 0
DWIDTH 14 0
BBX 13 14 1 -2
BITMAP
1060
1780
1100
3FF8
2240
67E0
AA50
33C8
2FF0
2810
2BD0
2A50
2BD0
2830
ENDCHAR
STARTCHAR $4b4d
ENCODING 20693
SWIDTH 960 0
DWIDTH 14 0
BBX 13 14 1 -2
BITMAP
1140
1550
1360
2FF8
2220
6140
AFF8
2080
27F0
2080
2FF8
2140
2620
3818
ENDCHAR
STARTCHAR $5125
ENCODING 20694
SWIDTH 960 0
DWIDTH 14 0
BBX 13 14 1 -2
BITMAP
1080
1FF8
1080
27F0
2000
67F0
A410
27F0
2220
3FF8
2000
27F0
2410
27F0
ENDCHAR
STARTCHAR $4e3d
ENCODING 20698
SWIDTH 960 0
DWIDTH 14 0
BBX 13 14 1 -2
BITMAP
1080
1080
1FF8
2948
2630
67F0
AA28
23E0
2220
23E0
2490
2488
2888
2180
ENDCHAR
STARTCHAR $5126
ENCODING 20702
SWIDTH 960 0
DWIDTH 14 0
BBX 13 14 1 -2
BITMAP
1030
1FE0
1490
2888
27E0
6420
A7F0
2410
27F8
24A8
2A58
2958
3508
2430
ENDCHAR
STARTCHAR $5129
ENCODING 20707
SWIDTH 960 0
DWIDTH 14 0
BBX 13 14 1 -2
BITMAP
1240
1240
1FF0
2240
3FF8
6660
A560
2990
37E8
2420
27E0
2420
27E0
2000
ENDCHAR
STARTCHAR $5127
ENCODING 20709
SWIDTH 960 0
DWIDTH 14 0
BBX 13 14 1 -2
BITMAP
1080
17F0
1080
2FF8
2220
6F78
A220
2378
2C00
2FF8
2140
2140
2248
2C38
ENDCHAR
STARTCHAR $414e
ENCODING 20711
SWIDTH 960 0
DWIDTH 14 0
BBX 12 14 1 -2
BITMAP
1220
1140
17F0
2490
27F0
6490
A7F0
2000
23E0
2220
23E0
2220
23E0
2000
ENDCHAR
STARTCHAR $5128
ENCODING 20717
SWIDTH 960 0
DWIDTH 14 0
BBX 13 14 1 -2
BITMAP
1220
1FF8
1AA0
2AA0
2FF8
6660
AB68
3298
27F0
2410
27F0
2410
27F0
2410
ENDCHAR
STARTCHAR $512a
ENCODING 20718
SWIDTH 960 0
DWIDTH 14 0
BBX 13 14 1 -2
BITMAP
1080
1FF0
1240
3FF8
2000
67F0
A490
27F0
2490
27F0
2080
27F0
2080
2FF8
ENDCHAR
STARTCHAR $512c
ENCODING 20725
SWIDTH 960 0
DWIDTH 14 0
BBX 13 14 1 -2
BITMAP
1000
1FF8
1490
27F0
2490
67F0
A000
2FF8
2490
27F0
2490
27F0
2000
2FF8
ENDCHAR
STARTCHAR $512b
ENCODING 20729
SWIDTH 960 0
DWIDTH 14 0
BBX 13 14 1 -2
BITMAP
1000
1FF8
1240
2FF0
2A50
6FF0
A420
27E0
2420
27E0
2420
27E0
2260
2C10
ENDCHAR
STARTCHAR $4a48
ENCODING 20731
SWIDTH 960 0
DWIDTH 14 0
BBX 13 14 1 -2
BITMAP
1020
1720
15F8
2550
2550
6750
A4F8
2420
2F20
2DF8
3520
2520
2720
2020
ENDCHAR
STARTCHAR $3537
ENCODING 20736
SWIDTH 960 0
DWIDTH 14 0
BBX 13 14 1 -2
BITMAP
1220
1140
1FF8
2080
27F0
6080
AFF8
2750
2248
3FF8
2350
2E20
22D8
2608
ENDCHAR
STARTCHAR $512e
ENCODING 20737
SWIDTH 960 0
DWIDTH 14 0
BBX 13 14 1 -2
BITMAP
1240
1240
17F8
2480
2FF0
7480
A7F0
2480
27F8
2000
2F78
2948
29C8
2818
ENDCHAR
STARTCHAR $512f
ENCODING 20738
SWIDTH 960 0
DWIDTH 14 0
BBX 13 14 1 -2
BITMAP
1140
17F0
1550
27F0
2550
67F0
A000
2FF0
29C0
2FF8
2A90
3260
33A0
2E18
ENDCHAR
STARTCHAR $322f
ENCODING 20740
SWIDTH 960 0
DWIDTH 14 0
BBX 13 14 1 -2
BITMAP
1080
17F0
1140
2FF8
2000
63E0
A220
23E0
2220
23E0
2A90
2A48
3228
21E0
ENDCHAR
STARTCHAR $512d
ENCODING 20745
SWIDTH 960 0
DWIDTH 14 0
BBX 13 14 1 -2
BITMAP
1080
1080
1140
2220
2FF8
6000
A770
2550
2550
2770
2220
2330
24C8
2888
ENDCHAR
STARTCHAR $3c74
ENCODING 20754
SWIDTH 960 0
DWIDTH 14 0
BBX 13 14 1 -2
BITMAP
1000
1FF8
1080
3FF8
3088
76B8
A000
2FF8
2080
27F0
2550
2550
2550
2570
ENDCHAR
STARTCHAR $5132
ENCODING 20756
SWIDTH 960 0
DWIDTH 14 0
BBX 13 14 1 -2
BITMAP
1080
1FF8
1080
27F0
2000
6FF8
A7D0
2080
3FF8
2010
2FF8
2A90
2E50
2030
ENDCHAR
STARTCHAR $5131
ENCODING 20757
SWIDTH 960 0
DWIDTH 14 0
BBX 13 14 1 -2
BITMAP
2100
3FF8
2290
7D70
5550
D570
5DD0
6428
47E0
4420
47E0
4420
4820
5020
ENDCHAR
STARTCHAR $5130
ENCODING 20758
SWIDTH 960 0
DWIDTH 14 0
BBX 13 14 1 -2
BITMAP
1040
1FC0
1A40
2F78
2980
6F00
AA70
2F80
2000
27F0
2550
2550
3FF8
2000
ENDCHAR
STARTCHAR $5056
ENCODING 20760
SWIDTH 960 0
DWIDTH 14 0
BBX 13 14 1 -2
BITMAP
2100
2FE0
2120
5FF8
4FE0
C100
7FF8
5490
6248
4FE0
4AA0
4AA0
7FF8
4000
ENDCHAR
STARTCHAR $5133
ENCODING 20762
SWIDTH 960 0
DWIDTH 14 0
BBX 13 14 1 -2
BITMAP
1240
1FF8
1240
27F0
2550
67F0
A000
2FF8
2888
31F0
2720
20C0
2180
2E00
ENDCHAR
STARTCHAR $3d7e
ENCODING 20767
SWIDTH 960 0
DWIDTH 14 0
BBX 13 14 1 -2
BITMAP
1510
12A0
1FF8
2BC8
2A48
67E0
A420
27E0
2420
27E0
2420
27E0
2620
3810
ENDCHAR
STARTCHAR $5134
ENCODING 20769
SWIDTH 960 0
DWIDTH 14 0
BBX 13 14 1 -2
BITMAP
1000
17F0
1490
27F0
2490
67F0
A410
2000
2FF8
2AA8
2FF8
2AA8
2FF8
2888
ENDCHAR
STARTCHAR $4d25
ENCODING 20778
SWIDTH 960 0
DWIDTH 14 0
BBX 13 14 1 -2
BITMAP
1000
1FF8
1080
23E0
23E0
6220
BFF8
36A8
25D0
29E8
2340
2C80
2360
3C18
ENDCHAR
STARTCHAR $4c59
ENCODING 20786
SWIDTH 960 0
DWIDTH 14 0
BBX 13 14 1 -2
BITMAP
1040
1E40
11F0
3E50
2060
6FF8
A040
2EF0
2190
2EF0
2A90
2A90
2EF0
2000
ENDCHAR
STARTCHAR $5136
ENCODING 20791
SWIDTH 960 0
DWIDTH 14 0
BBX 13 14 1 -2
BITMAP
1F78
1000
1F78
2B68
2080
6FF8
A940
2FF0
2950
2FF0
2BC8
3270
33C8
2E38
ENDCHAR
STARTCHAR $5135
ENCODING 20794
SWIDTH 960 0
DWIDTH 14 0
BBX 13 14 1 -2
BITMAP
2A50
3F50
2A50
2EF8
44A0
5FA0
D5F8
5FA0
44A0
5FF8
44A0
5FA0
4AF8
5180
ENDCHAR
STARTCHAR $5138
ENCODING 20795
SWIDTH 960 0
DWIDTH 14 0
BBX 13 14 1 -2
BITMAP
12A0
1FF8
1A30
23E0
27F0
66B0
A5D0
27F0
2080
27F0
2080
2FF8
2550
2948
ENDCHAR
STARTCHAR $5137
ENCODING 20796
SWIDTH 960 0
DWIDTH 14 0
BBX 13 14 1 -2
BITMAP
2770
2550
2770
4000
5FF8
D740
5240
5FF8
55D0
5750
5720
65A0
6F50
4188
ENDCHAR
STARTCHAR $5139
ENCODING 20799
SWIDTH 960 0
DWIDTH 14 0
BBX 13 14 1 -2
BITMAP
0880
0880
0880
0880
0880
0880
0880
0880
0880
1080
1080
2088
4088
8078
ENDCHAR
STARTCHAR $513a
ENCODING 20800
SWIDTH 960 0
DWIDTH 14 0
BBX 13 13 1 -2
BITMAP
FFF8
0880
0880
0880
0880
0880
0880
0880
1080
1080
2088
4088
8078
ENDCHAR
STARTCHAR $3074
ENCODING 20801
SWIDTH 960 0
DWIDTH 14 0
BBX 13 14 1 -2
BITMAP
0400
0480
0860
10D0
FF08
0900
0900
0900
1100
1100
2100
2108
4108
80F8
ENDCHAR
STARTCHAR $3835
ENCODING 20803
SWIDTH 960 0
DWIDTH 14 0
BBX 13 13 1 -2
BITMAP
3FE0
0000
0000
0000
FFF8
0900
0900
0900
1100
1108
2108
4108
80F8
ENDCHAR
STARTCHAR $373b
ENCODING 20804
SWIDTH 960 0
DWIDTH 14 0
BBX 12 13 1 -2
BITMAP
3FC0
2040
2040
2040
3FC0
0A00
0A00
0A00
1200
1210
2210
4210
81F0
ENDCHAR
STARTCHAR $3d3c
ENCODING 20805
SWIDTH 960 0
DWIDTH 14 0
BBX 13 14 1 -2
BITMAP
0200
0200
FFF8
0480
0440
08E0
7F10
0480
0480
0880
0880
1088
2088
C078
ENDCHAR
STARTCHAR $437b
ENCODING 20806
SWIDTH 960 0
DWIDTH 14 0
BBX 13 14 1 -2
BITMAP
0900
0900
0920
4920
2940
2980
0900
0D40
1920
F120
1100
2108
4108
80F8
ENDCHAR
STARTCHAR $3624
ENCODING 20807
SWIDTH 960 0
DWIDTH 14 0
BBX 13 14 1 -2
BITMAP
0100
4120
5A20
4620
4520
4920
5020
7FE0
0900
0900
1100
1108
2108
C0F8
ENDCHAR
STARTCHAR $4068
ENCODING 20808
SWIDTH 960 0
DWIDTH 14 0
BBX 13 14 1 -2
BITMAP
0200
1200
1200
1FE0
2200
4200
FFF8
0500
0500
0900
0900
1108
2108
C0F8
ENDCHAR
STARTCHAR $3877
ENCODING 20809
SWIDTH 960 0
DWIDTH 14 0
BBX 13 14 1 -2
BITMAP
0200
0200
2220
1220
1240
0200
FFF8
0900
0900
0900
1100
1108
2108
C0F8
ENDCHAR
STARTCHAR $396e
ENCODING 20811
SWIDTH 960 0
DWIDTH 14 0
BBX 13 14 1 -2
BITMAP
0200
0200
FFF8
0200
3FE0
2020
2020
3FE0
0500
0500
0500
0908
3108
C0F8
ENDCHAR
STARTCHAR $513c
ENCODING 20812
SWIDTH 960 0
DWIDTH 14 0
BBX 13 14 1 -2
BITMAP
0380
0880
1040
2020
DFD8
1040
1040
1040
1FC0
0500
0500
0908
1108
60F8
ENDCHAR
STARTCHAR $4c48
ENCODING 20813
SWIDTH 960 0
DWIDTH 14 0
BBX 13 14 1 -2
BITMAP
0800
0F80
1100
2200
FFE0
2220
2220
3FE0
0500
0500
0900
1108
2108
C0F8
ENDCHAR
STARTCHAR $4546
ENCODING 20814
SWIDTH 960 0
DWIDTH 14 0
BBX 13 14 1 -2
BITMAP
0060
0180
7E00
0200
3FE0
2220
2220
2220
3FE0
0680
0A40
1248
2208
C1F8
ENDCHAR
STARTCHAR $3b79
ENCODING 20816
SWIDTH 960 0
DWIDTH 14 0
BBX 13 13 1 -2
BITMAP
27E0
2420
2420
27E0
2420
2420
27E0
2100
0900
0900
1108
2108
C0F8
ENDCHAR
STARTCHAR $513b
ENCODING 20818
SWIDTH 960 0
DWIDTH 14 0
BBX 13 14 1 -2
BITMAP
0400
79F0
4010
4010
7DF0
4010
4010
7FF0
0900
0900
0900
1108
2108
C0F8
ENDCHAR
STARTCHAR $513d
ENCODING 20820
SWIDTH 960 0
DWIDTH 14 0
BBX 13 14 1 -2
BITMAP
0400
07C0
0880
3100
FFE0
2220
2220
3FE0
0600
0680
0A40
1248
2208
C1F8
ENDCHAR
STARTCHAR $455e
ENCODING 20826
SWIDTH 960 0
DWIDTH 14 0
BBX 13 14 1 -2
BITMAP
0200
2220
1240
FFF8
8008
9FC8
1040
1040
1FC0
0500
0500
0908
3108
C0F8
ENDCHAR
STARTCHAR $3375
ENCODING 20828
SWIDTH 960 0
DWIDTH 14 0
BBX 13 14 1 -2
BITMAP
0100
1200
6FF0
4890
4F90
4890
6FB0
4010
0900
0900
0900
1108
2108
C0F8
ENDCHAR
STARTCHAR $513e
ENCODING 20834
SWIDTH 960 0
DWIDTH 14 0
BBX 13 14 1 -2
BITMAP
1040
1040
FFF8
1040
7DF0
4510
4510
7DF0
28A0
28A0
2AA0
4D28
5928
8218
ENDCHAR
STARTCHAR $467e
ENCODING 20837
SWIDTH 960 0
DWIDTH 14 0
BBX 13 14 1 -2
BITMAP
1E00
0200
0200
0200
0200
0200
0700
0500
0880
0880
1040
2020
4010
8008
ENDCHAR
STARTCHAR $4134
ENCODING 20840
SWIDTH 960 0
DWIDTH 14 0
BBX 13 13 1 -1
BITMAP
0200
0200
0500
0880
3060
C018
3FE0
0200
0200
1FC0
0200
0200
FFF8
ENDCHAR
STARTCHAR $5140
ENCODING 20841
SWIDTH 960 0
DWIDTH 14 0
BBX 13 13 1 -2
BITMAP
FFF8
0200
0200
7FF0
4210
5AD0
4A50
4A50
56B0
6730
4210
4210
4230
ENDCHAR
STARTCHAR $5141
ENCODING 20842
SWIDTH 960 0
DWIDTH 14 0
BBX 13 14 1 -2
BITMAP
0E00
0500
0880
3060
DFD8
0000
7C90
4490
7520
4E40
7520
4D20
4490
4C90
ENDCHAR
STARTCHAR $482c
ENCODING 20843
SWIDTH 960 0
DWIDTH 14 0
BBX 13 14 1 -2
BITMAP
0F80
0080
0080
0880
0880
0880
0880
1040
1040
1040
2020
2020
4010
8008
ENDCHAR
STARTCHAR $3878
ENCODING 20844
SWIDTH 960 0
DWIDTH 14 0
BBX 13 14 1 -2
BITMAP
0380
0880
0840
1040
1020
2210
4208
8200
0480
0440
0420
08E0
7F10
0010
ENDCHAR
STARTCHAR $4f3b
ENCODING 20845
SWIDTH 960 0
DWIDTH 14 0
BBX 13 13 1 -1
BITMAP
0200
0200
0200
FFF8
0000
0000
0880
0840
1020
1020
2010
4010
8010
ENDCHAR
STARTCHAR $5142
ENCODING 20846
SWIDTH 960 0
DWIDTH 14 0
BBX 13 14 1 -2
BITMAP
0380
0880
1040
2020
DFD8
0800
0800
0FC0
1040
1040
0040
0080
0080
0300
ENDCHAR
STARTCHAR $3626
ENCODING 20849
SWIDTH 960 0
DWIDTH 14 0
BBX 13 14 1 -2
BITMAP
1080
1080
1080
1080
FFF0
1080
1080
1080
FFF8
0000
1080
1040
2020
4020
ENDCHAR
STARTCHAR $4a3c
ENCODING 20853
SWIDTH 960 0
DWIDTH 14 0
BBX 13 14 1 -2
BITMAP
01C0
1E00
1000
1000
1FF0
1080
1080
1080
1080
FFF8
0000
0880
3060
C010
ENDCHAR
STARTCHAR $4236
ENCODING 20854
SWIDTH 960 0
DWIDTH 14 0
BBX 13 14 1 -2
BITMAP
0880
0880
7FF0
0880
0F80
0880
0F80
0880
0880
FFF8
0000
0880
3060
C010
ENDCHAR
STARTCHAR $3671
ENCODING 20855
SWIDTH 960 0
DWIDTH 14 0
BBX 13 13 1 -2
BITMAP
1FC0
1040
1040
1FC0
1040
1FC0
1040
1FC0
0000
FFF8
08C0
3020
C010
ENDCHAR
STARTCHAR $4535
ENCODING 20856
SWIDTH 960 0
DWIDTH 14 0
BBX 13 14 1 -2
BITMAP
0500
0500
0500
3FE0
2520
2520
3FE0
2520
2520
FFF8
0000
0880
3060
C010
ENDCHAR
STARTCHAR $3773
ENCODING 20860
SWIDTH 960 0
DWIDTH 14 0
BBX 13 14 1 -2
BITMAP
1040
0880
FFF8
0900
7FE0
0920
FFF8
0920
7FE0
0980
3960
C918
0900
0900
ENDCHAR
STARTCHAR $5143
ENCODING 20864
SWIDTH 960 0
DWIDTH 14 0
BBX 13 14 1 -2
BITMAP
0890
78E0
0888
3FF8
D240
1FC0
1240
1FC0
0880
7FF0
0880
FFF8
1040
6020
ENDCHAR
STARTCHAR $5144
ENCODING 20866
SWIDTH 960 0
DWIDTH 14 0
BBX 11 13 2 -2
BITMAP
FFE0
8020
8020
8020
8020
8020
8020
8020
8020
8020
8020
8020
8060
ENDCHAR
STARTCHAR $4662
ENCODING 20869
SWIDTH 960 0
DWIDTH 14 0
BBX 11 14 2 -2
BITMAP
0400
0400
0400
FFE0
8420
8420
8A20
8920
90A0
A0A0
8020
8020
8020
8060
ENDCHAR
STARTCHAR $315f
ENCODING 20870
SWIDTH 960 0
DWIDTH 14 0
BBX 11 13 2 -2
BITMAP
FFE0
8420
8420
8420
8420
8420
FFE0
8020
8020
8020
8020
8020
8060
ENDCHAR
STARTCHAR $5147
ENCODING 20873
SWIDTH 960 0
DWIDTH 14 0
BBX 13 14 1 -2
BITMAP
0200
0200
0200
3FE0
2220
2220
3FE0
2220
2220
FFF8
2020
2020
2020
2060
ENDCHAR
STARTCHAR $3a7d
ENCODING 20874
SWIDTH 960 0
DWIDTH 14 0
BBX 13 13 1 -2
BITMAP
3FE0
2520
2520
2520
2520
2520
FFF8
2520
2520
2520
2520
2520
2060
ENDCHAR
STARTCHAR $5146
ENCODING 20876
SWIDTH 960 0
DWIDTH 14 0
BBX 13 13 1 -2
BITMAP
3CF0
2490
2490
2490
2490
FFF8
2490
2490
2490
2490
4510
4510
8E30
ENDCHAR
STARTCHAR $3a46
ENCODING 20877
SWIDTH 960 0
DWIDTH 14 0
BBX 13 13 1 -2
BITMAP
7FF0
0200
3FE0
2220
2220
3FE0
2220
2220
FFF8
2020
2020
2020
2060
ENDCHAR
STARTCHAR $5148
ENCODING 20879
SWIDTH 960 0
DWIDTH 14 0
BBX 11 13 2 -2
BITMAP
FFE0
9220
9220
A260
A1E0
C020
9F20
9120
9120
9120
9F20
8020
8060
ENDCHAR
STARTCHAR $666e
ENCODING 20880
SWIDTH 960 0
DWIDTH 14 0
BBX 11 13 2 -2
BITMAP
FFE0
8020
FFA0
8020
FFA0
8020
7FC0
4040
7FC0
4040
7FC0
4040
40C0
ENDCHAR
STARTCHAR $5149
ENCODING 20881
SWIDTH 960 0
DWIDTH 14 0
BBX 11 14 2 -2
BITMAP
0400
FFE0
8420
FFE0
8420
FFE0
0000
7FC0
4040
5F40
4040
5F40
4040
40C0
ENDCHAR
STARTCHAR $4b41
ENCODING 20882
SWIDTH 960 0
DWIDTH 14 0
BBX 11 12 2 -1
BITMAP
FFE0
8020
FFE0
8020
FFE0
3F80
2080
3F80
2080
3F80
2080
3F80
ENDCHAR
STARTCHAR $514a
ENCODING 20883
SWIDTH 960 0
DWIDTH 14 0
BBX 13 14 1 -2
BITMAP
0880
7FF0
0880
3FE0
0880
FFF8
0200
3FE0
2220
3FE0
2220
FFF8
2020
2060
ENDCHAR
STARTCHAR $514b
ENCODING 20885
SWIDTH 960 0
DWIDTH 14 0
BBX 13 13 1 -2
BITMAP
3FE0
2020
3FE0
2020
3FE0
0F80
3100
FFE0
2220
3FE0
0508
1908
E0F8
ENDCHAR
STARTCHAR $514c
ENCODING 20886
SWIDTH 960 0
DWIDTH 14 0
BBX 13 3 1 5
BITMAP
FFF8
8008
8008
ENDCHAR
STARTCHAR $3e69
ENCODING 20887
SWIDTH 960 0
DWIDTH 14 0
BBX 12 13 1 -2
BITMAP
FFF0
8010
8010
0F00
0900
0900
0900
0900
1100
1100
2110
4110
80F0
ENDCHAR
STARTCHAR $3c4c
ENCODING 20889
SWIDTH 960 0
DWIDTH 14 0
BBX 13 13 1 -2
BITMAP
FFF8
8808
8808
0FE0
0800
0F80
0880
0080
FFF8
0080
0080
0100
0600
ENDCHAR
STARTCHAR $3427
ENCODING 20896
SWIDTH 960 0
DWIDTH 14 0
BBX 13 13 1 -2
BITMAP
FFF8
8008
FC28
0020
03F8
FE20
2920
2920
2820
2820
4868
4808
87F8
ENDCHAR
STARTCHAR $514f
ENCODING 20898
SWIDTH 960 0
DWIDTH 14 0
BBX 13 13 1 -2
BITMAP
FFF8
8008
BFF0
0400
0C90
3290
D6A0
1940
6B40
0D20
1910
6108
0600
ENDCHAR
STARTCHAR $514d
ENCODING 20900
SWIDTH 960 0
DWIDTH 14 0
BBX 13 13 1 -2
BITMAP
FFF8
8408
8F88
3100
FFE0
2220
2220
3FE0
0600
0680
0A48
3248
C1F8
ENDCHAR
STARTCHAR $4c3d
ENCODING 20901
SWIDTH 960 0
DWIDTH 14 0
BBX 13 13 1 -2
BITMAP
FFF8
8008
9FC8
1040
1FC0
1040
1FC0
0200
FFF8
0000
0880
3060
C010
ENDCHAR
STARTCHAR $514e
ENCODING 20902
SWIDTH 960 0
DWIDTH 14 0
BBX 13 13 1 -2
BITMAP
FFF8
8088
BC80
00F8
0080
FFF0
2910
28A0
2860
28D0
4B18
4808
87F8
ENDCHAR
STARTCHAR $495a
ENCODING 20904
SWIDTH 960 0
DWIDTH 14 0
BBX 13 13 1 -2
BITMAP
FFF8
8008
BFE8
0000
1FC0
1040
1FC0
0000
3FE0
2220
3FE0
2220
3FE0
ENDCHAR
STARTCHAR $5150
ENCODING 20905
SWIDTH 960 0
DWIDTH 14 0
BBX 13 13 1 -2
BITMAP
FFF8
8408
B9E8
2020
3DE0
2020
3FE0
0800
3FF0
D490
4A50
4A50
8060
ENDCHAR
STARTCHAR $5151
ENCODING 20906
SWIDTH 960 0
DWIDTH 14 0
BBX 13 13 1 -2
BITMAP
FFF8
8888
FFF0
1FC0
1040
1FC0
1040
FFF8
1240
3FE0
D258
12C0
0200
ENDCHAR
STARTCHAR $5152
ENCODING 20907
SWIDTH 960 0
DWIDTH 14 0
BBX 4 13 5 -2
BITMAP
80
40
20
20
00
00
00
10
20
40
40
80
80
ENDCHAR
STARTCHAR $455f
ENCODING 20908
SWIDTH 960 0
DWIDTH 14 0
BBX 13 14 1 -2
BITMAP
0200
0200
07E0
1840
6480
0300
0680
1860
E618
0100
0000
0E00
0180
0040
ENDCHAR
STARTCHAR $5156
ENCODING 20912
SWIDTH 960 0
DWIDTH 14 0
BBX 13 14 1 -2
BITMAP
0080
0080
4080
2088
2FC8
01D0
01E0
22C0
22A0
44A0
4890
9088
8080
0180
ENDCHAR
STARTCHAR $5154
ENCODING 20913
SWIDTH 960 0
DWIDTH 14 0
BBX 13 12 1 -1
BITMAP
1FF8
4400
2400
27E0
0420
0420
2420
27E0
4420
4020
8020
BFF8
ENDCHAR
STARTCHAR $5155
ENCODING 20914
SWIDTH 960 0
DWIDTH 14 0
BBX 12 14 1 -2
BITMAP
0080
0080
4080
27F0
2490
0490
0490
2490
27F0
4490
4080
8080
8080
0080
ENDCHAR
STARTCHAR $5153
ENCODING 20915
SWIDTH 960 0
DWIDTH 14 0
BBX 13 14 1 -2
BITMAP
0100
0100
4100
2FE0
2120
0120
0120
3FF8
2180
4240
4240
8420
8810
1008
ENDCHAR
STARTCHAR $3a63
ENCODING 20916
SWIDTH 960 0
DWIDTH 14 0
BBX 13 13 1 -2
BITMAP
07F0
4220
2220
2220
0220
1FF8
2060
2060
40A0
4120
8620
9820
0060
ENDCHAR
STARTCHAR $5157
ENCODING 20917
SWIDTH 960 0
DWIDTH 14 0
BBX 13 13 1 -2
BITMAP
07F0
4410
2410
2410
0410
07F0
2140
2140
4240
4240
8448
8848
1038
ENDCHAR
STARTCHAR $4c6a
ENCODING 20918
SWIDTH 960 0
DWIDTH 14 0
BBX 13 13 1 -1
BITMAP
0100
0100
4100
2140
2220
0270
0F88
2000
27F0
4410
4410
8410
87F0
ENDCHAR
STARTCHAR $4e64
ENCODING 20919
SWIDTH 960 0
DWIDTH 14 0
BBX 13 14 1 -2
BITMAP
0100
0100
4280
2240
2420
0BD0
1008
2FF0
2110
4110
4110
81E0
8100
0100
ENDCHAR
STARTCHAR $5158
ENCODING 20925
SWIDTH 960 0
DWIDTH 14 0
BBX 12 14 1 -2
BITMAP
0010
1F90
4450
2450
2750
0950
0950
3550
2650
4250
4450
8410
8810
1030
ENDCHAR
STARTCHAR $4028
ENCODING 20932
SWIDTH 960 0
DWIDTH 14 0
BBX 13 14 1 -2
BITMAP
0100
1FF8
8100
47E0
4120
1FF8
0120
27E0
2100
5FF8
4240
87C0
81A0
1E10
ENDCHAR
STARTCHAR $5159
ENCODING 20933
SWIDTH 960 0
DWIDTH 14 0
BBX 12 12 1 -1
BITMAP
0FF0
4910
2910
2FF0
0910
0910
2BD0
2A50
4A50
4BD0
8810
8FF0
ENDCHAR
STARTCHAR $3d5a
ENCODING 20934
SWIDTH 960 0
DWIDTH 14 0
BBX 13 14 1 -2
BITMAP
0220
0220
4440
27F8
2C40
0C40
17F0
2440
2440
47F0
4440
8440
8440
07F8
ENDCHAR
STARTCHAR $515a
ENCODING 20937
SWIDTH 960 0
DWIDTH 14 0
BBX 13 14 1 -2
BITMAP
0080
0080
4FF8
2000
27F0
0410
0410
27F0
2080
44A0
4490
8888
9088
0180
ENDCHAR
STARTCHAR $437c
ENCODING 20939
SWIDTH 960 0
DWIDTH 14 0
BBX 12 13 1 -2
BITMAP
0FF0
8910
4910
4FD0
0910
2FF0
2810
4BD0
4A50
8A50
93D0
1010
2030
ENDCHAR
STARTCHAR $4e3f
ENCODING 20940
SWIDTH 960 0
DWIDTH 14 0
BBX 13 14 1 -2
BITMAP
0080
0080
47F0
2080
2FF8
0140
2248
2D38
41E0
4220
8D40
8080
0360
1C18
ENDCHAR
STARTCHAR $4560
ENCODING 20941
SWIDTH 960 0
DWIDTH 14 0
BBX 12 14 2 -2
BITMAP
0100
0100
9FF0
4100
4FE0
0920
2FE0
2920
4FE0
4380
8540
8920
B110
0100
ENDCHAR
STARTCHAR $5245
ENCODING 20950
SWIDTH 960 0
DWIDTH 14 0
BBX 13 14 1 -2
BITMAP
0220
4240
27F0
2480
0FE0
3480
27E0
4480
47F0
0200
FFF8
0200
0200
0200
ENDCHAR
STARTCHAR $515b
ENCODING 20955
SWIDTH 960 0
DWIDTH 14 0
BBX 13 14 1 -2
BITMAP
0080
0FF8
4000
27F0
25D0
0550
05D0
27F0
23E0
4000
4FF8
82A0
8490
0890
ENDCHAR
STARTCHAR $7425
ENCODING 20956
SWIDTH 960 0
DWIDTH 14 0
BBX 13 14 1 -2
BITMAP
0080
0FF8
4000
27F0
25D0
0550
05D0
27F0
23E0
4080
4FF8
82A0
8490
0890
ENDCHAR
STARTCHAR $3645
ENCODING 20957
SWIDTH 960 0
DWIDTH 14 0
BBX 13 14 1 -2
BITMAP
1000
13F8
9C10
5160
4F20
08F8
2F30
34A0
44B8
7FA0
8CA0
8AE0
9120
2218
ENDCHAR
STARTCHAR $515c
ENCODING 20960
SWIDTH 960 0
DWIDTH 14 0
BBX 13 13 1 -2
BITMAP
0F80
0880
0880
0880
0880
0880
0880
0880
1080
1080
2088
4088
8078
ENDCHAR
STARTCHAR $4b5e
ENCODING 20961
SWIDTH 960 0
DWIDTH 14 0
BBX 13 13 1 -2
BITMAP
1F80
1080
1080
1080
1480
1280
1280
1280
1080
2080
2088
4088
8078
ENDCHAR
STARTCHAR $3d68
ENCODING 20966
SWIDTH 960 0
DWIDTH 14 0
BBX 13 13 1 -2
BITMAP
11E0
1120
1D20
2520
2520
6520
9520
1920
0928
1A28
2418
4300
80F8
ENDCHAR
STARTCHAR $427c
ENCODING 20967
SWIDTH 960 0
DWIDTH 14 0
BBX 13 13 1 -2
BITMAP
3FE0
2220
2220
2FA0
2AA0
2AA0
2AA0
2AA0
2AA0
2BA8
4218
4218
8208
ENDCHAR
STARTCHAR $515e
ENCODING 20969
SWIDTH 960 0
DWIDTH 14 0
BBX 13 13 1 -2
BITMAP
3FE0
2220
2220
2220
3FE0
2220
2720
26A0
2AA0
2A68
5258
6218
8208
ENDCHAR
STARTCHAR $4664
ENCODING 20970
SWIDTH 960 0
DWIDTH 14 0
BBX 13 13 1 -2
BITMAP
3FE0
2020
2220
2220
2A20
2BA0
2A20
2A20
2A20
2A28
7FD8
4018
8008
ENDCHAR
STARTCHAR $515f
ENCODING 20973
SWIDTH 960 0
DWIDTH 14 0
BBX 13 14 1 -2
BITMAP
1030
17C0
2080
2FF8
6080
A080
27F0
2000
0F80
0880
0880
1088
2088
4078
ENDCHAR
STARTCHAR $5160
ENCODING 20976
SWIDTH 960 0
DWIDTH 14 0
BBX 13 13 1 -2
BITMAP
3FE0
2220
2FA0
28A0
2FA0
28A0
2FA0
2020
3FE0
2228
4F98
4218
9FC8
ENDCHAR
STARTCHAR $332e
ENCODING 20977
SWIDTH 960 0
DWIDTH 14 0
BBX 13 14 1 -2
BITMAP
1000
55E0
5520
7D20
0120
FD20
0120
7D20
4520
7D20
4920
2928
3E28
C418
ENDCHAR
STARTCHAR $5161
ENCODING 20981
SWIDTH 960 0
DWIDTH 14 0
BBX 11 14 2 -2
BITMAP
8020
8020
8020
8020
8020
8020
8020
8020
8020
8020
8020
8020
FFE0
8020
ENDCHAR
STARTCHAR $3627
ENCODING 20982
SWIDTH 960 0
DWIDTH 14 0
BBX 12 13 1 -1
BITMAP
0080
0080
8090
B110
8D10
8210
8310
8490
8850
9050
A010
8010
FFF0
ENDCHAR
STARTCHAR $464c
ENCODING 20984
SWIDTH 960 0
DWIDTH 14 0
BBX 11 12 2 -1
BITMAP
1F00
1100
1100
1100
1100
F1E0
8020
8020
8020
8020
8020
FFE0
ENDCHAR
STARTCHAR $317a
ENCODING 20985
SWIDTH 960 0
DWIDTH 14 0
BBX 11 12 2 -1
BITMAP
F1E0
9120
9120
9120
9120
9120
9F20
8020
8020
8020
8020
FFE0
ENDCHAR
STARTCHAR $3d50
ENCODING 20986
SWIDTH 960 0
DWIDTH 14 0
BBX 11 13 2 -1
BITMAP
0400
4440
4440
4440
4440
7FC0
0400
8420
8420
8420
8420
8420
FFE0
ENDCHAR
STARTCHAR $4821
ENCODING 20989
SWIDTH 960 0
DWIDTH 14 0
BBX 12 12 1 -1
BITMAP
7FE0
0400
8410
8E50
A250
9390
9690
8A50
B250
8610
8010
FFF0
ENDCHAR
STARTCHAR $5162
ENCODING 20990
SWIDTH 960 0
DWIDTH 14 0
BBX 12 13 1 -1
BITMAP
1FC0
0080
8110
8210
BBF0
AB30
AAD0
AA50
BAB0
AB30
8210
8C10
FFF0
ENDCHAR
STARTCHAR $4561
ENCODING 20992
SWIDTH 960 0
DWIDTH 14 0
BBX 11 13 2 -2
BITMAP
FFE0
0420
0420
0420
0420
0820
0820
0820
1020
1020
2020
4020
80C0
ENDCHAR
STARTCHAR $3f4f
ENCODING 20995
SWIDTH 960 0
DWIDTH 14 0
BBX 12 13 1 -2
BITMAP
FFF0
0410
0410
0410
0410
3C10
0E10
0910
1090
1010
2010
4010
80E0
ENDCHAR
STARTCHAR $5163
ENCODING 20996
SWIDTH 960 0
DWIDTH 14 0
BBX 13 13 1 -2
BITMAP
FFE0
0420
0420
4420
2420
1420
0C20
0B20
08E0
1038
2020
4040
8380
ENDCHAR
STARTCHAR $4a2c
ENCODING 20998
SWIDTH 960 0
DWIDTH 14 0
BBX 13 14 1 -2
BITMAP
0F80
0080
1080
1040
2040
2020
7FD0
8448
0440
0440
0840
0840
1040
2180
ENDCHAR
STARTCHAR $405a
ENCODING 20999
SWIDTH 960 0
DWIDTH 14 0
BBX 12 14 1 -2
BITMAP
2000
23F0
2090
2690
3890
E090
2090
2090
2490
2510
1D10
0210
0C10
3060
ENDCHAR
STARTCHAR $3422
ENCODING 21000
SWIDTH 960 0
DWIDTH 14 0
BBX 12 14 1 -2
BITMAP
0410
0490
0490
4490
2490
1890
0890
0C90
1490
1290
2290
2010
4010
8030
ENDCHAR
STARTCHAR $3429
ENCODING 21002
SWIDTH 960 0
DWIDTH 14 0
BBX 12 14 1 -2
BITMAP
0010
FE90
1090
1090
1090
1090
FE90
1090
1090
1090
1090
1010
1010
1030
ENDCHAR
STARTCHAR $5164
ENCODING 21003
SWIDTH 960 0
DWIDTH 14 0
BBX 12 14 1 -2
BITMAP
0210
0C90
7890
0890
0890
0890
FF90
0890
0890
0890
1090
1010
2010
4030
ENDCHAR
STARTCHAR $5166
ENCODING 21006
SWIDTH 960 0
DWIDTH 14 0
BBX 12 14 1 -2
BITMAP
2010
2050
2050
3F50
5550
5550
9550
2550
2950
4950
1150
2210
0210
0C30
ENDCHAR
STARTCHAR $373a
ENCODING 21009
SWIDTH 960 0
DWIDTH 14 0
BBX 12 14 1 -2
BITMAP
0010
7F90
2490
2490
2490
2490
FF90
2490
2490
2490
2490
4410
4410
8430
ENDCHAR
STARTCHAR $5165
ENCODING 21012
SWIDTH 960 0
DWIDTH 14 0
BBX 12 14 1 -2
BITMAP
1010
1090
1090
7E90
1290
1290
1290
FF90
1090
1890
2490
2210
4210
8030
ENDCHAR
STARTCHAR $4e73
ENCODING 21015
SWIDTH 960 0
DWIDTH 14 0
BBX 12 14 1 -2
BITMAP
0010
FE90
1090
1090
1C90
2490
2490
5490
8C90
0890
0890
1010
2010
4030
ENDCHAR
STARTCHAR $3d69
ENCODING 21021
SWIDTH 960 0
DWIDTH 14 0
BBX 12 14 1 -2
BITMAP
1000
13F0
1090
FC90
0890
0A90
1290
3C90
5490
9290
1110
1110
1210
1460
ENDCHAR
STARTCHAR $483d
ENCODING 21028
SWIDTH 960 0
DWIDTH 14 0
BBX 12 14 1 -2
BITMAP
1010
9290
5290
5490
1090
FE90
1090
1090
FE90
1090
1090
1010
1010
1030
ENDCHAR
STARTCHAR $4a4c
ENCODING 21029
SWIDTH 960 0
DWIDTH 14 0
BBX 12 14 1 -2
BITMAP
0010
7E90
4290
4290
4290
7E90
1090
1090
1E90
1290
2290
2210
4210
8C30
ENDCHAR
STARTCHAR $5167
ENCODING 21031
SWIDTH 960 0
DWIDTH 14 0
BBX 12 14 1 -2
BITMAP
1000
13F0
1090
7C90
1090
1090
FE90
1090
1890
2490
2D10
F310
0210
0460
ENDCHAR
STARTCHAR $4d78
ENCODING 21033
SWIDTH 960 0
DWIDTH 14 0
BBX 12 14 1 -2
BITMAP
0210
0C90
7890
0890
0890
FE90
1890
1C90
2A90
2A90
4890
8810
0810
0830
ENDCHAR
STARTCHAR $5168
ENCODING 21034
SWIDTH 960 0
DWIDTH 14 0
BBX 12 14 1 -2
BITMAP
0010
7F50
5550
5550
5550
5550
FFD0
5550
5550
5550
5550
5510
5510
4330
ENDCHAR
STARTCHAR $5169
ENCODING 21038
SWIDTH 960 0
DWIDTH 14 0
BBX 12 14 1 -2
BITMAP
0210
0C90
7890
0890
0890
FF90
0890
0890
7E90
4290
4290
4210
7E10
0030
ENDCHAR
STARTCHAR $457e
ENCODING 21040
SWIDTH 960 0
DWIDTH 14 0
BBX 12 14 1 -2
BITMAP
0010
FF90
1090
1890
2490
FA90
1290
1090
FE90
1090
1090
1E10
E010
0030
ENDCHAR
STARTCHAR $516a
ENCODING 21043
SWIDTH 960 0
DWIDTH 14 0
BBX 12 14 1 -2
BITMAP
1010
1090
FE90
2890
4490
BA90
0090
FE90
2090
3C90
4490
0410
0410
1830
ENDCHAR
STARTCHAR $4029
ENCODING 21046
SWIDTH 960 0
DWIDTH 14 0
BBX 12 14 1 -2
BITMAP
2810
2890
3E90
4890
8890
FF90
0890
7E90
4A90
4A90
4A90
4C90
4810
0830
ENDCHAR
STARTCHAR $3a7e
ENCODING 21047
SWIDTH 960 0
DWIDTH 14 0
BBX 12 14 1 -2
BITMAP
0010
7E90
4290
4290
7E90
4890
4890
7E90
6A90
AA90
AA90
2E10
2810
0830
ENDCHAR
STARTCHAR $3774
ENCODING 21048
SWIDTH 960 0
DWIDTH 14 0
BBX 13 14 1 -2
BITMAP
0200
2220
1240
7FF0
0500
FFF8
0880
3060
DFD8
0440
0440
0840
1040
6180
ENDCHAR
STARTCHAR $516b
ENCODING 21049
SWIDTH 960 0
DWIDTH 14 0
BBX 12 14 1 -2
BITMAP
0410
0490
7890
0C90
3290
C890
0890
FE90
1890
1C90
2A90
4A10
8810
0830
ENDCHAR
STARTCHAR $3b49
ENCODING 21050
SWIDTH 960 0
DWIDTH 14 0
BBX 12 14 1 -2
BITMAP
0810
0890
FF90
0890
7E90
4A90
4A90
4E90
1890
1C90
2A90
4A10
8810
0830
ENDCHAR
STARTCHAR $396f
ENCODING 21051
SWIDTH 960 0
DWIDTH 14 0
BBX 12 14 1 -2
BITMAP
0810
0810
FF90
1090
1490
6490
1890
0A90
1290
2490
4C10
1210
2210
C030
ENDCHAR
STARTCHAR $4466
ENCODING 21059
SWIDTH 960 0
DWIDTH 14 0
BBX 12 14 1 -2
BITMAP
4410
2490
2890
FE90
1290
FE90
9090
FE90
B290
3290
5C90
9010
1010
1030
ENDCHAR
STARTCHAR $516d
ENCODING 21060
SWIDTH 960 0
DWIDTH 14 0
BBX 12 14 1 -2
BITMAP
0010
FE90
5490
5490
A890
A890
5490
5490
0090
FE90
1090
1010
1E10
F030
ENDCHAR
STARTCHAR $4227
ENCODING 21063
SWIDTH 960 0
DWIDTH 14 0
BBX 12 14 1 -2
BITMAP
0010
7C90
4490
4490
7C90
4490
7C90
4490
4490
7C90
2890
2410
4410
8030
ENDCHAR
STARTCHAR $3a6f
ENCODING 21066
SWIDTH 960 0
DWIDTH 14 0
BBX 12 14 1 -2
BITMAP
1010
9290
5290
5490
1090
7C90
4490
7C90
4490
7C90
4490
4410
4410
4C30
ENDCHAR
STARTCHAR $516e
ENCODING 21067
SWIDTH 960 0
DWIDTH 14 0
BBX 13 14 1 -2
BITMAP
1010
1090
1090
FE90
1090
7C90
4490
4490
7C90
2890
2810
2838
4808
87F8
ENDCHAR
STARTCHAR $516f
ENCODING 21068
SWIDTH 960 0
DWIDTH 14 0
BBX 12 14 1 -2
BITMAP
1010
1090
FE90
1090
FE90
9290
9290
FE90
1890
3490
3290
5210
9010
1030
ENDCHAR
STARTCHAR $4130
ENCODING 21069
SWIDTH 960 0
DWIDTH 14 0
BBX 13 14 1 -2
BITMAP
1040
0840
0880
FFF8
0000
7C90
4490
4490
7C90
4490
7C90
4490
4410
4C30
ENDCHAR
STARTCHAR $516c
ENCODING 21071
SWIDTH 960 0
DWIDTH 14 0
BBX 13 14 1 -2
BITMAP
4400
2400
2BF0
FC90
2890
2A90
2990
FE90
28D0
28B0
2918
4910
4A10
8C60
ENDCHAR
STARTCHAR $5171
ENCODING 21076
SWIDTH 960 0
DWIDTH 14 0
BBX 12 14 1 -2
BITMAP
0010
7E90
4290
7E90
4290
7E90
2090
3E90
5690
9690
2A90
4A10
1210
2C30
ENDCHAR
STARTCHAR $4b36
ENCODING 21078
SWIDTH 960 0
DWIDTH 14 0
BBX 12 14 1 -2
BITMAP
0810
0890
7F90
2290
1290
1490
FF90
0090
3E90
2290
2290
2210
3E10
0030
ENDCHAR
STARTCHAR $3964
ENCODING 21083
SWIDTH 960 0
DWIDTH 14 0
BBX 11 14 2 -2
BITMAP
0020
FEA0
CAA0
AAA0
B2A0
FEA0
92A0
D6A0
D6A0
D6A0
FEA0
8220
8220
8660
ENDCHAR
STARTCHAR $5170
ENCODING 21086
SWIDTH 960 0
DWIDTH 14 0
BBX 12 14 1 -2
BITMAP
0810
0890
FF90
1890
2490
4490
FF90
0290
7A90
4A90
4A90
7A10
0210
0630
ENDCHAR
STARTCHAR $3775
ENCODING 21091
SWIDTH 960 0
DWIDTH 14 0
BBX 12 14 1 -2
BITMAP
0810
0810
1490
2290
FF90
0890
7E90
4A90
7E90
4890
1490
1210
2210
C030
ENDCHAR
STARTCHAR $3a5e
ENCODING 21092
SWIDTH 960 0
DWIDTH 14 0
BBX 12 14 1 -2
BITMAP
0810
0890
FF90
2290
1C90
3790
E290
3E90
2290
3E90
2290
2210
4210
8230
ENDCHAR
STARTCHAR $476d
ENCODING 21093
SWIDTH 960 0
DWIDTH 14 0
BBX 12 14 1 -2
BITMAP
0010
7C90
0490
7C90
0490
FF90
0890
4A90
2A90
2C90
3A90
C910
0810
1830
ENDCHAR
STARTCHAR $5174
ENCODING 21097
SWIDTH 960 0
DWIDTH 14 0
BBX 12 14 1 -2
BITMAP
0110
7E50
0850
FFD0
2A50
EBD0
2A50
6AD0
B9D0
1C50
2A50
4910
8910
0830
ENDCHAR
STARTCHAR $5172
ENCODING 21098
SWIDTH 960 0
DWIDTH 14 0
BBX 13 14 1 -2
BITMAP
1040
0880
FFF8
7C90
5490
6C90
5490
5490
4C30
0000
FFF0
0410
1810
E0E0
ENDCHAR
STARTCHAR $497b
ENCODING 21103
SWIDTH 960 0
DWIDTH 14 0
BBX 12 14 1 -2
BITMAP
0010
FE90
0090
7C90
4490
7C90
0090
FE90
9290
FE90
9290
9210
FE10
8230
ENDCHAR
STARTCHAR $3e6a
ENCODING 21104
SWIDTH 960 0
DWIDTH 14 0
BBX 12 14 1 -2
BITMAP
0210
3C50
0850
7F50
2A50
FFD0
2A50
2A50
7F50
1C50
2A50
4A10
8810
0830
ENDCHAR
STARTCHAR $517b
ENCODING 21105
SWIDTH 960 0
DWIDTH 14 0
BBX 13 14 1 -2
BITMAP
1000
13F0
2890
2490
7C90
9290
7D90
5490
54D0
7CB0
2918
2510
4610
8460
ENDCHAR
STARTCHAR $3364
ENCODING 21106
SWIDTH 960 0
DWIDTH 14 0
BBX 12 14 1 -2
BITMAP
1010
FE90
9290
FE90
1090
7C90
1090
FE90
0090
7C90
4490
4410
4410
7C30
ENDCHAR
STARTCHAR $5175
ENCODING 21107
SWIDTH 960 0
DWIDTH 14 0
BBX 12 14 1 -2
BITMAP
2410
2490
FF90
2490
2890
1490
2290
3F90
4090
BE90
2290
2210
3E10
0030
ENDCHAR
STARTCHAR $5173
ENCODING 21108
SWIDTH 960 0
DWIDTH 14 0
BBX 12 14 1 -2
BITMAP
1010
5490
5490
7C90
0090
FE90
0090
7C90
4490
7C90
4490
2810
3C10
E030
ENDCHAR
STARTCHAR $414f
ENCODING 21109
SWIDTH 960 0
DWIDTH 14 0
BBX 12 14 1 -2
BITMAP
0810
0C90
1290
2990
7E90
A290
3E90
2290
3E90
2090
7E90
6210
BE10
0030
ENDCHAR
STARTCHAR $5177
ENCODING 21117
SWIDTH 960 0
DWIDTH 14 0
BBX 12 14 1 -2
BITMAP
0010
FE90
2890
FE90
AA90
FE90
0090
7C90
0090
FE90
5490
5210
9210
3030
ENDCHAR
STARTCHAR $5176
ENCODING 21119
SWIDTH 960 0
DWIDTH 14 0
BBX 12 14 1 -2
BITMAP
4910
9250
4950
7F50
4950
7F50
4950
7F50
0850
FFD0
1C50
2A10
C910
0830
ENDCHAR
STARTCHAR $3344
ENCODING 21123
SWIDTH 960 0
DWIDTH 14 0
BBX 12 14 1 -2
BITMAP
1010
7E90
1290
FF90
1290
7E90
1090
FF90
5290
7E90
5290
7E10
0E10
F030
ENDCHAR
STARTCHAR $3760
ENCODING 21127
SWIDTH 960 0
DWIDTH 14 0
BBX 12 14 1 -2
BITMAP
0810
0F50
7FD0
4D50
7750
7F50
4D50
7950
4E50
7650
4D50
7510
8410
1830
ENDCHAR
STARTCHAR $517c
ENCODING 21128
SWIDTH 960 0
DWIDTH 14 0
BBX 13 14 1 -2
BITMAP
0040
7C40
45F0
7CA0
43F8
7C40
65F0
BC40
2040
7FF0
0210
0410
1810
60E0
ENDCHAR
STARTCHAR $4e2d
ENCODING 21129
SWIDTH 960 0
DWIDTH 14 0
BBX 13 14 1 -2
BITMAP
1008
6F48
6548
5548
7948
CB48
1448
3E48
C948
7F48
2A48
1C08
0F08
F018
ENDCHAR
STARTCHAR $5178
ENCODING 21133
SWIDTH 960 0
DWIDTH 14 0
BBX 12 14 1 -2
BITMAP
0810
0890
1490
2290
7E90
8090
7E90
5A90
7E90
2490
3490
2A10
4910
9130
ENDCHAR
STARTCHAR $517d
ENCODING 21137
SWIDTH 960 0
DWIDTH 14 0
BBX 12 14 1 -2
BITMAP
0810
FFD0
1550
FE50
5D50
5DD0
7ED0
A250
3E50
2250
3E50
2210
4210
8230
ENDCHAR
STARTCHAR $517a
ENCODING 21138
SWIDTH 960 0
DWIDTH 14 0
BBX 12 14 1 -2
BITMAP
0800
09F0
1450
2250
7ED0
80D0
7F50
5B50
7E50
2450
2490
5A90
4B10
9260
ENDCHAR
STARTCHAR $5179
ENCODING 21140
SWIDTH 960 0
DWIDTH 14 0
BBX 13 14 1 -2
BITMAP
0800
09F0
1450
2350
7F50
80D0
7ED0
5A50
7E70
2450
2498
5A90
4B10
9260
ENDCHAR
STARTCHAR $4e4f
ENCODING 21147
SWIDTH 960 0
DWIDTH 14 0
BBX 12 14 1 -2
BITMAP
0400
0400
0400
0400
FFF0
0410
0410
0410
0810
0810
1010
2010
4010
8060
ENDCHAR
STARTCHAR $3879
ENCODING 21151
SWIDTH 960 0
DWIDTH 14 0
BBX 12 14 1 -2
BITMAP
0100
0100
0100
F900
27F0
2110
2110
2110
2110
2A10
3210
C210
0410
0860
ENDCHAR
STARTCHAR $3243
ENCODING 21152
SWIDTH 960 0
DWIDTH 14 0
BBX 13 14 1 -2
BITMAP
1000
1000
1000
10F8
FE88
1288
1288
1288
1288
1288
2288
22F8
4200
8C00
ENDCHAR
STARTCHAR $4e74
ENCODING 21155
SWIDTH 960 0
DWIDTH 14 0
BBX 13 14 1 -2
BITMAP
0200
1240
1220
2250
4688
0308
0D00
F100
1FF0
0210
0410
0810
3010
C060
ENDCHAR
STARTCHAR $3d75
ENCODING 21161
SWIDTH 960 0
DWIDTH 14 0
BBX 12 14 1 -2
BITMAP
0080
7880
4880
4FF0
7890
4890
4890
7890
4890
4890
4D10
7110
C210
0460
ENDCHAR
STARTCHAR $4558
ENCODING 21162
SWIDTH 960 0
DWIDTH 14 0
BBX 13 14 1 -2
BITMAP
1000
13F0
FD10
2490
24A0
7840
0DA0
7218
0200
7FE0
0220
0420
1820
61C0
ENDCHAR
STARTCHAR $3965
ENCODING 21163
SWIDTH 960 0
DWIDTH 14 0
BBX 12 14 1 -2
BITMAP
1080
1080
1080
7C80
13F0
1090
FE90
1090
1890
2490
2D10
F310
0210
0460
ENDCHAR
STARTCHAR $5222
ENCODING 21164
SWIDTH 960 0
DWIDTH 14 0
BBX 12 14 1 -2
BITMAP
2080
2080
2080
3C80
47F0
4490
F490
5490
5490
5490
7510
4510
0610
1C60
ENDCHAR
STARTCHAR $5223
ENCODING 21165
SWIDTH 960 0
DWIDTH 14 0
BBX 12 14 1 -2
BITMAP
0080
FC80
2480
2480
27F0
4490
9890
0090
7C90
4490
4510
4510
7E10
0460
ENDCHAR
STARTCHAR $4e65
ENCODING 21169
SWIDTH 960 0
DWIDTH 14 0
BBX 13 14 1 -2
BITMAP
0340
3C40
2040
2040
3FF8
2848
2848
2E48
2A48
2A48
2A88
5288
5308
AE30
ENDCHAR
STARTCHAR $4f2b
ENCODING 21172
SWIDTH 960 0
DWIDTH 14 0
BBX 13 14 1 -2
BITMAP
2420
1220
1240
FFF8
8008
8208
0200
7FE0
0220
0420
0420
0820
3020
C0C0
ENDCHAR
STARTCHAR $5225
ENCODING 21173
SWIDTH 960 0
DWIDTH 14 0
BBX 13 14 1 -2
BITMAP
0200
1240
1220
3FF0
4210
0500
FFF8
0C80
1440
3FE0
C458
0840
1040
2180
ENDCHAR
STARTCHAR $387a
ENCODING 21177
SWIDTH 960 0
DWIDTH 14 0
BBX 12 14 1 -2
BITMAP
1080
1080
1080
FE80
29F0
2490
4690
A490
1890
0890
1510
2510
4210
8460
ENDCHAR
STARTCHAR $5224
ENCODING 21180
SWIDTH 960 0
DWIDTH 14 0
BBX 12 14 1 -2
BITMAP
1080
1080
1080
FE80
13F0
1090
7C90
0090
7C90
4490
4510
4510
7E10
0460
ENDCHAR
STARTCHAR $332f
ENCODING 21182
SWIDTH 960 0
DWIDTH 14 0
BBX 12 14 1 -2
BITMAP
1080
1080
FE80
2080
2BF0
C890
3090
1490
2490
4890
1910
2510
4210
8460
ENDCHAR
STARTCHAR $5226
ENCODING 21185
SWIDTH 960 0
DWIDTH 14 0
BBX 12 14 1 -2
BITMAP
0080
FE80
5480
5480
ABF0
A890
5490
5490
0090
FE90
1090
1110
1D10
F260
ENDCHAR
STARTCHAR $4b56
ENCODING 21187
SWIDTH 960 0
DWIDTH 14 0
BBX 12 14 1 -2
BITMAP
1080
1080
7E80
1080
FFF0
8290
FC90
0890
1090
1C90
F110
1110
1210
3460
ENDCHAR
STARTCHAR $443c
ENCODING 21189
SWIDTH 960 0
DWIDTH 14 0
BBX 12 14 1 -2
BITMAP
1080
1080
FE80
1080
7FF0
5490
5490
7C90
3890
3490
5510
9110
1210
1460
ENDCHAR
STARTCHAR $4d26
ENCODING 21191
SWIDTH 960 0
DWIDTH 14 0
BBX 12 13 1 -2
BITMAP
3FC0
0980
0600
3FE0
2220
3FE0
2220
3FE0
0200
FFF0
0410
1810
E0E0
ENDCHAR
STARTCHAR $4a59
ENCODING 21193
SWIDTH 960 0
DWIDTH 14 0
BBX 13 14 1 -2
BITMAP
1080
1080
3C80
4880
FFF0
5490
5490
7C90
5910
1910
2A10
2C68
4808
87F8
ENDCHAR
STARTCHAR $5227
ENCODING 21197
SWIDTH 960 0
DWIDTH 14 0
BBX 12 14 1 -2
BITMAP
1080
1080
FE80
0080
7FF0
4490
4490
7C90
1090
5890
5510
5510
9210
3460
ENDCHAR
STARTCHAR $7055
ENCODING 21202
SWIDTH 960 0
DWIDTH 14 0
BBX 12 14 1 -2
BITMAP
2880
2880
FE80
2880
3BF0
1090
7C90
5490
7C90
1090
FF10
1110
1210
1460
ENDCHAR
STARTCHAR $4630
ENCODING 21205
SWIDTH 960 0
DWIDTH 14 0
BBX 13 14 0 -2
BITMAP
0640
3840
0840
FFF8
0848
3E48
2A48
3E48
2A48
3E48
0888
3E88
0F08
7230
ENDCHAR
STARTCHAR $5228
ENCODING 21207
SWIDTH 960 0
DWIDTH 14 0
BBX 12 13 1 -2
BITMAP
3FE0
2020
3FE0
2020
3FE0
7C80
4480
7FF0
4490
7C90
4510
7F10
C260
ENDCHAR
STARTCHAR $342a
ENCODING 21208
SWIDTH 960 0
DWIDTH 14 0
BBX 12 14 1 -2
BITMAP
2480
2480
FE80
25F0
3C90
2490
3C90
2490
FF90
5890
5A90
6710
7F10
0260
ENDCHAR
STARTCHAR $4c33
ENCODING 21209
SWIDTH 960 0
DWIDTH 14 0
BBX 13 14 1 -2
BITMAP
0100
7D00
09F8
3320
14A0
FC40
15A0
3698
3880
57F0
9090
1110
1210
3460
ENDCHAR
STARTCHAR $3e21
ENCODING 21213
SWIDTH 960 0
DWIDTH 14 0
BBX 13 14 1 -2
BITMAP
0080
7C90
4AA0
4FF0
4880
7FF8
4940
4AA0
7C90
4FE8
4920
4920
4A20
9CC0
ENDCHAR
STARTCHAR $5229
ENCODING 21214
SWIDTH 960 0
DWIDTH 14 0
BBX 13 14 1 -2
BITMAP
1040
1860
5550
5550
B2C0
28A0
4510
7FF8
4410
BFE0
0420
0820
1020
60C0
ENDCHAR
STARTCHAR $4a67
ENCODING 21215
SWIDTH 960 0
DWIDTH 14 0
BBX 13 14 1 -2
BITMAP
0880
FFF8
0880
1FC0
1040
1FC0
1040
1FC0
FFF8
0A80
3FE0
C258
0C40
3180
ENDCHAR
STARTCHAR $522d
ENCODING 21216
SWIDTH 960 0
DWIDTH 14 0
BBX 12 14 1 -2
BITMAP
0080
FE80
5680
BA80
57F0
9A90
3490
C290
1290
6890
1510
6910
1210
6460
ENDCHAR
STARTCHAR $402a
ENCODING 21218
SWIDTH 960 0
DWIDTH 14 0
BBX 13 14 1 -2
BITMAP
1080
7C80
13E0
FEA0
2BA0
56A0
FCE0
1128
FE18
0200
7FE0
0420
1820
61C0
ENDCHAR
STARTCHAR $522a
ENCODING 21219
SWIDTH 960 0
DWIDTH 14 0
BBX 12 14 1 -2
BITMAP
1080
FE80
1080
7C80
11F0
FE90
4490
7C90
4490
7C90
4490
7D10
2510
C260
ENDCHAR
STARTCHAR $3650
ENCODING 21220
SWIDTH 960 0
DWIDTH 14 0
BBX 12 14 1 -2
BITMAP
2880
FE80
2880
7C80
57F0
5490
7C90
1090
7C90
1090
7C90
1110
1D10
F260
ENDCHAR
STARTCHAR $522b
ENCODING 21222
SWIDTH 960 0
DWIDTH 14 0
BBX 12 14 1 -2
BITMAP
5480
A880
5480
7C80
57F0
7C90
5490
7C90
1090
FC90
3910
5510
9210
1460
ENDCHAR
STARTCHAR $342b
ENCODING 21223
SWIDTH 960 0
DWIDTH 14 0
BBX 12 14 1 -2
BITMAP
2080
2080
7E80
51F0
BE90
2890
7E90
C890
7E90
4890
7E90
4910
7F10
0260
ENDCHAR
STARTCHAR $372e
ENCODING 21234
SWIDTH 960 0
DWIDTH 14 0
BBX 13 14 1 -2
BITMAP
0480
7880
1080
FFF0
5490
7C90
5490
FE90
1110
1F10
F260
0000
4910
8488
ENDCHAR
STARTCHAR $522e
ENCODING 21235
SWIDTH 960 0
DWIDTH 14 0
BBX 12 14 1 -2
BITMAP
0C80
7080
FE80
1080
FFF0
D690
BA90
FE90
1090
FE90
1090
FD10
7510
AA60
ENDCHAR
STARTCHAR $522f
ENCODING 21237
SWIDTH 960 0
DWIDTH 14 0
BBX 12 14 1 -2
BITMAP
0040
7F40
4A40
7F40
4AF0
5F50
5550
5F50
5550
5F50
7FD0
66D0
7F90
A1B0
ENDCHAR
STARTCHAR $5230
ENCODING 21240
SWIDTH 960 0
DWIDTH 14 0
BBX 12 14 1 -2
BITMAP
2880
FE80
2880
EE80
ABF0
EE90
4890
7E90
4890
FC90
4890
7D10
4910
7E60
ENDCHAR
STARTCHAR $5231
ENCODING 21241
SWIDTH 960 0
DWIDTH 14 0
BBX 12 14 1 -2
BITMAP
1000
1000
1000
1FF0
2010
2010
4010
8010
0010
0010
0010
0010
0020
00C0
ENDCHAR
STARTCHAR $3c5b
ENCODING 21242
SWIDTH 960 0
DWIDTH 14 0
BBX 12 14 1 -2
BITMAP
1000
1000
1000
1FF0
2010
2010
4810
8410
0210
0210
0010
0010
0010
0060
ENDCHAR
STARTCHAR $387b
ENCODING 21246
SWIDTH 960 0
DWIDTH 14 0
BBX 12 14 1 -2
BITMAP
1000
1000
1000
3FF0
2410
4410
8410
0610
0910
0B90
7C90
0010
0010
0060
ENDCHAR
STARTCHAR $4c5e
ENCODING 21247
SWIDTH 960 0
DWIDTH 14 0
BBX 12 14 1 -2
BITMAP
1000
1000
1000
1FF0
2490
2490
4490
8890
0890
1110
2110
0210
0410
0060
ENDCHAR
STARTCHAR $4c68
ENCODING 21249
SWIDTH 960 0
DWIDTH 14 0
BBX 13 14 1 -2
BITMAP
1000
1000
1000
1FE0
1220
2A20
2620
4220
85A0
0460
0838
1020
2040
0180
ENDCHAR
STARTCHAR $4677
ENCODING 21250
SWIDTH 960 0
DWIDTH 14 0
BBX 12 14 1 -2
BITMAP
1000
1000
1000
3FF0
2010
5010
9310
1C10
1010
1090
1090
0F90
0010
0060
ENDCHAR
STARTCHAR $4a71
ENCODING 21253
SWIDTH 960 0
DWIDTH 14 0
BBX 13 14 1 -2
BITMAP
1000
1000
1000
3FF0
2010
7F10
8110
0110
3F10
2160
2000
2008
2008
1FF8
ENDCHAR
STARTCHAR $5232
ENCODING 21254
SWIDTH 960 0
DWIDTH 14 0
BBX 12 14 1 -2
BITMAP
1000
1000
1000
1FF0
2490
2490
5C90
8B90
0890
1150
2110
0210
0420
00C0
ENDCHAR
STARTCHAR $5233
ENCODING 21256
SWIDTH 960 0
DWIDTH 14 0
BBX 12 14 1 -2
BITMAP
1000
1000
1000
1FF0
2010
2210
7290
AE90
2690
2990
3090
3F90
2090
0060
ENDCHAR
STARTCHAR $5235
ENCODING 21261
SWIDTH 960 0
DWIDTH 14 0
BBX 12 14 1 -2
BITMAP
1000
1000
3FF0
2490
7FD0
8410
3F90
2490
3F90
2490
3F90
2490
2590
0060
ENDCHAR
STARTCHAR $5237
ENCODING 21263
SWIDTH 960 0
DWIDTH 14 0
BBX 13 14 1 -2
BITMAP
1080
1080
FE80
29F0
2510
7FD0
8150
FD50
21D0
3D60
4500
0508
0508
18F8
ENDCHAR
STARTCHAR $5236
ENCODING 21264
SWIDTH 960 0
DWIDTH 14 0
BBX 12 14 1 -2
BITMAP
1000
1000
3FF0
2010
7F90
9110
1F10
0010
3F90
2490
3F90
2490
3F90
0060
ENDCHAR
STARTCHAR $5238
ENCODING 21269
SWIDTH 960 0
DWIDTH 14 0
BBX 13 14 1 -2
BITMAP
2000
2000
2010
2020
2040
2180
2600
3800
E000
2000
2008
2008
1008
0FF8
ENDCHAR
STARTCHAR $323d
ENCODING 21270
SWIDTH 960 0
DWIDTH 14 0
BBX 13 14 1 -2
BITMAP
0900
0900
0910
1110
1120
3140
5180
9100
1100
1100
1100
1108
1108
10F8
ENDCHAR
STARTCHAR $4b4c
ENCODING 21271
SWIDTH 960 0
DWIDTH 14 0
BBX 13 14 1 -2
BITMAP
0900
0900
0910
0910
F920
0940
0980
0900
0900
3900
C900
0908
0908
08F8
ENDCHAR
STARTCHAR $3a7c
ENCODING 21273
SWIDTH 960 0
DWIDTH 14 0
BBX 13 14 1 -2
BITMAP
0080
3E80
2280
3E90
2290
3EA0
00C0
FF80
0880
2E88
2888
3878
4C00
83F8
ENDCHAR
STARTCHAR $5239
ENCODING 21274
SWIDTH 960 0
DWIDTH 14 0
BBX 12 12 2 -1
BITMAP
FFE0
8000
8000
8000
8000
8000
8000
8000
8000
8000
8000
FFF0
ENDCHAR
STARTCHAR $4159
ENCODING 21277
SWIDTH 960 0
DWIDTH 14 0
BBX 12 12 2 -1
BITMAP
FFF0
8200
8200
9FC0
9240
9240
9240
9240
9240
9380
8200
FFF0
ENDCHAR
STARTCHAR $3e22
ENCODING 21280
SWIDTH 960 0
DWIDTH 14 0
BBX 12 12 2 -1
BITMAP
FFE0
8080
8300
9C00
9000
9FE0
9100
9100
A100
A100
C100
FFF0
ENDCHAR
STARTCHAR $3629
ENCODING 21281
SWIDTH 960 0
DWIDTH 14 0
BBX 12 12 2 -1
BITMAP
FFF0
8000
BFE0
8200
8200
9FC0
8200
8200
8200
BFE0
8000
FFF0
ENDCHAR
STARTCHAR $523a
ENCODING 21283
SWIDTH 960 0
DWIDTH 14 0
BBX 12 12 2 -1
BITMAP
FFE0
8000
9FC0
9240
9FC0
9240
9240
9FC0
8200
8200
8200
FFF0
ENDCHAR
STARTCHAR $485b
ENCODING 21290
SWIDTH 960 0
DWIDTH 14 0
BBX 12 13 2 -2
BITMAP
FFF0
8500
8500
BDE0
8500
BDE0
8500
BDE0
8900
8900
9100
FFF0
8000
ENDCHAR
STARTCHAR $523b
ENCODING 21295
SWIDTH 960 0
DWIDTH 14 0
BBX 12 12 2 -1
BITMAP
FFE0
A240
9280
D7E0
AC80
A7E0
8480
97E0
9480
A7E0
A000
FFF0
ENDCHAR
STARTCHAR $523c
ENCODING 21297
SWIDTH 960 0
DWIDTH 14 0
BBX 12 12 2 -1
BITMAP
FFF0
8200
9FC0
9240
FFF0
9040
9FC0
9FC0
9040
9FC0
B060
FFF0
ENDCHAR
STARTCHAR $523d
ENCODING 21299
SWIDTH 960 0
DWIDTH 14 0
BBX 12 12 2 -1
BITMAP
FFE0
8200
8500
9FC0
E020
9DC0
9540
9DC0
8880
9540
A620
FFF0
ENDCHAR
STARTCHAR $523e
ENCODING 21304
SWIDTH 960 0
DWIDTH 14 0
BBX 13 12 1 -1
BITMAP
FFF8
2000
2000
2000
2000
2000
2000
2000
2000
2000
1000
0FF0
ENDCHAR
STARTCHAR $4924
ENCODING 21305
SWIDTH 960 0
DWIDTH 14 0
BBX 12 13 2 -2
BITMAP
FFE0
8900
8900
8900
8900
8900
9120
9120
A0E0
C000
8000
FFF0
8000
ENDCHAR
STARTCHAR $3668
ENCODING 21306
SWIDTH 960 0
DWIDTH 14 0
BBX 12 12 2 -1
BITMAP
FFE0
8080
8080
8100
B100
8E00
8200
8500
8880
9080
A000
FFF0
ENDCHAR
STARTCHAR $3065
ENCODING 21307
SWIDTH 960 0
DWIDTH 14 0
BBX 12 13 2 -2
BITMAP
FFE0
8800
8800
9FC0
9200
A200
FFE0
8500
8480
8840
B040
8000
FFF0
ENDCHAR
STARTCHAR $463f
ENCODING 21311
SWIDTH 960 0
DWIDTH 14 0
BBX 12 12 2 -1
BITMAP
FFF0
8900
BFC0
8900
8400
FFE0
8800
9FC0
A840
CFC0
8000
FFF0
ENDCHAR
STARTCHAR $523f
ENCODING 21312
SWIDTH 960 0
DWIDTH 14 0
BBX 13 12 1 -1
BITMAP
FFF0
4000
47C0
4440
47C0
4000
5EF0
5290
5290
5EF0
4000
7FF8
ENDCHAR
STARTCHAR $3d3d
ENCODING 21313
SWIDTH 960 0
DWIDTH 14 0
BBX 13 14 1 -2
BITMAP
0200
0200
0200
0200
0200
0200
FFF8
0200
0200
0200
0200
0200
0200
0200
ENDCHAR
STARTCHAR $4069
ENCODING 21315
SWIDTH 960 0
DWIDTH 14 0
BBX 13 14 1 -2
BITMAP
0040
0180
3E00
0200
0200
0200
FFF8
0200
0200
0200
0200
0200
0200
0200
ENDCHAR
STARTCHAR $5241
ENCODING 21317
SWIDTH 960 0
DWIDTH 14 0
BBX 13 14 1 -2
BITMAP
2220
2220
2220
2220
2220
2220
FFF8
2220
2220
2220
2220
4220
4220
8020
ENDCHAR
STARTCHAR $5240
ENCODING 21318
SWIDTH 960 0
DWIDTH 14 0
BBX 13 14 1 -2
BITMAP
0400
0400
7F80
0880
0888
1088
2278
4200
0200
FFF8
0200
0200
0200
0200
ENDCHAR
STARTCHAR $3e23
ENCODING 21319
SWIDTH 960 0
DWIDTH 14 0
BBX 13 14 1 -2
BITMAP
0280
0C80
7880
0880
0880
0880
FFF8
0880
0880
1080
1080
2080
4080
8080
ENDCHAR
STARTCHAR $3861
ENCODING 21320
SWIDTH 960 0
DWIDTH 14 0
BBX 13 14 1 -2
BITMAP
1000
1000
1FE0
2200
2200
4200
0200
FFF8
0200
0200
0200
0200
0200
0200
ENDCHAR
STARTCHAR $5243
ENCODING 21321
SWIDTH 960 0
DWIDTH 14 0
BBX 13 14 1 -2
BITMAP
0200
0200
0200
7FF0
0200
1240
1240
1040
FFF8
1040
1040
2040
2040
4040
ENDCHAR
STARTCHAR $483e
ENCODING 21322
SWIDTH 960 0
DWIDTH 14 0
BBX 13 14 1 -2
BITMAP
0200
0200
2220
1220
1240
7FF0
0200
0200
FFF8
0200
0200
0200
0200
0200
ENDCHAR
STARTCHAR $5244
ENCODING 21325
SWIDTH 960 0
DWIDTH 14 0
BBX 11 12 2 -1
BITMAP
FC20
0420
0420
0420
0420
FFE0
8400
8400
8400
8400
8400
87E0
ENDCHAR
STARTCHAR $485c
ENCODING 21329
SWIDTH 960 0
DWIDTH 14 0
BBX 13 14 1 -2
BITMAP
0400
0800
3FE0
2220
2220
3FE0
2220
3FE0
0880
1080
FFF8
0080
0080
0080
ENDCHAR
STARTCHAR $4234
ENCODING 21330
SWIDTH 960 0
DWIDTH 14 0
BBX 13 14 1 -2
BITMAP
0200
0200
FFF8
1080
1080
18C0
2520
4620
0200
FFF8
0200
0200
0200
0200
ENDCHAR
STARTCHAR $426e
ENCODING 21331
SWIDTH 960 0
DWIDTH 14 0
BBX 13 14 1 -2
BITMAP
0200
0200
03F0
0200
3FE0
2020
3FE0
2020
3FE0
0200
FFF8
0200
0200
0200
ENDCHAR
STARTCHAR $3628
ENCODING 21332
SWIDTH 960 0
DWIDTH 14 0
BBX 13 14 1 -2
BITMAP
2080
2080
27F0
2090
F910
2210
2460
2420
3FF8
2528
2528
2948
2948
3398
ENDCHAR
STARTCHAR $466e
ENCODING 21335
SWIDTH 960 0
DWIDTH 14 0
BBX 13 14 1 -2
BITMAP
0200
0200
FFF8
0200
0200
7FF0
4890
4510
5FD0
4210
5FD0
4210
4210
4230
ENDCHAR
STARTCHAR $4331
ENCODING 21336
SWIDTH 960 0
DWIDTH 14 0
BBX 13 14 1 -2
BITMAP
2420
1220
1240
3FE0
2220
3FE0
2220
2220
3FE0
0200
FFF8
0200
0200
0200
ENDCHAR
STARTCHAR $476e
ENCODING 21338
SWIDTH 960 0
DWIDTH 14 0
BBX 13 14 1 -2
BITMAP
2090
2FF8
2080
27F0
FC90
27F0
2490
27F0
2020
2FF8
2220
2120
2020
2060
ENDCHAR
STARTCHAR $4b4e
ENCODING 21340
SWIDTH 960 0
DWIDTH 14 0
BBX 5 14 6 -2
BITMAP
80
80
80
80
C0
A0
90
88
88
80
80
80
80
80
ENDCHAR
STARTCHAR $5246
ENCODING 21342
SWIDTH 960 0
DWIDTH 14 0
BBX 13 14 1 -2
BITMAP
0200
0200
FFF8
0200
0200
0300
0280
0240
0220
0220
0200
0200
0200
0200
ENDCHAR
STARTCHAR $406a
ENCODING 21344
SWIDTH 960 0
DWIDTH 14 0
BBX 11 13 2 -1
BITMAP
0800
0800
0800
0FE0
0800
0800
0800
FFC0
8040
8040
8040
8040
FFC0
ENDCHAR
STARTCHAR $3735
ENCODING 21350
SWIDTH 960 0
DWIDTH 14 0
BBX 13 14 1 -2
BITMAP
0840
0840
0840
7F40
0840
0860
FFD0
0848
0848
7F40
0840
0840
0F40
F840
ENDCHAR
STARTCHAR $5247
ENCODING 21353
SWIDTH 960 0
DWIDTH 14 0
BBX 7 13 4 -2
BITMAP
FE
82
82
82
82
82
82
82
82
9C
80
80
80
ENDCHAR
STARTCHAR $5248
ENCODING 21358
SWIDTH 960 0
DWIDTH 14 0
BBX 13 14 1 -2
BITMAP
0030
01C0
3E00
2000
3FF8
2000
27E0
2420
2420
2420
24C0
4408
4408
83F8
ENDCHAR
STARTCHAR $312c
ENCODING 21359
SWIDTH 960 0
DWIDTH 14 0
BBX 12 14 1 -2
BITMAP
0400
1800
61F0
4510
4510
4510
4510
4510
4510
7D10
C9E0
0900
1100
2100
ENDCHAR
STARTCHAR $3075
ENCODING 21360
SWIDTH 960 0
DWIDTH 14 0
BBX 11 14 2 -2
BITMAP
0400
1800
E3E0
8220
8220
FA20
8220
8220
8220
FA20
83C0
0200
0200
0200
ENDCHAR
STARTCHAR $346d
ENCODING 21361
SWIDTH 960 0
DWIDTH 14 0
BBX 13 14 1 -2
BITMAP
0400
0FC0
3180
C200
3FF8
2000
27E0
2420
2420
2420
24C0
4408
4408
83F8
ENDCHAR
STARTCHAR $4228
ENCODING 21363
SWIDTH 960 0
DWIDTH 14 0
BBX 12 13 1 -2
BITMAP
7DF0
4510
4510
7D10
4510
4510
7D10
5110
4910
4D10
75E0
C500
0100
ENDCHAR
STARTCHAR $3551
ENCODING 21364
SWIDTH 960 0
DWIDTH 14 0
BBX 12 14 1 -2
BITMAP
1000
10F0
1090
7E90
1090
1090
FF90
1090
1890
2490
26E0
FA80
0280
0080
ENDCHAR
STARTCHAR $4d71
ENCODING 21365
SWIDTH 960 0
DWIDTH 14 0
BBX 12 14 1 -2
BITMAP
0400
1800
65F0
4510
6590
5550
5550
4510
4510
5D10
E9E0
0900
1100
2100
ENDCHAR
STARTCHAR $524b
ENCODING 21367
SWIDTH 960 0
DWIDTH 14 0
BBX 13 14 1 -2
BITMAP
0200
1240
1220
3FE0
0500
FFF8
0880
1040
2FA0
C898
0880
0B00
0820
07E0
ENDCHAR
STARTCHAR $3237
ENCODING 21368
SWIDTH 960 0
DWIDTH 14 0
BBX 12 14 1 -2
BITMAP
2000
20F0
3E90
4890
8890
FF90
0890
4E90
4890
4890
4EE0
7880
C080
0080
ENDCHAR
STARTCHAR $524a
ENCODING 21371
SWIDTH 960 0
DWIDTH 14 0
BBX 12 14 1 -2
BITMAP
1000
18F0
2490
4290
9290
1890
2490
2290
7E90
A490
24E0
2480
3C80
2080
ENDCHAR
STARTCHAR $362a
ENCODING 21375
SWIDTH 960 0
DWIDTH 14 0
BBX 12 14 1 -2
BITMAP
1000
6770
4550
5550
5750
5550
5550
5750
5450
7650
D550
27E0
2C40
4040
ENDCHAR
STARTCHAR $524c
ENCODING 21378
SWIDTH 960 0
DWIDTH 14 0
BBX 13 13 1 -2
BITMAP
3FF8
2000
2000
2000
2000
2000
2000
2000
2000
2000
4000
4000
8000
ENDCHAR
STARTCHAR $4c71
ENCODING 21380
SWIDTH 960 0
DWIDTH 14 0
BBX 13 13 1 -2
BITMAP
3FF8
2000
2000
27E0
2420
2420
2420
2420
24C0
2400
4408
4408
83F8
ENDCHAR
STARTCHAR $524d
ENCODING 21398
SWIDTH 960 0
DWIDTH 14 0
BBX 13 13 1 -2
BITMAP
3FF8
2620
2520
2550
2450
3FA0
2428
2648
2610
4A20
4A48
9208
21F8
ENDCHAR
STARTCHAR $4e52
ENCODING 21400
SWIDTH 960 0
DWIDTH 14 0
BBX 13 13 1 -2
BITMAP
3FF8
2000
2FE0
2920
2FE0
2920
2FE0
2100
2FE0
2100
4100
7FF8
8000
ENDCHAR
STARTCHAR $387c
ENCODING 21402
SWIDTH 960 0
DWIDTH 14 0
BBX 13 13 1 -2
BITMAP
3FF8
27E0
2420
27E0
2420
27E0
2000
27E0
2040
5FF8
4080
8080
0180
ENDCHAR
STARTCHAR $3836
ENCODING 21407
SWIDTH 960 0
DWIDTH 14 0
BBX 13 13 1 -2
BITMAP
3FF8
2100
27E0
2420
27E0
2420
27E0
2100
2540
4520
4910
9110
0300
ENDCHAR
STARTCHAR $524e
ENCODING 21408
SWIDTH 960 0
DWIDTH 14 0
BBX 13 13 1 -2
BITMAP
3FF8
2000
2F10
2950
2F50
2950
2F50
2950
2950
2F50
4650
4910
9130
ENDCHAR
STARTCHAR $5250
ENCODING 21413
SWIDTH 960 0
DWIDTH 14 0
BBX 13 13 1 -2
BITMAP
3FF8
3140
2940
2A40
3FF8
24A8
3530
3520
3F20
3560
4450
4890
9108
ENDCHAR
STARTCHAR $524f
ENCODING 21414
SWIDTH 960 0
DWIDTH 14 0
BBX 13 13 1 -2
BITMAP
3FF8
2FF0
2100
27E0
2420
27E0
27E0
2420
27E0
23E0
4E40
41C0
9E70
ENDCHAR
STARTCHAR $3f5f
ENCODING 21416
SWIDTH 960 0
DWIDTH 14 0
BBX 13 13 1 -2
BITMAP
3FF8
2010
3F90
2010
2F10
29F8
2990
2F50
2950
2510
4610
4710
9830
ENDCHAR
STARTCHAR $3139
ENCODING 21417
SWIDTH 960 0
DWIDTH 14 0
BBX 13 13 1 -2
BITMAP
7FF8
4000
5EF0
52A0
5EA0
52A0
5FF8
5060
5460
52A0
56A8
9928
6218
ENDCHAR
STARTCHAR $315e
ENCODING 21421
SWIDTH 960 0
DWIDTH 14 0
BBX 13 13 1 -2
BITMAP
7FF8
4000
5E50
5248
5E40
41F8
5E40
5240
5E40
52E0
5EA0
5310
9608
ENDCHAR
STARTCHAR $5251
ENCODING 21422
SWIDTH 960 0
DWIDTH 14 0
BBX 13 13 1 -2
BITMAP
3FF8
2A10
2A20
3FC0
2A80
2EF8
2AA0
2EA0
2AA0
3FA0
4AA0
4920
9120
ENDCHAR
STARTCHAR $5252
ENCODING 21424
SWIDTH 960 0
DWIDTH 14 0
BBX 13 13 1 -2
BITMAP
3FF8
2440
2E40
2D40
35F8
3F90
3150
3F50
3B20
3B20
5F50
5190
9308
ENDCHAR
STARTCHAR $3837
ENCODING 21427
SWIDTH 960 0
DWIDTH 14 0
BBX 13 14 1 -2
BITMAP
1210
0920
3FF8
2040
3F40
2440
3F78
2A90
2F50
2E60
4A20
7E60
8290
0308
ENDCHAR
STARTCHAR $5253
ENCODING 21430
SWIDTH 960 0
DWIDTH 14 0
BBX 13 14 1 -2
BITMAP
0200
0200
0200
0200
0200
0400
0400
0400
0840
0820
1010
21F0
FE08
0008
ENDCHAR
STARTCHAR $356e
ENCODING 21435
SWIDTH 960 0
DWIDTH 14 0
BBX 13 14 1 -2
BITMAP
0200
0200
0200
3FE0
0200
0200
0200
FFF8
0400
0480
0840
11E0
7E10
0010
ENDCHAR
STARTCHAR $3b32
ENCODING 21442
SWIDTH 960 0
DWIDTH 14 0
BBX 13 14 1 -2
BITMAP
0400
0500
08C0
7F20
0400
FFF8
0980
1240
2CA0
C318
1C40
0080
0300
3C00
ENDCHAR
STARTCHAR $5254
ENCODING 21443
SWIDTH 960 0
DWIDTH 14 0
BBX 13 14 1 -2
BITMAP
0200
0480
3FE0
1020
2A50
FDF8
0880
3160
C618
1880
0320
1C40
0180
3E00
ENDCHAR
STARTCHAR $4b74
ENCODING 21448
SWIDTH 960 0
DWIDTH 14 0
BBX 13 13 1 -2
BITMAP
7FE0
1020
1020
1040
0840
0880
0480
0500
0200
0500
0880
3060
C018
ENDCHAR
STARTCHAR $3a35
ENCODING 21449
SWIDTH 960 0
DWIDTH 14 0
BBX 13 13 1 -2
BITMAP
7FE0
0420
1220
1240
0840
0880
0480
0300
0200
0500
0880
3060
C018
ENDCHAR
STARTCHAR $355a
ENCODING 21450
SWIDTH 960 0
DWIDTH 14 0
BBX 13 13 1 -2
BITMAP
7FC0
0840
0880
0880
0DE0
1420
1220
1240
1140
2080
2140
4620
9818
ENDCHAR
STARTCHAR $4d27
ENCODING 21451
SWIDTH 960 0
DWIDTH 14 0
BBX 13 14 1 -2
BITMAP
0400
0400
0400
FFF8
0400
0400
0FE0
0C20
0A40
1280
1100
2280
4C60
B018
ENDCHAR
STARTCHAR $4150
ENCODING 21452
SWIDTH 960 0
DWIDTH 14 0
BBX 13 13 1 -2
BITMAP
FFF0
0510
0510
4510
2510
18A0
08A0
08C0
1440
14C0
2120
4210
8408
ENDCHAR
STARTCHAR $483f
ENCODING 21453
SWIDTH 960 0
DWIDTH 14 0
BBX 13 13 1 -2
BITMAP
3FF0
2000
2000
3FE0
2420
2420
2440
2240
2280
2100
4280
4C60
B018
ENDCHAR
STARTCHAR $3c7d
ENCODING 21454
SWIDTH 960 0
DWIDTH 14 0
BBX 14 14 0 -2
BITMAP
0400
25F8
2488
2488
2488
2488
2450
2450
2660
3C20
E460
0490
0708
0404
ENDCHAR
STARTCHAR $3d47
ENCODING 21460
SWIDTH 960 0
DWIDTH 14 0
BBX 13 14 1 -2
BITMAP
1000
13F0
1110
1F10
1110
10A0
FEA0
10A0
1440
5240
52A0
5120
9210
3408
ENDCHAR
STARTCHAR $3c68
ENCODING 21462
SWIDTH 960 0
DWIDTH 14 0
BBX 13 13 1 -2
BITMAP
FE00
27F0
2510
3D10
2510
2490
3CA0
24A0
2440
3CC0
C520
0610
0408
ENDCHAR
STARTCHAR $3c75
ENCODING 21463
SWIDTH 960 0
DWIDTH 14 0
BBX 13 14 1 -2
BITMAP
0060
03A0
7C20
2440
1280
FFF8
8008
BFC8
0840
0480
0300
0300
0CC0
7030
ENDCHAR
STARTCHAR $3d76
ENCODING 21465
SWIDTH 960 0
DWIDTH 14 0
BBX 13 14 1 -2
BITMAP
1000
13F0
2910
2510
4510
FCA0
10A0
FEA0
1040
5840
54A0
5520
9210
3408
ENDCHAR
STARTCHAR $4840
ENCODING 21467
SWIDTH 960 0
DWIDTH 14 0
BBX 13 14 1 -2
BITMAP
1000
15F8
9500
5900
51F0
FD10
1110
1190
1EA0
F260
2240
24A0
4510
8808
ENDCHAR
STARTCHAR $5257
ENCODING 21471
SWIDTH 960 0
DWIDTH 14 0
BBX 13 14 1 -2
BITMAP
0A00
72F0
4210
7AF0
4210
4210
7FF0
0200
7FE0
0840
0480
0300
0CC0
F038
ENDCHAR
STARTCHAR $3143
ENCODING 21473
SWIDTH 960 0
DWIDTH 14 0
BBX 13 14 1 -2
BITMAP
1C00
11F0
FE10
BA90
B490
5AA0
A4A0
3E60
6440
BC60
24A0
3C90
2510
3E08
ENDCHAR
STARTCHAR $4151
ENCODING 21474
SWIDTH 960 0
DWIDTH 14 0
BBX 13 14 1 -2
BITMAP
2520
1540
FFF8
0880
7FF0
0200
3FE0
0200
FFF8
2400
3FF0
2520
FCE0
0718
ENDCHAR
STARTCHAR $387d
ENCODING 21475
SWIDTH 960 0
DWIDTH 14 0
BBX 10 9 2 1
BITMAP
FFC0
8040
8040
8040
8040
8040
8040
8040
FFC0
ENDCHAR
STARTCHAR $3845
ENCODING 21476
SWIDTH 960 0
DWIDTH 14 0
BBX 13 13 1 -1
BITMAP
0200
0200
0200
FFF8
0200
0200
0200
3FE0
2020
2020
2020
2020
3FE0
ENDCHAR
STARTCHAR $3667
ENCODING 21477
SWIDTH 960 0
DWIDTH 14 0
BBX 12 14 1 -2
BITMAP
1000
1000
1000
3FF0
2010
5F10
9110
1110
1110
1110
1F10
0010
0010
0060
ENDCHAR
STARTCHAR $525b
ENCODING 21480
SWIDTH 960 0
DWIDTH 14 0
BBX 12 13 1 -2
BITMAP
0FF0
F110
9110
9110
9110
9110
9110
9110
9110
F210
0210
0410
0860
ENDCHAR
STARTCHAR $4321
ENCODING 21481
SWIDTH 960 0
DWIDTH 14 0
BBX 12 13 1 -2
BITMAP
01F0
F910
8910
8910
8910
8910
8910
8910
F910
01E0
0100
0100
0100
ENDCHAR
STARTCHAR $427e
ENCODING 21482
SWIDTH 960 0
DWIDTH 14 0
BBX 12 13 1 -2
BITMAP
3FE0
2020
2020
2020
2020
2020
3FE0
0000
0880
0840
1020
2010
C010
ENDCHAR
STARTCHAR $362b
ENCODING 21483
SWIDTH 960 0
DWIDTH 14 0
BBX 13 14 1 -2
BITMAP
0020
0020
F220
9220
9220
9220
9220
9220
9238
93E0
FE20
0020
0020
0020
ENDCHAR
STARTCHAR $3e24
ENCODING 21484
SWIDTH 960 0
DWIDTH 14 0
BBX 12 12 1 -1
BITMAP
FFF0
0410
0410
0810
3010
C0E0
0000
3FE0
2020
2020
2020
3FE0
ENDCHAR
STARTCHAR $525c
ENCODING 21485
SWIDTH 960 0
DWIDTH 14 0
BBX 13 14 1 -2
BITMAP
03C0
0040
F040
9040
9240
9240
9240
9240
9220
F220
0420
0410
0810
1008
ENDCHAR
STARTCHAR $525a
ENCODING 21486
SWIDTH 960 0
DWIDTH 14 0
BBX 13 13 1 -2
BITMAP
0FF8
F040
9040
9040
9040
9040
9040
9040
9040
F040
0040
0040
00C0
ENDCHAR
STARTCHAR $3244
ENCODING 21487
SWIDTH 960 0
DWIDTH 14 0
BBX 13 13 1 -2
BITMAP
FFF8
0020
0020
3E20
2220
2220
2220
2220
3E20
0020
0020
0020
0060
ENDCHAR
STARTCHAR $4266
ENCODING 21488
SWIDTH 960 0
DWIDTH 14 0
BBX 13 13 1 -1
BITMAP
0200
0200
0400
0880
1060
FF90
0008
0000
3FE0
2020
2020
2020
3FE0
ENDCHAR
STARTCHAR $3c38
ENCODING 21489
SWIDTH 960 0
DWIDTH 14 0
BBX 13 14 1 -2
BITMAP
0100
0100
F900
8910
8910
8920
8940
8980
8F00
8900
F900
0108
0108
00F8
ENDCHAR
STARTCHAR $3b4b
ENCODING 21490
SWIDTH 960 0
DWIDTH 14 0
BBX 13 14 1 -2
BITMAP
0200
0200
0200
3FE0
2220
2220
2220
3FE0
2200
1400
0C00
0E00
3180
C078
ENDCHAR
STARTCHAR $3126
ENCODING 21491
SWIDTH 960 0
DWIDTH 14 0
BBX 13 13 1 -1
BITMAP
0400
0400
0400
FFF8
0800
0800
1000
1FE0
3020
3020
5020
9020
1FE0
ENDCHAR
STARTCHAR $3370
ENCODING 21494
SWIDTH 960 0
DWIDTH 14 0
BBX 13 14 1 -2
BITMAP
0080
0080
F080
9080
9080
9FF8
9080
9080
9080
9080
F080
0080
0080
0080
ENDCHAR
STARTCHAR $3966
ENCODING 21495
SWIDTH 960 0
DWIDTH 14 0
BBX 13 13 1 -2
BITMAP
1FC0
1040
1040
1FC0
0000
FFF8
0800
0FC0
1040
0040
0040
0080
0300
ENDCHAR
STARTCHAR $3b4a
ENCODING 21496
SWIDTH 960 0
DWIDTH 14 0
BBX 12 13 1 -2
BITMAP
FFF0
0010
7F90
0010
0010
3F10
2110
2110
2110
3F10
0010
0010
0060
ENDCHAR
STARTCHAR $525d
ENCODING 21498
SWIDTH 960 0
DWIDTH 14 0
BBX 13 14 1 -2
BITMAP
0380
0080
F080
9080
9080
9080
9180
9140
9140
F240
0220
0420
0810
1008
ENDCHAR
STARTCHAR $525e
ENCODING 21505
SWIDTH 960 0
DWIDTH 14 0
BBX 13 13 1 -2
BITMAP
07F0
F080
9080
9080
9080
9FF8
9080
9080
9080
F080
0080
0080
0180
ENDCHAR
STARTCHAR $3549
ENCODING 21507
SWIDTH 960 0
DWIDTH 14 0
BBX 13 14 1 -2
BITMAP
0200
0200
0200
F3F8
9400
9400
9BE0
9040
9080
9100
F200
0408
0408
03F8
ENDCHAR
STARTCHAR $3346
ENCODING 21508
SWIDTH 960 0
DWIDTH 14 0
BBX 13 13 1 -1
BITMAP
0400
0400
0FE0
1840
2480
4300
0680
1860
FFD8
1040
1040
1040
1FC0
ENDCHAR
STARTCHAR $3967
ENCODING 21512
SWIDTH 960 0
DWIDTH 14 0
BBX 13 13 1 -1
BITMAP
0200
0200
0500
0880
3060
DFD8
0000
0000
1FC0
1040
1040
1040
1FC0
ENDCHAR
STARTCHAR $3548
ENCODING 21513
SWIDTH 960 0
DWIDTH 14 0
BBX 13 13 1 -1
BITMAP
0200
0200
0200
FFF8
0200
0200
7FF0
0000
3FE0
2020
2020
2020
3FE0
ENDCHAR
STARTCHAR $445f
ENCODING 21514
SWIDTH 960 0
DWIDTH 14 0
BBX 11 13 2 -2
BITMAP
7FC0
4040
4040
7FC0
0400
0400
FFE0
8420
8420
8420
8420
84C0
0400
ENDCHAR
STARTCHAR $3125
ENCODING 21515
SWIDTH 960 0
DWIDTH 14 0
BBX 13 14 1 -2
BITMAP
0020
0020
F020
9020
9FF8
9020
9220
9120
9120
9020
F020
0020
0020
0060
ENDCHAR
STARTCHAR $4631
ENCODING 21516
SWIDTH 960 0
DWIDTH 14 0
BBX 12 13 1 -2
BITMAP
FFF0
8010
8010
BFD0
8010
9F90
9090
9090
9090
9F90
8010
8010
8030
ENDCHAR
STARTCHAR $4c3e
ENCODING 21517
SWIDTH 960 0
DWIDTH 14 0
BBX 12 14 1 -2
BITMAP
0400
0400
0FC0
0840
1880
2500
4200
0400
0FF0
3810
C810
0810
0810
0FF0
ENDCHAR
STARTCHAR $3921
ENCODING 21518
SWIDTH 960 0
DWIDTH 14 0
BBX 13 13 1 -1
BITMAP
0070
3F80
2000
2000
3FF8
2000
2000
27E0
2420
2420
4420
4420
87E0
ENDCHAR
STARTCHAR $4d79
ENCODING 21519
SWIDTH 960 0
DWIDTH 14 0
BBX 13 14 1 -2
BITMAP
0200
0200
FFF8
0200
3FE0
2220
2220
3FE0
1200
0A00
0400
0B00
30C0
C038
ENDCHAR
STARTCHAR $4547
ENCODING 21520
SWIDTH 960 0
DWIDTH 14 0
BBX 13 13 1 -1
BITMAP
0080
0080
F080
9080
97F0
9080
9080
9080
9080
F080
0080
0080
1FF8
ENDCHAR
STARTCHAR $387e
ENCODING 21521
SWIDTH 960 0
DWIDTH 14 0
BBX 12 14 1 -2
BITMAP
0400
0400
0800
FFF0
8010
8010
9F90
9090
9090
9090
9F90
8010
8010
8030
ENDCHAR
STARTCHAR $372f
ENCODING 21531
SWIDTH 960 0
DWIDTH 14 0
BBX 13 12 1 -1
BITMAP
3FC0
0440
0440
FFF8
0440
0440
3FC0
0800
1FE0
2820
4820
8FE0
ENDCHAR
STARTCHAR $5267
ENCODING 21533
SWIDTH 960 0
DWIDTH 14 0
BBX 13 13 1 -1
BITMAP
0200
0200
FFF8
0840
0480
0300
0CC0
F038
1FC0
1040
1040
1040
1FC0
ENDCHAR
STARTCHAR $3663
ENCODING 21535
SWIDTH 960 0
DWIDTH 14 0
BBX 13 14 1 -2
BITMAP
0080
0080
F140
9140
9220
97F0
9808
9000
97F0
9010
F020
0020
0040
0040
ENDCHAR
STARTCHAR $4b4a
ENCODING 21536
SWIDTH 960 0
DWIDTH 14 0
BBX 13 14 1 -2
BITMAP
0080
00A0
F090
9090
9080
9FF8
9080
9080
90C0
9140
F120
0220
0C10
3008
ENDCHAR
STARTCHAR $485d
ENCODING 21542
SWIDTH 960 0
DWIDTH 14 0
BBX 13 12 1 -1
BITMAP
FFF8
0200
0780
0A60
3210
C208
0200
3FE0
2020
2020
2020
3FE0
ENDCHAR
STARTCHAR $5266
ENCODING 21545
SWIDTH 960 0
DWIDTH 14 0
BBX 13 14 1 -2
BITMAP
00C0
0240
F240
9240
9420
9420
9FF0
9128
9120
9120
F220
0220
0420
08C0
ENDCHAR
STARTCHAR $345e
ENCODING 21547
SWIDTH 960 0
DWIDTH 14 0
BBX 13 13 1 -1
BITMAP
0200
0200
0500
0880
3FE0
C018
3FC0
0080
0100
3FE0
2020
2020
3FE0
ENDCHAR
STARTCHAR $5261
ENCODING 21548
SWIDTH 960 0
DWIDTH 14 0
BBX 13 14 1 -2
BITMAP
0010
0060
F380
9200
9200
93F8
9240
9240
9240
9240
F440
0440
0840
0040
ENDCHAR
STARTCHAR $5262
ENCODING 21549
SWIDTH 960 0
DWIDTH 14 0
BBX 13 14 1 -2
BITMAP
0080
0080
F080
9FF8
9000
93C0
9240
9240
9240
9240
F240
0448
0448
0838
ENDCHAR
STARTCHAR $5264
ENCODING 21550
SWIDTH 960 0
DWIDTH 14 0
BBX 13 14 1 -2
BITMAP
0080
0080
F120
9110
9278
9FC8
9140
9140
9140
9140
F240
0248
0448
0838
ENDCHAR
STARTCHAR $5265
ENCODING 21558
SWIDTH 960 0
DWIDTH 14 0
BBX 12 14 1 -2
BITMAP
0380
0080
F080
97F0
9490
9490
9490
9550
9530
9630
F410
0410
0410
0430
ENDCHAR
STARTCHAR $355b
ENCODING 21560
SWIDTH 960 0
DWIDTH 14 0
BBX 13 13 1 -2
BITMAP
0FE0
F220
9240
9240
93F0
9310
9310
94A0
F4A0
0440
08A0
1310
2C08
ENDCHAR
STARTCHAR $3f61
ENCODING 21561
SWIDTH 960 0
DWIDTH 14 0
BBX 13 14 1 -2
BITMAP
0200
0200
F200
9200
93F8
9490
94A0
9880
9080
F140
9140
8220
0C10
3008
ENDCHAR
STARTCHAR $4a2d
ENCODING 21563
SWIDTH 960 0
DWIDTH 14 0
BBX 12 14 1 -2
BITMAP
0200
0200
F200
97F0
9550
9550
9950
9250
9290
9490
F890
0110
0210
0060
ENDCHAR
STARTCHAR $5263
ENCODING 21564
SWIDTH 960 0
DWIDTH 14 0
BBX 13 14 1 -2
BITMAP
0040
0FC0
F0C0
9140
9140
9240
92C0
9340
9E40
9240
F240
0248
0248
0638
ENDCHAR
STARTCHAR $525f
ENCODING 21565
SWIDTH 960 0
DWIDTH 14 0
BBX 13 14 1 -2
BITMAP
0080
0280
F280
9280
93F0
9480
9480
9880
9FF8
9080
F080
0080
0080
0080
ENDCHAR
STARTCHAR $3863
ENCODING 21566
SWIDTH 960 0
DWIDTH 14 0
BBX 13 12 1 -1
BITMAP
7FF0
0400
0400
3FC0
0840
0840
FFF8
0000
3FE0
2020
2020
3FE0
ENDCHAR
STARTCHAR $5260
ENCODING 21568
SWIDTH 960 0
DWIDTH 14 0
BBX 13 13 1 -2
BITMAP
07F0
F040
9440
9440
9440
97F8
90C0
9140
9140
F240
0440
0840
00C0
ENDCHAR
STARTCHAR $4f24
ENCODING 21570
SWIDTH 960 0
DWIDTH 14 0
BBX 9 12 3 -1
BITMAP
7F00
4100
4100
4100
7F00
0800
1000
FF80
8080
8080
8080
FF80
ENDCHAR
STARTCHAR $4a72
ENCODING 21574
SWIDTH 960 0
DWIDTH 14 0
BBX 13 13 1 -2
BITMAP
3FE0
2020
2020
3FE0
0200
0200
FFF8
0700
0A80
3260
C218
0200
0200
ENDCHAR
STARTCHAR $4468
ENCODING 21576
SWIDTH 960 0
DWIDTH 14 0
BBX 13 12 1 -1
BITMAP
1FC0
1040
1040
1FC0
0000
7FF0
0200
0200
3FE0
0200
0200
FFF8
ENDCHAR
STARTCHAR $3862
ENCODING 21577
SWIDTH 960 0
DWIDTH 14 0
BBX 13 13 1 -2
BITMAP
07E0
2420
2420
27E0
2000
3FE0
0020
0020
FFF8
0000
08C0
3020
C010
ENDCHAR
STARTCHAR $3970
ENCODING 21578
SWIDTH 960 0
DWIDTH 14 0
BBX 13 13 1 -1
BITMAP
0200
1200
1200
3FE0
2200
4200
FFF8
0000
0000
1FC0
1040
1040
1FC0
ENDCHAR
STARTCHAR $5268
ENCODING 21582
SWIDTH 960 0
DWIDTH 14 0
BBX 13 13 1 -2
BITMAP
03F0
F210
9210
9210
9210
93F0
9300
9280
F480
0440
0820
1010
2008
ENDCHAR
STARTCHAR $465d
ENCODING 21585
SWIDTH 960 0
DWIDTH 14 0
BBX 13 13 1 -1
BITMAP
0060
3F80
0200
0200
FFF8
0500
0880
3060
DFD8
1040
1040
1040
1FC0
ENDCHAR
STARTCHAR $526c
ENCODING 21599
SWIDTH 960 0
DWIDTH 14 0
BBX 13 14 1 -2
BITMAP
0080
0080
F080
9FF8
9080
90A0
9520
9320
9140
90C0
F0A0
0110
0278
0F88
ENDCHAR
STARTCHAR $3c7e
ENCODING 21608
SWIDTH 960 0
DWIDTH 14 0
BBX 13 13 0 -2
BITMAP
3FF8
2208
2208
2FC8
2208
3FE8
2008
2FC8
2848
2848
4FC8
4008
8018
ENDCHAR
STARTCHAR $3c76
ENCODING 21610
SWIDTH 960 0
DWIDTH 14 0
BBX 13 13 1 -2
BITMAP
07F0
F410
9410
9410
97F0
9140
9140
9140
F240
0240
0448
0848
3038
ENDCHAR
STARTCHAR $526f
ENCODING 21616
SWIDTH 960 0
DWIDTH 14 0
BBX 13 13 1 -1
BITMAP
1100
1110
5120
5FC0
5100
5108
5D08
70F8
C000
1FC0
1040
1040
1FC0
ENDCHAR
STARTCHAR $526d
ENCODING 21617
SWIDTH 960 0
DWIDTH 14 0
BBX 13 14 1 -2
BITMAP
0010
0060
F7C0
9540
9540
9540
9540
9540
9540
9520
F5A0
0950
0FF0
1028
ENDCHAR
STARTCHAR $4c23
ENCODING 21619
SWIDTH 960 0
DWIDTH 14 0
BBX 13 14 1 -2
BITMAP
0080
0080
F7F0
9080
9080
9FF8
91C0
91C0
92A0
9490
F888
0080
0080
0080
ENDCHAR
STARTCHAR $526a
ENCODING 21621
SWIDTH 960 0
DWIDTH 14 0
BBX 13 13 1 -2
BITMAP
0FF8
F010
9010
9790
9490
9490
9490
9490
9790
F010
0010
0010
0030
ENDCHAR
STARTCHAR $5273
ENCODING 21622
SWIDTH 960 0
DWIDTH 14 0
BBX 13 14 1 -2
BITMAP
0400
0400
E5F0
A490
BF90
AA90
AA90
AA60
BA60
A620
A560
E550
0890
1108
ENDCHAR
STARTCHAR $526e
ENCODING 21623
SWIDTH 960 0
DWIDTH 14 0
BBX 12 13 1 -2
BITMAP
07F0
F490
9490
9490
97F0
9490
9490
9490
F7F0
0080
0080
0080
0080
ENDCHAR
STARTCHAR $5271
ENCODING 21627
SWIDTH 960 0
DWIDTH 14 0
BBX 12 14 1 -2
BITMAP
0080
0080
F7F0
9490
9490
97F0
9490
9490
97F0
9080
F080
0080
0080
0080
ENDCHAR
STARTCHAR $3846
ENCODING 21628
SWIDTH 960 0
DWIDTH 14 0
BBX 13 14 1 -2
BITMAP
0030
07C0
F090
9490
92A0
92C0
9080
9FF8
9080
9080
F080
0080
0080
0180
ENDCHAR
STARTCHAR $4c3f
ENCODING 21629
SWIDTH 960 0
DWIDTH 14 0
BBX 13 14 1 -2
BITMAP
0200
0500
0880
3060
DFD8
0000
79F0
4910
4910
4910
4910
79E0
0100
0100
ENDCHAR
STARTCHAR $5272
ENCODING 21632
SWIDTH 960 0
DWIDTH 14 0
BBX 13 12 1 -1
BITMAP
03E0
F220
9220
9220
93E0
9220
9220
93E0
9220
F220
0220
0FF8
ENDCHAR
STARTCHAR $5274
ENCODING 21636
SWIDTH 960 0
DWIDTH 14 0
BBX 12 13 1 -1
BITMAP
0080
0490
F490
9490
9490
97F0
9080
9080
9490
9490
F490
0490
07F0
ENDCHAR
STARTCHAR $5276
ENCODING 21638
SWIDTH 960 0
DWIDTH 14 0
BBX 13 14 1 -2
BITMAP
0200
0200
F3F0
9410
9410
9BD0
9250
9250
93D0
9260
F200
0208
0208
01F8
ENDCHAR
STARTCHAR $3a70
ENCODING 21643
SWIDTH 960 0
DWIDTH 14 0
BBX 13 14 1 -2
BITMAP
0200
0200
F200
97F8
9500
9900
91F0
9100
9100
91F0
F100
0100
0100
0100
ENDCHAR
STARTCHAR $4f42
ENCODING 21644
SWIDTH 960 0
DWIDTH 14 0
BBX 12 14 1 -2
BITMAP
0400
0800
71F0
1110
1110
FF10
1110
3910
3510
5510
9110
11F0
1000
1000
ENDCHAR
STARTCHAR $526b
ENCODING 21646
SWIDTH 960 0
DWIDTH 14 0
BBX 13 13 1 -1
BITMAP
1040
1040
3C40
24C0
68A0
9910
1A10
27F8
C000
1FC0
1040
1040
1FC0
ENDCHAR
STARTCHAR $5269
ENCODING 21647
SWIDTH 960 0
DWIDTH 14 0
BBX 13 14 1 -2
BITMAP
0080
0040
F040
9380
9088
90C8
9FD0
91E0
91C0
92A0
F2A0
0490
0888
0180
ENDCHAR
STARTCHAR $5275
ENCODING 21648
SWIDTH 960 0
DWIDTH 14 0
BBX 13 14 1 -2
BITMAP
0110
0110
F110
9210
93F8
9610
9A90
9250
9250
9210
F210
0210
0210
0230
ENDCHAR
STARTCHAR $5270
ENCODING 21650
SWIDTH 960 0
DWIDTH 14 0
BBX 12 13 2 -2
BITMAP
FBE0
8A20
8A20
FBE0
0000
0000
1F00
1100
1100
1100
2110
4110
80F0
ENDCHAR
STARTCHAR $5278
ENCODING 21666
SWIDTH 960 0
DWIDTH 14 0
BBX 13 13 1 -2
BITMAP
7DF0
4510
7DF0
0000
3FE0
0000
FFF8
0800
0FC0
1040
0040
0080
0700
ENDCHAR
STARTCHAR $5323
ENCODING 21668
SWIDTH 960 0
DWIDTH 14 0
BBX 13 14 1 -2
BITMAP
0080
0080
F7F8
9408
9468
9780
9080
90F8
9F80
9080
9080
F088
0088
0078
ENDCHAR
STARTCHAR $527a
ENCODING 21669
SWIDTH 960 0
DWIDTH 14 0
BBX 13 12 1 -1
BITMAP
0FF8
F120
9110
9278
9F88
9080
9080
97F0
9080
F080
0080
1FF8
ENDCHAR
STARTCHAR $527e
ENCODING 21672
SWIDTH 960 0
DWIDTH 14 0
BBX 13 13 1 -1
BITMAP
0200
0200
F3F8
0488
0890
0160
3220
C410
1FC8
1040
1040
1040
1FC0
ENDCHAR
STARTCHAR $5321
ENCODING 21675
SWIDTH 960 0
DWIDTH 14 0
BBX 13 13 1 -2
BITMAP
3DF0
2510
2510
2510
2510
3DF0
30C0
30A0
2910
2A10
4400
4300
80F8
ENDCHAR
STARTCHAR $527b
ENCODING 21676
SWIDTH 960 0
DWIDTH 14 0
BBX 13 14 1 -2
BITMAP
0080
0080
FFF8
9220
9210
9628
9928
9120
90C0
90C0
F0C0
0120
0610
1808
ENDCHAR
STARTCHAR $533e
ENCODING 21679
SWIDTH 960 0
DWIDTH 14 0
BBX 13 13 1 -1
BITMAP
0100
0100
F3E0
9220
9640
9940
90C0
9330
9FE8
9220
F220
0220
03E0
ENDCHAR
STARTCHAR $3a69
ENCODING 21682
SWIDTH 960 0
DWIDTH 14 0
BBX 13 14 1 -2
BITMAP
0420
0220
F240
97F0
9080
9080
9080
9FF8
9080
9140
F140
0220
0C10
3008
ENDCHAR
STARTCHAR $3331
ENCODING 21683
SWIDTH 960 0
DWIDTH 14 0
BBX 13 14 1 -2
BITMAP
0080
0080
FFF8
9080
9490
9320
9140
9090
9120
9640
F0C0
0120
0610
1808
ENDCHAR
STARTCHAR $5279
ENCODING 21688
SWIDTH 960 0
DWIDTH 14 0
BBX 13 14 1 -2
BITMAP
00A0
0090
0090
3FF8
2080
2F90
2050
2F50
2960
2920
2968
4F58
4098
8108
ENDCHAR
STARTCHAR $5325
ENCODING 21692
SWIDTH 960 0
DWIDTH 14 0
BBX 11 13 2 -2
BITMAP
3F80
2080
2780
2480
2480
FFE0
8020
9F20
9120
9120
9F20
8020
8060
ENDCHAR
STARTCHAR $3076
ENCODING 21693
SWIDTH 960 0
DWIDTH 14 0
BBX 12 12 1 -1
BITMAP
07F0
F490
9490
9490
97F0
9490
9490
9550
9530
F630
0410
07F0
ENDCHAR
STARTCHAR $5324
ENCODING 21694
SWIDTH 960 0
DWIDTH 14 0
BBX 13 14 1 -2
BITMAP
0080
0080
F7F0
9090
90A0
9FF8
9080
9110
9320
9DC0
9100
F110
0110
00F0
ENDCHAR
STARTCHAR $3025
ENCODING 21696
SWIDTH 960 0
DWIDTH 14 0
BBX 13 14 1 -2
BITMAP
0200
0200
FFF8
0000
1FC0
1040
1040
1FD0
0610
1920
E940
0880
0E60
7018
ENDCHAR
STARTCHAR $494a
ENCODING 21697
SWIDTH 960 0
DWIDTH 14 0
BBX 12 12 1 -1
BITMAP
1F80
1080
1080
1080
1F80
0000
0000
F9F0
8910
8910
8910
F9F0
ENDCHAR
STARTCHAR $5322
ENCODING 21698
SWIDTH 960 0
DWIDTH 14 0
BBX 13 12 1 -1
BITMAP
0FF8
F140
9140
97F0
9550
9550
9550
9670
9670
F410
0410
07F0
ENDCHAR
STARTCHAR $527c
ENCODING 21700
SWIDTH 960 0
DWIDTH 14 0
BBX 13 14 1 -2
BITMAP
0240
0240
F240
9240
9FF0
9240
9240
9240
9240
9FF8
F240
0220
0410
0810
ENDCHAR
STARTCHAR $5277
ENCODING 21703
SWIDTH 960 0
DWIDTH 14 0
BBX 13 13 1 -1
BITMAP
0080
0080
F7F0
9080
9080
9FF8
9080
9080
97F0
9080
F080
0080
1FF8
ENDCHAR
STARTCHAR $527d
ENCODING 21704
SWIDTH 960 0
DWIDTH 14 0
BBX 13 13 1 -1
BITMAP
0080
0080
F140
9140
9220
97F0
9808
9000
93E0
9220
F220
0220
03E0
ENDCHAR
STARTCHAR $3a48
ENCODING 21705
SWIDTH 960 0
DWIDTH 14 0
BBX 13 14 1 -2
BITMAP
1100
1120
7F10
1110
1100
FFF8
0090
7C90
44A0
4460
4440
7CA8
0118
0008
ENDCHAR
STARTCHAR $5326
ENCODING 21720
SWIDTH 960 0
DWIDTH 14 0
BBX 13 14 1 -2
BITMAP
0200
02F0
F400
9800
9100
91F8
9220
9620
9A20
9220
F220
0220
0220
0260
ENDCHAR
STARTCHAR $3077
ENCODING 21729
SWIDTH 960 0
DWIDTH 14 0
BBX 11 13 2 -2
BITMAP
3F80
2080
3F80
0000
7FC0
4040
7FC0
4040
7FC0
4040
7FC0
1980
E060
ENDCHAR
STARTCHAR $532f
ENCODING 21730
SWIDTH 960 0
DWIDTH 14 0
BBX 13 13 1 -2
BITMAP
07F0
F080
93E0
9080
9080
9FF8
9220
9220
9FF8
F220
0220
0420
0820
ENDCHAR
STARTCHAR $5327
ENCODING 21733
SWIDTH 960 0
DWIDTH 14 0
BBX 13 13 1 -2
BITMAP
7FF0
0040
3E40
2240
3E40
0040
FFF8
0040
3E40
2240
3E40
0040
00C0
ENDCHAR
STARTCHAR $5328
ENCODING 21734
SWIDTH 960 0
DWIDTH 14 0
BBX 13 14 1 -2
BITMAP
0140
0250
FE48
9248
9240
9FF8
9250
9250
9320
9E20
F268
0298
0318
0608
ENDCHAR
STARTCHAR $3e25
ENCODING 21736
SWIDTH 960 0
DWIDTH 14 0
BBX 13 14 1 -2
BITMAP
0080
02A0
F290
9488
9888
97F0
9410
97F0
9410
97F0
F410
0410
0410
0430
ENDCHAR
STARTCHAR $4b69
ENCODING 21737
SWIDTH 960 0
DWIDTH 14 0
BBX 13 12 1 -1
BITMAP
07F0
F490
9490
97F0
9490
9490
97F0
9080
F7F0
0080
0080
1FF8
ENDCHAR
STARTCHAR $532d
ENCODING 21741
SWIDTH 960 0
DWIDTH 14 0
BBX 13 13 1 -2
BITMAP
7DF0
4510
4510
7DF0
0000
0240
0220
FFF8
0200
0500
0880
3060
C018
ENDCHAR
STARTCHAR $532c
ENCODING 21742
SWIDTH 960 0
DWIDTH 14 0
BBX 13 14 1 -2
BITMAP
0100
0110
F7D0
9120
9120
9FF8
9080
93F0
9660
9880
FFF8
0080
0080
0180
ENDCHAR
STARTCHAR $452f
ENCODING 21746
SWIDTH 960 0
DWIDTH 14 0
BBX 13 13 1 -1
BITMAP
1030
11C0
FF00
11F8
1D20
F120
1220
3420
0000
1FC0
1040
1040
1FC0
ENDCHAR
STARTCHAR $532e
ENCODING 21754
SWIDTH 960 0
DWIDTH 14 0
BBX 13 14 1 -2
BITMAP
00A0
0090
FFF8
9080
97F0
9490
9490
97F0
9490
9490
F7F0
0490
0490
04B0
ENDCHAR
STARTCHAR $532b
ENCODING 21757
SWIDTH 960 0
DWIDTH 14 0
BBX 13 13 1 -2
BITMAP
0FF8
F080
97F0
9490
97F0
9490
97F0
9480
9300
F100
0280
0460
1818
ENDCHAR
STARTCHAR $3134
ENCODING 21764
SWIDTH 960 0
DWIDTH 14 0
BBX 12 13 2 -2
BITMAP
07E0
F420
9420
97E0
9420
9420
97E0
9420
9420
F7E0
0240
0C20
3010
ENDCHAR
STARTCHAR $3a36
ENCODING 21766
SWIDTH 960 0
DWIDTH 14 0
BBX 13 14 1 -2
BITMAP
0100
0120
F230
9FC8
9240
9248
9538
99E0
9220
9640
F940
0080
0360
1C18
ENDCHAR
STARTCHAR $3f30
ENCODING 21767
SWIDTH 960 0
DWIDTH 14 0
BBX 13 12 1 -1
BITMAP
3FF0
2000
2FE0
2000
3FF8
2920
4EC0
B038
1FE0
1020
1020
1FE0
ENDCHAR
STARTCHAR $5329
ENCODING 21775
SWIDTH 960 0
DWIDTH 14 0
BBX 13 14 1 -2
BITMAP
0020
0340
F1C0
9720
9100
9FF8
9280
9480
97F0
9C90
F490
0490
04B0
0080
ENDCHAR
STARTCHAR $4562
ENCODING 21776
SWIDTH 960 0
DWIDTH 14 0
BBX 13 13 1 -1
BITMAP
0100
3FF8
2100
2FE0
2120
3FF8
2120
2FE0
2000
2FE0
4820
4820
8FE0
ENDCHAR
STARTCHAR $532a
ENCODING 21780
SWIDTH 960 0
DWIDTH 14 0
BBX 13 12 1 -1
BITMAP
0FF8
F100
9100
97E0
9220
9220
9FF8
9000
97F0
F410
0410
07F0
ENDCHAR
STARTCHAR $3022
ENCODING 21782
SWIDTH 960 0
DWIDTH 14 0
BBX 13 12 1 -1
BITMAP
0FF8
F140
9140
97F0
9550
9550
9550
97F0
9140
F140
0140
1FF8
ENDCHAR
STARTCHAR $5334
ENCODING 21806
SWIDTH 960 0
DWIDTH 14 0
BBX 13 13 1 -1
BITMAP
1040
1FF8
3080
3FF0
5080
9FF0
1080
1FF8
0000
1FE0
1020
1020
1FE0
ENDCHAR
STARTCHAR $4d23
ENCODING 21807
SWIDTH 960 0
DWIDTH 14 0
BBX 13 13 1 -1
BITMAP
0120
0120
F240
93F8
9640
9640
9BF0
9240
9240
93F0
F240
0240
03F8
ENDCHAR
STARTCHAR $3e27
ENCODING 21809
SWIDTH 960 0
DWIDTH 14 0
BBX 12 12 1 -1
BITMAP
03E0
F220
93E0
9220
93E0
9000
9000
97F0
F410
07F0
0410
07F0
ENDCHAR
STARTCHAR $533a
ENCODING 21811
SWIDTH 960 0
DWIDTH 14 0
BBX 13 13 1 -2
BITMAP
0FF8
F000
97F0
9410
9410
97F0
94A0
9490
97F8
F880
0940
1220
0C18
ENDCHAR
STARTCHAR $5339
ENCODING 21816
SWIDTH 960 0
DWIDTH 14 0
BBX 13 14 1 -2
BITMAP
0080
0080
F140
9220
9DD8
9000
97F0
9020
9140
90A0
FA90
0A08
1228
01E0
ENDCHAR
STARTCHAR $5330
ENCODING 21817
SWIDTH 960 0
DWIDTH 14 0
BBX 13 14 1 -2
BITMAP
0220
0220
F220
9FD0
9450
9488
9548
9720
9520
9500
F940
0920
1110
2610
ENDCHAR
STARTCHAR $4243
ENCODING 21822
SWIDTH 960 0
DWIDTH 14 0
BBX 13 13 1 -1
BITMAP
0030
07C0
F080
97F0
92A0
92A0
9FF8
92A0
92A0
F7F0
0080
0080
1FF8
ENDCHAR
STARTCHAR $5331
ENCODING 21824
SWIDTH 960 0
DWIDTH 14 0
BBX 13 13 1 -2
BITMAP
07F8
F440
95F0
9440
9440
97F8
9440
9440
95F0
F840
0840
17F8
2000
ENDCHAR
STARTCHAR $426f
ENCODING 21828
SWIDTH 960 0
DWIDTH 14 0
BBX 13 13 1 -2
BITMAP
0FF8
F080
9110
9390
9CA0
91C0
9240
9CE0
F150
0648
1840
0040
0180
ENDCHAR
STARTCHAR $5336
ENCODING 21829
SWIDTH 960 0
DWIDTH 14 0
BBX 13 14 1 -2
BITMAP
0080
0080
F0F8
9080
97F0
9410
97F0
9410
97F0
9080
FFF8
0080
0080
0080
ENDCHAR
STARTCHAR $3e26
ENCODING 21830
SWIDTH 960 0
DWIDTH 14 0
BBX 13 14 1 -2
BITMAP
0200
0200
FFF8
1040
0880
7FF0
4910
4930
5FF0
6890
4890
4F90
4010
4030
ENDCHAR
STARTCHAR $5333
ENCODING 21836
SWIDTH 960 0
DWIDTH 14 0
BBX 13 13 1 -1
BITMAP
0080
0080
FFF8
9948
9940
9248
9438
9000
97F0
9080
F080
0080
1FF8
ENDCHAR
STARTCHAR $4c64
ENCODING 21839
SWIDTH 960 0
DWIDTH 14 0
BBX 12 13 1 -2
BITMAP
F9F0
8910
F9F0
8910
F9F0
8010
9F90
9090
9090
9090
9F90
8010
8030
ENDCHAR
STARTCHAR $373c
ENCODING 21843
SWIDTH 960 0
DWIDTH 14 0
BBX 13 13 1 -1
BITMAP
0080
FE80
01F8
7F20
4520
44C0
7CC0
4720
4018
9FC0
1040
1040
1FC0
ENDCHAR
STARTCHAR $5337
ENCODING 21846
SWIDTH 960 0
DWIDTH 14 0
BBX 13 14 1 -2
BITMAP
0080
0090
F490
95A0
9940
9220
94A0
9080
9490
9590
F960
0240
0420
1818
ENDCHAR
STARTCHAR $5338
ENCODING 21847
SWIDTH 960 0
DWIDTH 14 0
BBX 12 13 1 -1
BITMAP
0100
0100
F1F0
9210
9420
99C0
9670
9410
9410
9770
F410
0410
07F0
ENDCHAR
STARTCHAR $5335
ENCODING 21852
SWIDTH 960 0
DWIDTH 14 0
BBX 13 13 1 -2
BITMAP
0FF0
F990
9550
9220
9550
9990
9FF0
9990
9550
F260
0320
0550
1888
ENDCHAR
STARTCHAR $533b
ENCODING 21853
SWIDTH 960 0
DWIDTH 14 0
BBX 12 14 1 -2
BITMAP
0080
0300
FE70
9250
9250
9FD0
9250
9750
9750
FAF0
0A80
1240
0220
0200
ENDCHAR
STARTCHAR $5332
ENCODING 21859
SWIDTH 960 0
DWIDTH 14 0
BBX 12 14 1 -2
BITMAP
0400
0400
E470
AFD0
AA50
B250
BFD0
A250
ABD0
AA50
EA50
0BE0
0E40
1840
ENDCHAR
STARTCHAR $5341
ENCODING 21883
SWIDTH 960 0
DWIDTH 14 0
BBX 13 13 1 -1
BITMAP
0200
7FF0
0880
0500
FFF8
8208
BFE8
2220
2260
0200
3FE0
2020
3FE0
ENDCHAR
STARTCHAR $5346
ENCODING 21884
SWIDTH 960 0
DWIDTH 14 0
BBX 13 14 1 -2
BITMAP
0080
0080
F7F0
9220
9140
97F8
9490
9880
97F0
9490
F490
0490
04B0
0080
ENDCHAR
STARTCHAR $5342
ENCODING 21886
SWIDTH 960 0
DWIDTH 14 0
BBX 13 14 1 -2
BITMAP
00A0
0320
FE20
9228
9268
9FF0
92A0
9320
96A0
96E0
FA50
1250
0288
0308
ENDCHAR
STARTCHAR $533d
ENCODING 21888
SWIDTH 960 0
DWIDTH 14 0
BBX 13 13 1 -1
BITMAP
0080
0080
F7F8
9510
99E0
9120
9340
94C0
9120
97F8
FA20
0220
03E0
ENDCHAR
STARTCHAR $5347
ENCODING 21891
SWIDTH 960 0
DWIDTH 14 0
BBX 13 14 1 -2
BITMAP
0080
0080
FFF8
9080
97F0
9650
9550
97F0
9490
97F0
F490
0490
0490
0430
ENDCHAR
STARTCHAR $4131
ENCODING 21892
SWIDTH 960 0
DWIDTH 14 0
BBX 13 13 1 -1
BITMAP
1040
0880
7FF0
0200
3FE0
0200
7FF0
1240
FFF8
0000
3FE0
2020
3FE0
ENDCHAR
STARTCHAR $5349
ENCODING 21895
SWIDTH 960 0
DWIDTH 14 0
BBX 12 14 1 -2
BITMAP
0210
0210
FFD0
A250
AFD0
AAD0
AAD0
AFD0
A250
A750
E690
0A90
1210
0230
ENDCHAR
STARTCHAR $3922
ENCODING 21897
SWIDTH 960 0
DWIDTH 14 0
BBX 13 14 1 -2
BITMAP
0200
03E0
F220
97F8
9480
9C80
95F8
9540
9640
F7F8
0440
04A0
0510
0608
ENDCHAR
STARTCHAR $533f
ENCODING 21898
SWIDTH 960 0
DWIDTH 14 0
BBX 13 14 1 -2
BITMAP
00A0
0090
E090
AFF8
A880
AF90
A850
AF50
AD60
AD20
EF68
1498
1118
2008
ENDCHAR
STARTCHAR $437d
ENCODING 21899
SWIDTH 960 0
DWIDTH 14 0
BBX 13 14 1 -2
BITMAP
02A0
02A0
FFF8
92A0
92E0
9200
93F0
9080
9FF8
F1C0
02A0
0C90
3088
0080
ENDCHAR
STARTCHAR $5343
ENCODING 21912
SWIDTH 960 0
DWIDTH 14 0
BBX 13 14 1 -2
BITMAP
0080
0490
F490
97F0
9000
9FF8
9080
97F0
9550
9550
F550
0550
0550
0430
ENDCHAR
STARTCHAR $533c
ENCODING 21913
SWIDTH 960 0
DWIDTH 14 0
BBX 13 14 1 -2
BITMAP
0200
03E0
F220
97C0
9040
9FF8
9110
9390
9DE0
92C0
FDA0
0290
0C88
0300
ENDCHAR
STARTCHAR $342d
ENCODING 21914
SWIDTH 960 0
DWIDTH 14 0
BBX 13 14 1 -2
BITMAP
0100
01E0
F240
9480
9FF0
9550
9550
9570
9650
9490
FFF8
0140
0630
1808
ENDCHAR
STARTCHAR $346e
ENCODING 21916
SWIDTH 960 0
DWIDTH 14 0
BBX 13 14 1 -2
BITMAP
0200
FFF8
0200
3FE0
0000
1FC0
1040
1FC0
0880
FFF8
0000
3FE0
2020
3FE0
ENDCHAR
STARTCHAR $3365
ENCODING 21917
SWIDTH 960 0
DWIDTH 14 0
BBX 12 13 1 -2
BITMAP
07E0
F420
97E0
9420
97E0
9100
93F0
9CD0
9710
F410
0450
03D0
0060
ENDCHAR
STARTCHAR $5344
ENCODING 21918
SWIDTH 960 0
DWIDTH 14 0
BBX 12 14 1 -2
BITMAP
0400
0470
EF50
A950
AF50
A950
AF50
A950
A850
AF50
E860
0F40
0840
0840
ENDCHAR
STARTCHAR $5340
ENCODING 21919
SWIDTH 960 0
DWIDTH 14 0
BBX 12 13 1 -2
BITMAP
07F0
F490
97F0
9490
97F0
9000
93E0
9220
93E0
F220
03E0
0220
0260
ENDCHAR
STARTCHAR $3776
ENCODING 21927
SWIDTH 960 0
DWIDTH 14 0
BBX 13 13 1 -1
BITMAP
0080
0080
F7F0
9410
97F0
9000
93E0
9220
93E0
9220
F3E0
0000
1FF8
ENDCHAR
STARTCHAR $534a
ENCODING 21928
SWIDTH 960 0
DWIDTH 14 0
BBX 13 14 1 -2
BITMAP
0080
0FF8
F000
93E0
9220
93E0
9000
97F8
9410
9940
F140
0148
0248
0C38
ENDCHAR
STARTCHAR $5348
ENCODING 21929
SWIDTH 960 0
DWIDTH 14 0
BBX 13 14 1 -2
BITMAP
0100
0100
E280
A440
AFE0
B010
AF58
A950
AD50
ABA0
EDA0
0B50
0950
0B50
ENDCHAR
STARTCHAR $4153
ENCODING 21930
SWIDTH 960 0
DWIDTH 14 0
BBX 13 14 1 -2
BITMAP
0200
FFF8
0200
7AF0
4A90
4A90
7AF0
0200
FFF8
1120
1140
1080
1C60
E018
ENDCHAR
STARTCHAR $354a
ENCODING 21931
SWIDTH 960 0
DWIDTH 14 0
BBX 13 14 1 -2
BITMAP
0400
05F0
FF50
A450
BF50
A450
A790
BCB0
A100
BFF8
E100
0280
0C60
3018
ENDCHAR
STARTCHAR $362c
ENCODING 21932
SWIDTH 960 0
DWIDTH 14 0
BBX 13 14 1 -2
BITMAP
00C0
1F00
0200
FFF8
0880
3FE0
C898
0F80
7FF0
4010
4F90
4890
4F90
4030
ENDCHAR
STARTCHAR $5345
ENCODING 21934
SWIDTH 960 0
DWIDTH 14 0
BBX 13 13 1 -2
BITMAP
7DF0
4510
7DF0
0000
3FE0
2220
3FE0
2220
3FE0
0200
FFF8
0200
0200
ENDCHAR
STARTCHAR $3674
ENCODING 21936
SWIDTH 960 0
DWIDTH 14 0
BBX 13 14 1 -2
BITMAP
0080
0080
F140
93E0
9C18
93E0
9220
93E0
9220
93F0
F290
0260
03B0
1E08
ENDCHAR
STARTCHAR $3144
ENCODING 21942
SWIDTH 960 0
DWIDTH 14 0
BBX 13 14 1 -2
BITMAP
2420
1240
FFF8
8008
9FC8
1040
1040
1FC0
0400
3FE0
2020
2020
2020
3FE0
ENDCHAR
STARTCHAR $534e
ENCODING 21956
SWIDTH 960 0
DWIDTH 14 0
BBX 13 13 1 -2
BITMAP
0FF8
F080
97E0
9420
97E0
97E0
9420
97E0
93E0
F640
0980
0360
1C18
ENDCHAR
STARTCHAR $534c
ENCODING 21957
SWIDTH 960 0
DWIDTH 14 0
BBX 13 14 1 -2
BITMAP
0080
0100
F7E0
9420
97E0
9420
97E0
9420
97E0
9110
FFF8
0180
0660
1818
ENDCHAR
STARTCHAR $5427
ENCODING 21959
SWIDTH 960 0
DWIDTH 14 0
BBX 13 13 1 -1
BITMAP
0200
0200
7FF0
1240
2AA0
4B20
FFF8
0000
3FE0
2FA0
28A0
2FA0
3FE0
ENDCHAR
STARTCHAR $5351
ENCODING 21972
SWIDTH 960 0
DWIDTH 14 0
BBX 13 14 1 -2
BITMAP
0230
03C0
F208
91F8
9510
95F0
9510
95F0
9510
F5F0
0400
07F8
0330
1C08
ENDCHAR
STARTCHAR $534b
ENCODING 21978
SWIDTH 960 0
DWIDTH 14 0
BBX 13 14 1 -2
BITMAP
0080
0100
F7E0
9420
9420
97E0
9400
97F0
9400
97F8
F548
0AA8
0AA8
1030
ENDCHAR
STARTCHAR $534f
ENCODING 21980
SWIDTH 960 0
DWIDTH 14 0
BBX 13 13 1 -1
BITMAP
0100
07F0
F120
9FF8
91B0
93C0
9D10
91F0
97E0
9420
F7E0
0420
07E0
ENDCHAR
STARTCHAR $534d
ENCODING 21983
SWIDTH 960 0
DWIDTH 14 0
BBX 13 13 1 -1
BITMAP
0220
0140
F7F0
9080
93E0
9080
9FF8
9200
93F0
9440
F440
0840
17F8
ENDCHAR
STARTCHAR $3b4c
ENCODING 21987
SWIDTH 960 0
DWIDTH 14 0
BBX 13 13 1 -2
BITMAP
7DF8
4408
44E8
7C08
00E8
FEA8
AAA8
AAA8
FEA8
AAE8
AA08
AA08
8618
ENDCHAR
STARTCHAR $5350
ENCODING 21988
SWIDTH 960 0
DWIDTH 14 0
BBX 13 14 1 -2
BITMAP
0080
0490
F490
97F0
9100
9FF8
9080
97F0
9490
F7F0
00A0
0090
00F8
1F08
ENDCHAR
STARTCHAR $5353
ENCODING 22007
SWIDTH 960 0
DWIDTH 14 0
BBX 13 14 1 -2
BITMAP
0440
0440
FF40
A440
A4F8
BF90
A490
BF50
A450
A720
E920
0950
1190
2608
ENDCHAR
STARTCHAR $5358
ENCODING 22009
SWIDTH 960 0
DWIDTH 14 0
BBX 13 14 1 -2
BITMAP
0040
0840
E7F8
A440
B1F0
A950
A9F0
A150
BDF0
A440
E7F8
0440
0A40
11F8
ENDCHAR
STARTCHAR $5356
ENCODING 22013
SWIDTH 960 0
DWIDTH 14 0
BBX 13 14 1 -2
BITMAP
0440
0440
FFC0
A440
BFF8
B5A8
B530
B520
BF20
EE60
0D50
1550
2488
0508
ENDCHAR
STARTCHAR $5355
ENCODING 22014
SWIDTH 960 0
DWIDTH 14 0
BBX 13 14 1 -2
BITMAP
0440
0440
F440
9F78
9480
94C0
9778
95A0
9520
F5F8
0960
0950
1190
2608
ENDCHAR
STARTCHAR $4332
ENCODING 22022
SWIDTH 960 0
DWIDTH 14 0
BBX 13 14 1 -2
BITMAP
0220
0220
FFF8
9220
97F0
9490
97F0
9080
97F0
9080
FFF8
0140
0630
1808
ENDCHAR
STARTCHAR $3245
ENCODING 22025
SWIDTH 960 0
DWIDTH 14 0
BBX 13 14 1 -2
BITMAP
0200
7FF0
0200
3FE0
0000
1FC0
1040
1FC0
0880
FFF8
0800
7EF0
1290
66F0
ENDCHAR
STARTCHAR $5352
ENCODING 22036
SWIDTH 960 0
DWIDTH 14 0
BBX 13 12 1 -1
BITMAP
0FF0
E800
A9E0
A920
A9E0
A800
ABF0
AAD0
EAD0
0BF0
0800
0FF8
ENDCHAR
STARTCHAR $5354
ENCODING 22038
SWIDTH 960 0
DWIDTH 14 0
BBX 13 14 1 -2
BITMAP
0080
07F0
F080
93E0
9080
9FF8
9220
93E0
9220
F3E0
0220
03E0
0320
0C10
ENDCHAR
STARTCHAR $3e28
ENCODING 22039
SWIDTH 960 0
DWIDTH 14 0
BBX 13 13 1 -1
BITMAP
2220
1240
FFF8
8F88
8888
2FE0
3F80
2010
1FF0
1040
1FC0
1040
1FC0
ENDCHAR
STARTCHAR $3133
ENCODING 22040
SWIDTH 960 0
DWIDTH 14 0
BBX 13 13 1 -1
BITMAP
0100
01F0
E100
AFF8
A9F0
AF10
A8F0
A940
AD50
EB50
1360
1140
2FF8
ENDCHAR
STARTCHAR $5357
ENCODING 22043
SWIDTH 960 0
DWIDTH 14 0
BBX 13 14 1 -2
BITMAP
0080
0080
EFF8
A920
A920
AFF8
A920
ADA0
ADB0
ADB0
ED70
1570
15A8
2120
ENDCHAR
STARTCHAR $325e
ENCODING 22057
SWIDTH 960 0
DWIDTH 14 0
BBX 13 14 1 -2
BITMAP
0220
0220
FFF8
9220
97F0
92A0
9FF8
92A0
97F0
F080
1FF8
0080
0080
0080
ENDCHAR
STARTCHAR $5362
ENCODING 22063
SWIDTH 960 0
DWIDTH 14 0
BBX 13 14 1 -2
BITMAP
0100
0FF0
E110
BFF8
A110
AFF0
AB50
AF70
A910
AFF0
E910
0F70
0B50
1350
ENDCHAR
STARTCHAR $3e7c
ENCODING 22065
SWIDTH 960 0
DWIDTH 14 0
BBX 12 13 1 -2
BITMAP
0FF0
E810
AFF0
A8C0
AFE0
AAA0
ABE0
A880
EFF0
1550
17B0
2410
4430
ENDCHAR
STARTCHAR $535e
ENCODING 22066
SWIDTH 960 0
DWIDTH 14 0
BBX 12 14 1 -2
BITMAP
0400
0470
FFD0
A450
AF50
A970
AF50
A950
AF70
E450
3F90
0490
0510
0630
ENDCHAR
STARTCHAR $535c
ENCODING 22068
SWIDTH 960 0
DWIDTH 14 0
BBX 13 14 1 -2
BITMAP
0240
0A48
EBF0
AA40
AF48
B9F8
A240
BFF0
A490
A7F0
E490
07F0
0810
1030
ENDCHAR
STARTCHAR $535d
ENCODING 22070
SWIDTH 960 0
DWIDTH 14 0
BBX 13 14 1 -2
BITMAP
0A10
0A20
EAC0
BF80
AA80
AEF8
AAA0
AEA0
AAA0
BFA0
EAA0
0B20
1120
2220
ENDCHAR
STARTCHAR $535f
ENCODING 22072
SWIDTH 960 0
DWIDTH 14 0
BBX 13 14 1 -2
BITMAP
0400
0400
E7F8
AD50
B550
BFF8
A550
A550
A550
AFF8
E000
0A90
0948
1148
ENDCHAR
STARTCHAR $313d
ENCODING 22082
SWIDTH 960 0
DWIDTH 14 0
BBX 13 14 1 -2
BITMAP
0220
0140
FFF8
9140
97F0
9550
9670
97F0
97F0
9020
FFF8
0220
0120
0060
ENDCHAR
STARTCHAR $4139
ENCODING 22092
SWIDTH 960 0
DWIDTH 14 0
BBX 12 13 1 -1
BITMAP
0220
0140
F7F0
9490
97F0
9490
97F0
9000
93E0
9220
F3E0
0220
03E0
ENDCHAR
STARTCHAR $5359
ENCODING 22094
SWIDTH 960 0
DWIDTH 14 0
BBX 13 13 1 -1
BITMAP
0080
0FF8
F080
93E0
9FF8
9808
9FF0
93E0
9220
93E0
F220
0140
1FF8
ENDCHAR
STARTCHAR $535a
ENCODING 22096
SWIDTH 960 0
DWIDTH 14 0
BBX 13 12 1 -1
BITMAP
3DE0
2520
3DE0
0000
7FF0
0200
FFF8
0000
3DE0
2520
2520
3DE0
ENDCHAR
STARTCHAR $337a
ENCODING 22107
SWIDTH 960 0
DWIDTH 14 0
BBX 13 13 1 -1
BITMAP
0080
0280
F2F0
9280
9FF8
96B0
95B0
95D0
97F0
95D0
F6B0
0490
07F0
ENDCHAR
STARTCHAR $5361
ENCODING 22116
SWIDTH 960 0
DWIDTH 14 0
BBX 13 14 1 -2
BITMAP
0220
0220
FFF8
9760
96F0
9AA8
9220
97F0
9000
FFF8
04A0
0490
0890
0180
ENDCHAR
STARTCHAR $346f
ENCODING 22120
SWIDTH 960 0
DWIDTH 14 0
BBX 13 12 1 -1
BITMAP
3DE0
2520
2520
3DE0
0200
FFF8
0880
3060
FDF8
2520
2520
3DE0
ENDCHAR
STARTCHAR $5364
ENCODING 22122
SWIDTH 960 0
DWIDTH 14 0
BBX 13 13 1 -2
BITMAP
03E0
F220
93E0
9000
9770
9550
9770
9080
9FF8
F1C0
02A0
0C98
0080
ENDCHAR
STARTCHAR $5360
ENCODING 22123
SWIDTH 960 0
DWIDTH 14 0
BBX 13 14 1 -2
BITMAP
0080
0080
F7F0
9240
9FF8
93E0
9220
93E0
9220
93E0
F180
0A50
0A28
11E8
ENDCHAR
STARTCHAR $5363
ENCODING 22124
SWIDTH 960 0
DWIDTH 14 0
BBX 13 13 1 -1
BITMAP
0440
0440
F7F8
9AA0
9110
9000
9FF8
92A0
92A0
F2B0
15C8
0888
3FF8
ENDCHAR
STARTCHAR $4a2e
ENCODING 22132
SWIDTH 960 0
DWIDTH 14 0
BBX 13 14 1 -2
BITMAP
0080
07F0
F2A0
9FF8
9220
97F0
9410
97F0
9410
97F0
F410
07F0
0220
1C18
ENDCHAR
STARTCHAR $4655
ENCODING 22136
SWIDTH 960 0
DWIDTH 14 0
BBX 13 14 1 -2
BITMAP
0400
04F8
E720
BC40
A5F0
B590
B5F0
B590
BFF0
A490
E4F0
0560
0550
0388
ENDCHAR
STARTCHAR $4838
ENCODING 22138
SWIDTH 960 0
DWIDTH 14 0
BBX 13 14 1 -2
BITMAP
0208
0210
FFE0
A940
A540
A678
BFD0
A450
BFD0
EE50
AD50
9590
2490
0510
ENDCHAR
STARTCHAR $5366
ENCODING 22144
SWIDTH 960 0
DWIDTH 14 0
BBX 13 14 1 -2
BITMAP
0080
07F8
F490
9950
9548
9528
98E0
97F0
9550
9FF8
F000
0FF8
0080
0180
ENDCHAR
STARTCHAR $5365
ENCODING 22150
SWIDTH 960 0
DWIDTH 14 0
BBX 13 14 1 -2
BITMAP
0220
0FF8
F2A0
9080
9FF8
93E0
9220
93E0
97F0
9410
F5D0
0550
05D0
0430
ENDCHAR
STARTCHAR $3345
ENCODING 22151
SWIDTH 960 0
DWIDTH 14 0
BBX 13 14 1 -2
BITMAP
0420
0420
FFF8
A420
A420
BFF8
AA50
AAD0
BBD8
BB58
EAD8
1290
1290
2730
ENDCHAR
STARTCHAR $5367
ENCODING 22154
SWIDTH 960 0
DWIDTH 14 0
BBX 13 14 1 -2
BITMAP
0080
03E0
F220
93E0
93E0
9220
97F0
9490
97F0
9490
F7F0
0FF8
0220
0C20
ENDCHAR
STARTCHAR $536a
ENCODING 22159
SWIDTH 960 0
DWIDTH 14 0
BBX 13 14 1 -2
BITMAP
0080
07F0
F080
9FF8
9BE8
9AA0
93E0
92A0
93E0
9FF8
F490
04F0
0B80
10F8
ENDCHAR
STARTCHAR $5369
ENCODING 22164
SWIDTH 960 0
DWIDTH 14 0
BBX 13 14 1 -2
BITMAP
0080
07F0
F080
9FF8
9BE8
9AA8
93E0
92A0
93E0
9140
F7E0
04F0
0B80
10F8
ENDCHAR
STARTCHAR $5368
ENCODING 22176
SWIDTH 960 0
DWIDTH 14 0
BBX 13 14 1 -2
BITMAP
0208
0DE8
ED68
AB68
BEE8
A328
A528
AFE8
B268
EFA8
0AA8
0708
0788
1818
ENDCHAR
STARTCHAR $4739
ENCODING 22178
SWIDTH 960 0
DWIDTH 14 0
BBX 13 14 1 -2
BITMAP
0200
FFF8
1240
1FC0
0200
FFF8
9548
6FB0
0500
FFF8
0D20
F8C0
0E60
7018
ENDCHAR
STARTCHAR $536b
ENCODING 22181
SWIDTH 960 0
DWIDTH 14 0
BBX 13 14 1 -2
BITMAP
0280
1FF8
E280
ABA0
A828
BBB0
AAA0
AAA8
BBA8
AA98
E000
0A90
0948
1148
ENDCHAR
STARTCHAR $536c
ENCODING 22190
SWIDTH 960 0
DWIDTH 14 0
BBX 12 14 1 -2
BITMAP
2FF0
2750
D560
5760
2750
5450
F770
2740
4200
7FF0
4F90
4890
4F90
4030
ENDCHAR
STARTCHAR $536e
ENCODING 22196
SWIDTH 960 0
DWIDTH 14 0
BBX 13 14 1 -2
BITMAP
3CF0
2490
3CF0
7FF8
4040
5F40
4440
7FF8
5290
5F50
5E60
5360
7E90
8308
ENDCHAR
STARTCHAR $536d
ENCODING 22198
SWIDTH 960 0
DWIDTH 14 0
BBX 13 13 1 -2
BITMAP
0770
F550
9770
9550
9770
9550
9770
9550
F988
1FF8
0640
01C0
0E30
ENDCHAR
STARTCHAR $5370
ENCODING 22204
SWIDTH 960 0
DWIDTH 14 0
BBX 13 14 1 -2
BITMAP
0030
0FE0
E910
BFF8
AA50
AFF0
AF10
A910
AFF8
AF90
E850
0F50
0F10
0830
ENDCHAR
STARTCHAR $5373
ENCODING 22208
SWIDTH 960 0
DWIDTH 14 0
BBX 13 14 1 -2
BITMAP
0420
0420
FFF8
A4F8
BFA8
B5F8
BFA8
B5F8
BF50
E4F8
BF10
84F8
0450
0430
ENDCHAR
STARTCHAR $5371
ENCODING 22209
SWIDTH 960 0
DWIDTH 14 0
BBX 13 13 1 -2
BITMAP
07F0
F220
93E0
9220
97F0
9020
9FF8
9550
9770
F770
0558
1FF0
0110
ENDCHAR
STARTCHAR $536f
ENCODING 22210
SWIDTH 960 0
DWIDTH 14 0
BBX 13 13 1 -1
BITMAP
3DE0
2520
3DE0
FFF8
0400
3FE0
3F20
27E0
3FE0
18C0
FDF8
2520
3DE0
ENDCHAR
STARTCHAR $5372
ENCODING 22211
SWIDTH 960 0
DWIDTH 14 0
BBX 13 14 1 -2
BITMAP
0450
0450
FF50
AAF8
AAD0
AF50
B578
A450
BF50
EE78
AD50
9550
2478
0440
ENDCHAR
STARTCHAR $5374
ENCODING 22216
SWIDTH 960 0
DWIDTH 14 0
BBX 13 14 1 -2
BITMAP
0240
1FF8
E640
AF40
A5F0
BF50
AFD0
BF78
A758
FC88
A7E0
9FF8
0220
0FF0
ENDCHAR
STARTCHAR $5375
ENCODING 22222
SWIDTH 960 0
DWIDTH 14 0
BBX 13 14 1 -2
BITMAP
0060
0EA0
EA90
ABF8
AF58
ABE8
ABF8
AE00
AAF0
EA90
AEF0
8C90
0AF0
1290
ENDCHAR
STARTCHAR $5376
ENCODING 22225
SWIDTH 960 0
DWIDTH 14 0
BBX 12 14 1 -2
BITMAP
1FF0
1010
FFF0
B6B0
B6B0
BFF0
BA50
BFF0
B7F0
F7D0
9D50
17D0
2150
4FE0
ENDCHAR
STARTCHAR $5377
ENCODING 22227
SWIDTH 960 0
DWIDTH 14 0
BBX 13 14 1 -2
BITMAP
0700
1CF0
E750
BC50
A790
B930
A5E0
BFF8
AA50
EDB0
AFF0
8A50
0DB0
0FF0
ENDCHAR
STARTCHAR $5378
ENCODING 22231
SWIDTH 960 0
DWIDTH 14 0
BBX 11 13 2 -2
BITMAP
FFE0
8020
8020
8020
8020
8020
8020
8020
8020
8020
8020
FFE0
8020
ENDCHAR
STARTCHAR $5145
ENCODING 22232
SWIDTH 960 0
DWIDTH 14 0
BBX 11 13 2 -2
BITMAP
FFE0
8020
8020
9F20
9120
9120
9F20
9020
90A0
90A0
8FA0
8020
8060
ENDCHAR
STARTCHAR $3c7c
ENCODING 22234
SWIDTH 960 0
DWIDTH 14 0
BBX 11 12 2 -1
BITMAP
FFE0
8420
8420
8420
8420
8420
8A20
8A20
9120
A0A0
8020
FFE0
ENDCHAR
STARTCHAR $3b4d
ENCODING 22235
SWIDTH 960 0
DWIDTH 14 0
BBX 12 11 1 0
BITMAP
FFF0
8910
8910
8910
8910
9130
9130
A0F0
C010
8010
FFF0
ENDCHAR
STARTCHAR $3273
ENCODING 22238
SWIDTH 960 0
DWIDTH 14 0
BBX 11 12 2 -1
BITMAP
FFE0
8020
8020
9F20
9120
9120
9120
9120
9F20
8020
8020
FFE0
ENDCHAR
STARTCHAR $3078
ENCODING 22240
SWIDTH 960 0
DWIDTH 14 0
BBX 12 13 1 -2
BITMAP
FFF0
8410
8410
8410
FFF0
8410
8410
8A10
9110
A0D0
8010
8010
FFF0
ENDCHAR
STARTCHAR $4344
ENCODING 22243
SWIDTH 960 0
DWIDTH 14 0
BBX 12 13 1 -2
BITMAP
FFF0
8110
8110
FFF0
8110
9110
8910
8910
8110
8110
8310
8010
FFF0
ENDCHAR
STARTCHAR $5379
ENCODING 22254
SWIDTH 960 0
DWIDTH 14 0
BBX 11 12 2 -1
BITMAP
FFE0
8020
8A20
8A60
92A0
B320
D220
9260
9260
91E0
8020
FFE0
ENDCHAR
STARTCHAR $3a24
ENCODING 22256
SWIDTH 960 0
DWIDTH 14 0
BBX 11 12 2 -1
BITMAP
FFE0
8420
8420
FFE0
8420
8E20
8E20
9520
A4A0
C460
8420
FFE0
ENDCHAR
STARTCHAR $304f
ENCODING 22258
SWIDTH 960 0
DWIDTH 14 0
BBX 11 12 2 -1
BITMAP
FFE0
8020
8920
8920
BFA0
8920
8920
FFE0
8920
9120
A120
FFE0
ENDCHAR
STARTCHAR $3f5e
ENCODING 22259
SWIDTH 960 0
DWIDTH 14 0
BBX 12 12 1 -1
BITMAP
FFF0
8010
A450
9250
8A90
B890
8710
8190
8250
8C10
B010
FFF0
ENDCHAR
STARTCHAR $537a
ENCODING 22265
SWIDTH 960 0
DWIDTH 14 0
BBX 11 12 2 -1
BITMAP
FFE0
8420
8A20
B1A0
DF60
8020
BFA0
84A0
84A0
8720
8420
FFE0
ENDCHAR
STARTCHAR $3847
ENCODING 22266
SWIDTH 960 0
DWIDTH 14 0
BBX 12 13 1 -2
BITMAP
FFF0
8410
8410
FFF0
8410
8410
9F90
9090
9090
9F90
8010
8010
FFF0
ENDCHAR
STARTCHAR $3971
ENCODING 22269
SWIDTH 960 0
DWIDTH 14 0
BBX 12 13 1 -2
BITMAP
FFF0
8010
BFD0
8410
8410
8410
BFD0
8410
8490
8450
BFD0
8010
FFF0
ENDCHAR
STARTCHAR $537c
ENCODING 22271
SWIDTH 960 0
DWIDTH 14 0
BBX 11 12 2 -1
BITMAP
FFE0
8820
FFE0
8820
9FA0
98A0
AFA0
C8A0
8FA0
88A0
89A0
FFE0
ENDCHAR
STARTCHAR $537b
ENCODING 22272
SWIDTH 960 0
DWIDTH 14 0
BBX 11 12 2 -1
BITMAP
FFE0
9220
9260
A5E0
8420
BFA0
8420
87A0
88A0
90A0
A320
FFE0
ENDCHAR
STARTCHAR $4a60
ENCODING 22275
SWIDTH 960 0
DWIDTH 14 0
BBX 11 13 2 -2
BITMAP
FFE0
84A0
FFE0
8420
BFA0
A4A0
BFA0
A4A0
BFA0
A4A0
A5A0
FFE0
8020
ENDCHAR
STARTCHAR $537d
ENCODING 22276
SWIDTH 960 0
DWIDTH 14 0
BBX 11 12 2 -1
BITMAP
FFE0
8020
BFA0
8420
BF20
8920
FFE0
9F20
9120
9F20
8020
FFE0
ENDCHAR
STARTCHAR $5421
ENCODING 22280
SWIDTH 960 0
DWIDTH 14 0
BBX 11 12 2 -1
BITMAP
FFE0
A4A0
DF60
8A20
FFE0
9120
BFA0
D160
9620
90A0
8FA0
FFE0
ENDCHAR
STARTCHAR $537e
ENCODING 22281
SWIDTH 960 0
DWIDTH 14 0
BBX 11 12 2 -1
BITMAP
FFE0
8420
9F20
8420
FFE0
9120
8A20
BFA0
8420
9F20
8420
FFE0
ENDCHAR
STARTCHAR $5422
ENCODING 22283
SWIDTH 960 0
DWIDTH 14 0
BBX 11 12 2 -1
BITMAP
FFE0
8320
82A0
FFE0
8220
BAA0
AAA0
B960
8DE0
F2E0
8460
FFE0
ENDCHAR
STARTCHAR $5423
ENCODING 22285
SWIDTH 960 0
DWIDTH 14 0
BBX 11 12 2 -1
BITMAP
FFE0
8420
9F20
8920
BFA0
9120
9F20
9FA0
9120
BFA0
8120
FFE0
ENDCHAR
STARTCHAR $3777
ENCODING 22287
SWIDTH 960 0
DWIDTH 14 0
BBX 12 12 1 -1
BITMAP
FFF0
9290
BFD0
8910
FFF0
9090
BF50
C130
9F10
9050
8FD0
FFF0
ENDCHAR
STARTCHAR $3160
ENCODING 22290
SWIDTH 960 0
DWIDTH 14 0
BBX 11 12 2 -1
BITMAP
FFE0
8420
BFA0
8420
FFE0
9F20
9120
9FA0
8EA0
B520
84A0
FFE0
ENDCHAR
STARTCHAR $5424
ENCODING 22291
SWIDTH 960 0
DWIDTH 14 0
BBX 11 13 2 -2
BITMAP
FFE0
9F20
9120
BFA0
A0A0
BFA0
BFA0
A0A0
BFA0
99A0
E060
FFE0
8020
ENDCHAR
STARTCHAR $5426
ENCODING 22294
SWIDTH 960 0
DWIDTH 14 0
BBX 11 12 2 -1
BITMAP
FFE0
9F20
9120
9F20
8420
FFE0
BFA0
AEA0
AAA0
AEA0
BFA0
FFE0
ENDCHAR
STARTCHAR $5425
ENCODING 22296
SWIDTH 960 0
DWIDTH 14 0
BBX 11 13 2 -2
BITMAP
FFE0
8420
BFA0
9F20
9520
9F20
9520
FFE0
8120
FFE0
9120
8320
FFE0
ENDCHAR
STARTCHAR $5428
ENCODING 22300
SWIDTH 960 0
DWIDTH 14 0
BBX 11 12 2 -1
BITMAP
FFE0
BFA0
AAA0
BFA0
FFE0
9F20
9120
9F60
FAA0
9D20
B0E0
FFE0
ENDCHAR
STARTCHAR $455a
ENCODING 22303
SWIDTH 960 0
DWIDTH 14 0
BBX 13 13 1 -1
BITMAP
0200
0200
0200
0200
0200
7FF0
0200
0200
0200
0200
0200
0200
FFF8
ENDCHAR
STARTCHAR $5429
ENCODING 22310
SWIDTH 960 0
DWIDTH 14 0
BBX 13 14 1 -2
BITMAP
0380
2080
2080
2080
F880
2080
2180
2140
2940
3240
C220
0420
0810
1008
ENDCHAR
STARTCHAR $3035
ENCODING 22311
SWIDTH 960 0
DWIDTH 14 0
BBX 13 12 1 -1
BITMAP
3FF8
2100
2100
2100
2100
2FF0
2100
2100
2100
4100
4100
9FF8
ENDCHAR
STARTCHAR $3a5f
ENCODING 22312
SWIDTH 960 0
DWIDTH 14 0
BBX 13 14 1 -2
BITMAP
0400
0400
0400
FFF8
0880
1880
1080
17F0
3080
5080
9080
1080
1FF8
1000
ENDCHAR
STARTCHAR $373d
ENCODING 22317
SWIDTH 960 0
DWIDTH 14 0
BBX 13 13 1 -1
BITMAP
0200
0200
3FE0
0200
0200
FFF8
0200
0200
7FF0
0200
0200
0200
FFF8
ENDCHAR
STARTCHAR $434f
ENCODING 22320
SWIDTH 960 0
DWIDTH 14 0
BBX 13 14 1 -2
BITMAP
0080
2480
2480
2490
FCF0
2790
2C90
2490
2490
2CE0
3480
C408
0408
03F8
ENDCHAR
STARTCHAR $542a
ENCODING 22327
SWIDTH 960 0
DWIDTH 14 0
BBX 13 13 1 -2
BITMAP
27F8
2080
2080
F880
20C0
20A0
2090
2890
3080
C080
0080
0080
0080
ENDCHAR
STARTCHAR $542b
ENCODING 22328
SWIDTH 960 0
DWIDTH 14 0
BBX 12 13 1 -1
BITMAP
0080
2080
2080
2490
FC90
2490
2490
2490
2C90
3490
C490
0490
07F0
ENDCHAR
STARTCHAR $542d
ENCODING 22331
SWIDTH 960 0
DWIDTH 14 0
BBX 13 14 1 -2
BITMAP
0010
2060
2380
2200
FA00
23F8
2240
2240
2A40
3440
C440
0840
1040
0040
ENDCHAR
STARTCHAR $542e
ENCODING 22336
SWIDTH 960 0
DWIDTH 14 0
BBX 13 13 1 -1
BITMAP
0080
2080
2080
2480
FC80
24F0
2480
2480
2C80
3480
C480
0480
1FF8
ENDCHAR
STARTCHAR $3a64
ENCODING 22338
SWIDTH 960 0
DWIDTH 14 0
BBX 13 14 1 -2
BITMAP
2000
23F8
2200
2200
FBF0
2310
2310
22A0
22A0
3C40
C4C0
0920
1610
2008
ENDCHAR
STARTCHAR $3651
ENCODING 22343
SWIDTH 960 0
DWIDTH 14 0
BBX 12 14 1 -2
BITMAP
0200
2200
2200
23F0
FC10
2610
2910
2110
2050
2990
3610
C010
0010
0060
ENDCHAR
STARTCHAR $4b37
ENCODING 22346
SWIDTH 960 0
DWIDTH 14 0
BBX 13 14 1 -2
BITMAP
0080
2080
2080
2FF8
F880
2080
2080
20F0
2110
3910
C210
0410
0810
1060
ENDCHAR
STARTCHAR $542c
ENCODING 22350
SWIDTH 960 0
DWIDTH 14 0
BBX 13 14 1 -2
BITMAP
0200
2200
2200
23F8
FC88
2490
28A0
2180
2940
3140
C220
0220
0410
0808
ENDCHAR
STARTCHAR $542f
ENCODING 22351
SWIDTH 960 0
DWIDTH 14 0
BBX 13 13 1 -2
BITMAP
27F8
2040
2040
F880
20C0
21A0
2290
2C88
3088
C080
0080
0080
0080
ENDCHAR
STARTCHAR $3a41
ENCODING 22352
SWIDTH 960 0
DWIDTH 14 0
BBX 13 13 1 -1
BITMAP
0200
1240
1240
1240
32C0
2AA0
4710
8208
7FF0
0200
0200
0200
FFF8
ENDCHAR
STARTCHAR $3923
ENCODING 22353
SWIDTH 960 0
DWIDTH 14 0
BBX 13 14 1 -2
BITMAP
0080
2080
2FF8
2000
F800
23C0
2240
2240
2240
3A40
C440
0448
0848
1038
ENDCHAR
STARTCHAR $5433
ENCODING 22369
SWIDTH 960 0
DWIDTH 14 0
BBX 13 14 1 -2
BITMAP
0080
2080
27F8
2490
FCA0
2480
27F0
2610
2D20
3520
C8C0
08C0
1320
2C18
ENDCHAR
STARTCHAR $3a25
ENCODING 22372
SWIDTH 960 0
DWIDTH 14 0
BBX 12 14 1 -2
BITMAP
0080
2080
2080
27F0
FC90
2490
27F0
2490
2C90
37F0
C080
0080
0080
0080
ENDCHAR
STARTCHAR $4333
ENCODING 22374
SWIDTH 960 0
DWIDTH 14 0
BBX 13 12 1 -1
BITMAP
23E0
2220
2220
FA20
23E0
2220
2220
2A20
33E0
C000
0000
1FF8
ENDCHAR
STARTCHAR $5430
ENCODING 22377
SWIDTH 960 0
DWIDTH 14 0
BBX 13 13 1 -1
BITMAP
0220
2220
2220
2FF8
FA20
2220
2220
23E0
2A20
3220
C220
0220
03E0
ENDCHAR
STARTCHAR $445a
ENCODING 22378
SWIDTH 960 0
DWIDTH 14 0
BBX 13 13 1 -2
BITMAP
2FF8
2080
2490
FA90
22A0
2080
2FF8
2080
3880
C080
0080
0080
0080
ENDCHAR
STARTCHAR $5434
ENCODING 22399
SWIDTH 960 0
DWIDTH 14 0
BBX 13 14 1 -2
BITMAP
0120
2120
2120
2220
FBF8
2620
2B20
22A0
2AA0
3220
C220
0220
0220
0260
ENDCHAR
STARTCHAR $3f62
ENCODING 22402
SWIDTH 960 0
DWIDTH 14 0
BBX 13 13 1 -1
BITMAP
0060
3F80
0200
7FF0
1240
1240
FFF8
1240
1240
7FF0
0200
0200
7FF0
ENDCHAR
STARTCHAR $5432
ENCODING 22408
SWIDTH 960 0
DWIDTH 14 0
BBX 13 13 1 -1
BITMAP
08A0
0890
10B8
17C0
3040
5020
9228
1218
0208
3FE0
0200
0200
FFF8
ENDCHAR
STARTCHAR $5435
ENCODING 22409
SWIDTH 960 0
DWIDTH 14 0
BBX 13 14 1 -2
BITMAP
0200
2200
2200
27F0
FC10
2F90
2490
2490
2F90
34E0
C400
0408
0408
03F8
ENDCHAR
STARTCHAR $373f
ENCODING 22411
SWIDTH 960 0
DWIDTH 14 0
BBX 13 13 1 -1
BITMAP
0010
7F90
2490
2490
FF90
2490
2490
4430
8200
3FE0
0200
0200
FFF8
ENDCHAR
STARTCHAR $5436
ENCODING 22419
SWIDTH 960 0
DWIDTH 14 0
BBX 13 14 1 -2
BITMAP
0080
2080
27F8
2080
F8A0
2320
2140
20D0
2890
3120
C260
0090
0308
0C08
ENDCHAR
STARTCHAR $5437
ENCODING 22432
SWIDTH 960 0
DWIDTH 14 0
BBX 13 13 1 -2
BITMAP
27E0
2420
2420
FFE0
2420
2420
27E8
2C88
3490
C460
0520
0610
1808
ENDCHAR
STARTCHAR $3924
ENCODING 22434
SWIDTH 960 0
DWIDTH 14 0
BBX 13 13 1 -1
BITMAP
0030
27C0
2400
2400
FFF8
2400
2400
25F0
2510
3D10
C910
0910
11F0
ENDCHAR
STARTCHAR $3340
ENCODING 22435
SWIDTH 960 0
DWIDTH 14 0
BBX 13 12 1 -1
BITMAP
2FF8
2000
23E0
FA20
2220
23E0
2220
2A20
3220
C3E0
0000
1FF8
ENDCHAR
STARTCHAR $5439
ENCODING 22436
SWIDTH 960 0
DWIDTH 14 0
BBX 13 12 1 -1
BITMAP
27F8
2080
20A0
F910
27F8
2088
2080
2FF0
3080
C080
0080
0FF8
ENDCHAR
STARTCHAR $543a
ENCODING 22442
SWIDTH 960 0
DWIDTH 14 0
BBX 13 14 1 -2
BITMAP
0210
2110
2120
27F8
F920
2120
2120
2120
2FF8
3120
C220
0220
0420
0820
ENDCHAR
STARTCHAR $543b
ENCODING 22448
SWIDTH 960 0
DWIDTH 14 0
BBX 13 14 1 -2
BITMAP
0080
2080
20F0
2080
F880
27F8
2000
27F8
2880
30E0
C090
0080
0080
0080
ENDCHAR
STARTCHAR $5438
ENCODING 22451
SWIDTH 960 0
DWIDTH 14 0
BBX 13 14 1 -2
BITMAP
0100
21F0
2200
2400
F900
21F8
2220
2620
2A20
3220
C220
0220
0220
0260
ENDCHAR
STARTCHAR $5431
ENCODING 22464
SWIDTH 960 0
DWIDTH 14 0
BBX 13 13 1 -1
BITMAP
0060
3F80
0200
FFF8
0A90
7AA0
0AC0
1A90
6A70
0200
3FE0
0200
FFF8
ENDCHAR
STARTCHAR $543c
ENCODING 22467
SWIDTH 960 0
DWIDTH 14 0
BBX 13 14 1 -2
BITMAP
0080
20A0
2110
27F8
F908
2100
23F0
2480
2080
3FF8
C180
0140
0620
1818
ENDCHAR
STARTCHAR $543d
ENCODING 22470
SWIDTH 960 0
DWIDTH 14 0
BBX 12 14 1 -2
BITMAP
0100
21E0
2240
2C80
FFF0
2490
2490
27F0
2C90
3490
C7F0
0410
0810
1030
ENDCHAR
STARTCHAR $4b64
ENCODING 22475
SWIDTH 960 0
DWIDTH 14 0
BBX 13 13 1 -1
BITMAP
2000
27F0
2490
2490
FFF0
2490
2490
27F0
2080
3FF0
C080
0080
1FF8
ENDCHAR
STARTCHAR $3e6b
ENCODING 22478
SWIDTH 960 0
DWIDTH 14 0
BBX 13 14 1 -2
BITMAP
00A0
2090
2090
27F8
FC80
2490
2750
2550
2D60
3520
C920
0D68
1398
2008
ENDCHAR
STARTCHAR $543f
ENCODING 22482
SWIDTH 960 0
DWIDTH 14 0
BBX 13 14 1 -2
BITMAP
0010
2060
27A0
2290
FA88
2488
2020
2020
2FF8
3220
C120
0120
0020
0060
ENDCHAR
STARTCHAR $5440
ENCODING 22483
SWIDTH 960 0
DWIDTH 14 0
BBX 13 14 1 -2
BITMAP
0040
2088
2748
2230
F920
21C0
2720
2020
2FF8
3220
C120
0120
0020
0060
ENDCHAR
STARTCHAR $543e
ENCODING 22484
SWIDTH 960 0
DWIDTH 14 0
BBX 13 14 1 -2
BITMAP
00A0
2090
2FF8
2080
FFF0
2490
2490
27F0
2C90
3490
C7F0
0490
0490
04B0
ENDCHAR
STARTCHAR $5442
ENCODING 22486
SWIDTH 960 0
DWIDTH 14 0
BBX 13 14 1 -2
BITMAP
0220
2220
2FF8
2220
F940
2140
2148
2250
2A60
3640
CA40
0248
0248
0238
ENDCHAR
STARTCHAR $4738
ENCODING 22492
SWIDTH 960 0
DWIDTH 14 0
BBX 13 13 1 -1
BITMAP
1040
1040
FFF8
38E0
34E0
5550
9248
1240
0200
3FE0
0200
0200
FFF8
ENDCHAR
STARTCHAR $3068
ENCODING 22495
SWIDTH 960 0
DWIDTH 14 0
BBX 13 14 1 -2
BITMAP
0080
20A0
2090
2FF8
2080
FF90
2590
2550
2750
2C60
3128
C668
1898
0108
ENDCHAR
STARTCHAR $4956
ENCODING 22496
SWIDTH 960 0
DWIDTH 14 0
BBX 13 14 1 -2
BITMAP
0080
2100
27E0
2420
FFE0
2400
27F0
2410
27F0
3880
CFF8
0080
0080
0080
ENDCHAR
STARTCHAR $5443
ENCODING 22499
SWIDTH 960 0
DWIDTH 14 0
BBX 13 14 1 -2
BITMAP
0080
2080
2FF8
2220
FA20
2330
24C8
2888
2080
3FF8
C080
0080
0080
0080
ENDCHAR
STARTCHAR $3e7d
ENCODING 22516
SWIDTH 960 0
DWIDTH 14 0
BBX 13 13 1 -1
BITMAP
0040
2040
27F8
2040
FDF0
2510
25F0
2510
2DF0
3510
C5F0
0400
07F8
ENDCHAR
STARTCHAR $3c39
ENCODING 22519
SWIDTH 960 0
DWIDTH 14 0
BBX 13 14 1 -2
BITMAP
1080
1080
7C80
13E0
FEA0
44A0
25A0
28A0
FEE0
1160
7D20
1128
1228
1418
ENDCHAR
STARTCHAR $475d
ENCODING 22521
SWIDTH 960 0
DWIDTH 14 0
BBX 13 13 1 -1
BITMAP
0080
2080
27F8
2220
F920
2140
2FF8
2000
23F0
3A10
C210
0210
03F0
ENDCHAR
STARTCHAR $3470
ENCODING 22522
SWIDTH 960 0
DWIDTH 14 0
BBX 13 13 1 -1
BITMAP
0880
FFF8
0880
0F80
0880
0F80
0880
FFF8
1240
3FE0
C218
0200
7FF0
ENDCHAR
STARTCHAR $3a6b
ENCODING 22524
SWIDTH 960 0
DWIDTH 14 0
BBX 13 14 1 -2
BITMAP
0080
2080
27F0
20C0
F920
2610
2FF8
2010
2F90
3490
C490
0790
0010
0030
ENDCHAR
STARTCHAR $4b59
ENCODING 22528
SWIDTH 960 0
DWIDTH 14 0
BBX 13 13 1 -2
BITMAP
27F8
2408
27F8
FC40
2550
2550
2550
2DF0
3648
CA48
0A48
13F8
2208
ENDCHAR
STARTCHAR $4632
ENCODING 22530
SWIDTH 960 0
DWIDTH 14 0
BBX 13 13 1 -1
BITMAP
2220
1240
FFF8
8008
9FC8
1040
1040
1FC0
0200
3FE0
0200
0200
FFF8
ENDCHAR
STARTCHAR $3778
ENCODING 22533
SWIDTH 960 0
DWIDTH 14 0
BBX 13 12 1 -1
BITMAP
7FF0
4910
7CA0
44A0
7C40
49A0
7E18
4200
3FE0
0200
0200
FFF8
ENDCHAR
STARTCHAR $424f
ENCODING 22534
SWIDTH 960 0
DWIDTH 14 0
BBX 13 13 1 -1
BITMAP
0220
2220
2240
27F8
FE40
2A40
23F0
2240
2A40
33F0
C240
0240
03F8
ENDCHAR
STARTCHAR $5441
ENCODING 22538
SWIDTH 960 0
DWIDTH 14 0
BBX 13 12 1 -1
BITMAP
FFF8
0500
3DE0
2020
3DE0
0500
0500
FFF8
0200
3FE0
0200
FFF8
ENDCHAR
STARTCHAR $5444
ENCODING 22539
SWIDTH 960 0
DWIDTH 14 0
BBX 12 13 1 -2
BITMAP
2770
2550
2550
FD50
2770
2550
2550
2770
3D50
C950
0990
1190
2330
ENDCHAR
STARTCHAR $4244
ENCODING 22549
SWIDTH 960 0
DWIDTH 14 0
BBX 13 13 1 -1
BITMAP
0100
FFF8
9100
E3F0
A610
9BF0
9210
E3F0
8210
8230
3FE0
0200
FFF8
ENDCHAR
STARTCHAR $5445
ENCODING 22553
SWIDTH 960 0
DWIDTH 14 0
BBX 13 12 1 -1
BITMAP
2FF8
2140
27F0
FD50
2550
27F0
2080
2880
37F0
C080
0080
1FF8
ENDCHAR
STARTCHAR $5446
ENCODING 22557
SWIDTH 960 0
DWIDTH 14 0
BBX 12 13 1 -2
BITMAP
23E0
2220
22E0
FAA0
22A0
27F0
2410
2DD0
3550
C550
05D0
0510
0430
ENDCHAR
STARTCHAR $5448
ENCODING 22561
SWIDTH 960 0
DWIDTH 14 0
BBX 13 13 1 -1
BITMAP
1000
13E0
2220
23E0
6080
AFF8
21C0
26B0
2888
0200
3FE0
0200
FFF8
ENDCHAR
STARTCHAR $4469
ENCODING 22564
SWIDTH 960 0
DWIDTH 14 0
BBX 13 13 1 -2
BITMAP
23E0
2220
23E0
FA20
23E0
2000
2FF8
2080
3CF0
C480
0680
0980
1078
ENDCHAR
STARTCHAR $342e
ENCODING 22570
SWIDTH 960 0
DWIDTH 14 0
BBX 13 13 1 -1
BITMAP
0220
2FF8
2220
23E0
FA20
23E0
2220
2FF8
2540
3550
C630
0400
07F8
ENDCHAR
STARTCHAR $7421
ENCODING 22575
SWIDTH 960 0
DWIDTH 14 0
BBX 13 14 1 -2
BITMAP
0200
3FE0
0200
7FF0
1040
7DF0
1040
1FF8
E000
7FF0
0480
0888
3088
C078
ENDCHAR
STARTCHAR $3161
ENCODING 22576
SWIDTH 960 0
DWIDTH 14 0
BBX 13 13 1 -2
BITMAP
27F8
2400
25F0
FD10
25F0
2510
25F0
2C40
37F8
C5A0
0460
0590
07F8
ENDCHAR
STARTCHAR $4a73
ENCODING 22577
SWIDTH 960 0
DWIDTH 14 0
BBX 13 14 1 -2
BITMAP
1000
11F0
7D10
1110
FF60
4500
25F0
2990
FF50
1160
7D20
1160
1190
1108
ENDCHAR
STARTCHAR $3e6c
ENCODING 22580
SWIDTH 960 0
DWIDTH 14 0
BBX 13 13 1 -2
BITMAP
23E0
2220
23E0
FA20
23E0
2000
2FF8
2A00
37F0
C950
0250
0490
0160
ENDCHAR
STARTCHAR $4548
ENCODING 22581
SWIDTH 960 0
DWIDTH 14 0
BBX 13 13 1 -1
BITMAP
0080
2090
27F0
20A0
F8C0
2FF8
2080
23F0
2E10
3BF0
C210
0210
03F0
ENDCHAR
STARTCHAR $3a66
ENCODING 22586
SWIDTH 960 0
DWIDTH 14 0
BBX 13 13 1 -2
BITMAP
27F0
2490
27F0
FC90
27F0
2080
2140
3A60
E650
1A48
0240
0440
0840
ENDCHAR
STARTCHAR $544e
ENCODING 22589
SWIDTH 960 0
DWIDTH 14 0
BBX 13 13 1 -2
BITMAP
27F0
2550
2550
FFF0
2000
2FF8
2080
2880
38F0
C880
0880
0FF8
0800
ENDCHAR
STARTCHAR $4a3d
ENCODING 22592
SWIDTH 960 0
DWIDTH 14 0
BBX 13 13 1 -2
BITMAP
27F8
2408
27F8
FD18
24A0
27F8
24A0
2CA0
37F8
C920
0920
1220
2420
ENDCHAR
STARTCHAR $4e5d
ENCODING 22593
SWIDTH 960 0
DWIDTH 14 0
BBX 13 12 1 -1
BITMAP
3FE0
2220
3FE0
2220
3FE0
6010
1260
1AC0
E230
3FE8
0200
FFF8
ENDCHAR
STARTCHAR $3274
ENCODING 22602
SWIDTH 960 0
DWIDTH 14 0
BBX 13 14 1 -2
BITMAP
0080
2100
27F0
2490
FFF0
2490
2490
27F0
21A0
3AA0
C2D0
04F8
0888
1078
ENDCHAR
STARTCHAR $544a
ENCODING 22603
SWIDTH 960 0
DWIDTH 14 0
BBX 13 13 1 -1
BITMAP
1040
1860
5550
5550
B2C0
28A0
4510
7FF8
4210
BFE0
0200
0200
FFF8
ENDCHAR
STARTCHAR $413a
ENCODING 22609
SWIDTH 960 0
DWIDTH 14 0
BBX 12 13 1 -1
BITMAP
4400
29F0
FF10
55F0
5510
7DF0
5510
1210
2230
5FC0
0200
0200
FFF0
ENDCHAR
STARTCHAR $544d
ENCODING 22610
SWIDTH 960 0
DWIDTH 14 0
BBX 13 14 1 -2
BITMAP
0040
2040
2FF0
2A40
FA40
2BF8
2E20
2A20
2BF8
3B20
CEA0
08A0
0020
0060
ENDCHAR
STARTCHAR $4563
ENCODING 22612
SWIDTH 960 0
DWIDTH 14 0
BBX 13 13 1 -1
BITMAP
0220
2220
2FF8
2220
FAA0
2140
2220
2FF8
2800
37F0
C410
0410
07F0
ENDCHAR
STARTCHAR $4549
ENCODING 22615
SWIDTH 960 0
DWIDTH 14 0
BBX 13 13 1 -1
BITMAP
6080
1140
C220
2FF8
0080
1FF8
22A0
4C90
4380
0200
3FE0
0200
FFF8
ENDCHAR
ENDFONT
